{
copyright = "Copyright \U00A9 2019 IBM Corp. with Reserved Font Name \"Plex\"\012This Font Software is licensed under the SIL Open Font License, Version 1.1.\012This license is copied below, and is also available with a FAQ at: http://scripts.sil.org/OFL.";
customParameters = (
{
name = licenseURL;
value = "http://scripts.sil.org/OFL";
},
{
name = vendorID;
value = "";
},
{
name = glyphOrder;
value = (
    ".notdef",
    uni0000,
    uni000D,
    space,
    a,
    b,
    c,
    d,
    e,
    f,
    g,
    "g.alt02",
    h,
    i,
    j,
    k,
    l,
    m,
    n,
    o,
    p,
    q,
    r,
    s,
    t,
    u,
    v,
    w,
    x,
    y,
    z,
    A,
    B,
    C,
    D,
    E,
    F,
    G,
    H,
    I,
    J,
    K,
    L,
    M,
    N,
    O,
    P,
    Q,
    R,
    S,
    T,
    U,
    V,
    W,
    X,
    Y,
    Z,
    zero,
    one,
    two,
    three,
    four,
    five,
    six,
    seven,
    eight,
    nine,
    ampersand,
    at,
    hyphen,
    uni00AD,
    endash,
    emdash,
    underscore,
    period,
    ellipsis,
    colon,
    comma,
    semicolon,
    quotesingle,
    quotedbl,
    quoteleft,
    quoteright,
    quotedblleft,
    quotedblright,
    quotesinglbase,
    quotedblbase,
    guilsinglleft,
    guilsinglright,
    guillemotleft,
    guillemotright,
    exclamdown,
    exclam,
    questiondown,
    question,
    parenleft,
    parenright,
    bracketleft,
    bracketright,
    braceleft,
    braceright,
    slash,
    backslash,
    fraction,
    percent,
    perthousand,
    bar,
    brokenbar,
    section,
    paragraph,
    copyright,
    registered,
    trademark,
    ordfeminine,
    ordmasculine,
    degree,
    asterisk,
    dagger,
    daggerdbl,
    numbersign,
    asciicircum,
    asciitilde,
    plus,
    minus,
    plusminus,
    multiply,
    divide,
    equal,
    approxequal,
    notequal,
    less,
    greater,
    lessequal,
    greaterequal,
    periodcentered,
    bullet,
    lozenge,
    logicalnot,

glyphs = (
{
glyphname = .notdef;
layers = (
{
layerId = "A3FA1D5A-5B70-4048-948C-F73CFEE83353";
name = Bold;
paths = (
{
closed = 1;
nodes = (
"32 0 LINE",
"32 780 LINE",
"440 780 LINE",
"440 0 LINE"
);
},
{
closed = 1;
nodes = (
"120 88 LINE",
"352 88 LINE",
"352 692 LINE",
"120 692 LINE"
);
}
);
width = 472;
}
);
},
{
glyphname = a;
lastChange = "2018-11-02 02:47:18 +0000";
layers = (
{
layerId = "A3FA1D5A-5B70-4048-948C-F73CFEE83353";
name = Bold;
paths = (
{
closed = 1;
nodes = (
"156 534 OFFCURVE",
"96 494 OFFCURVE",
"57 434 CURVE",
"133 366 LINE",
"158 402 OFFCURVE",
"192 432 OFFCURVE",
"252 432 CURVE SMOOTH",
"320 432 OFFCURVE",
"349 399 OFFCURVE",
"349 340 CURVE SMOOTH",
"349 302 LINE",
"260 302 LINE SMOOTH",
"117 302 OFFCURVE",
"37 250 OFFCURVE",
"37 142 CURVE SMOOTH",
"37 49 OFFCURVE",
"96 -12 OFFCURVE",
"203 -12 CURVE SMOOTH",
"282 -12 OFFCURVE",
"338 22 OFFCURVE",
"355 90 CURVE",
"361 90 LINE",
"361 0 LINE",
"477 0 LINE",
"477 348 LINE SMOOTH",
"477 468 OFFCURVE",
"402 534 OFFCURVE",
"261 534 CURVE SMOOTH"
);
},
{
closed = 1;
nodes = (
"349 107 OFFCURVE",
"303 81 OFFCURVE",
"246 81 CURVE SMOOTH",
"195 81 OFFCURVE",
"167 101 OFFCURVE",
"167 144 CURVE SMOOTH",
"167 161 LINE SMOOTH",
"167 204 OFFCURVE",
"200 225 OFFCURVE",
"267 225 CURVE SMOOTH",
"349 225 LINE",
"349 156 LINE SMOOTH"
);
}
);
width = 545;
}
);
leftKerningGroup = a;
rightKerningGroup = a;
unicode = 0061;
},
{
glyphname = b;
layers = (
{
layerId = "A3FA1D5A-5B70-4048-948C-F73CFEE83353";
name = Bold;
paths = (
{
closed = 1;
nodes = (
"74 740 LINE",
"202 740 LINE",
"202 436 LINE",
"206 436 LINE",
"225 496 OFFCURVE",
"281 534 OFFCURVE",
"350 534 CURVE SMOOTH",
"483 534 OFFCURVE",
"555 437 OFFCURVE",
"555 262 CURVE SMOOTH",
"555 86 OFFCURVE",
"483 -12 OFFCURVE",
"350 -12 CURVE SMOOTH",
"281 -12 OFFCURVE",
"226 27 OFFCURVE",
"206 87 CURVE",
"202 87 LINE",
"202 0 LINE",
"74 0 LINE"
);
},
{
closed = 1;
nodes = (
"376 94 OFFCURVE",
"421 141 OFFCURVE",
"421 216 CURVE SMOOTH",
"421 306 LINE SMOOTH",
"421 381 OFFCURVE",
"376 429 OFFCURVE",
"309 429 CURVE SMOOTH",
"248 429 OFFCURVE",
"202 396 OFFCURVE",
"202 345 CURVE SMOOTH",
"202 179 LINE SMOOTH",
"202 124 OFFCURVE",
"248 94 OFFCURVE",
"309 94 CURVE SMOOTH"
);
}
);
width = 600;
}
);
leftKerningGroup = b;
rightKerningGroup = b;
unicode = 0062;
},
{
glyphname = c;
layers = (
{
layerId = "A3FA1D5A-5B70-4048-948C-F73CFEE83353";
name = Bold;
paths = (
{
closed = 1;
nodes = (
"203 -12 OFFCURVE",
"142 14 OFFCURVE",
"102 62 CURVE SMOOTH",
"61 110 OFFCURVE",
"39 178 OFFCURVE",
"39 262 CURVE SMOOTH",
"39 346 OFFCURVE",
"61 413 OFFCURVE",
"102 461 CURVE SMOOTH",
"142 508 OFFCURVE",
"203 534 OFFCURVE",
"280 534 CURVE SMOOTH",
"385 534 OFFCURVE",
"454 485 OFFCURVE",
"485 402 CURVE",
"380 355 LINE",
"368 399 OFFCURVE",
"336 431 OFFCURVE",
"280 431 CURVE SMOOTH",
"208 431 OFFCURVE",
"173 381 OFFCURVE",
"173 308 CURVE SMOOTH",
"173 213 LINE SMOOTH",
"173 140 OFFCURVE",
"208 91 OFFCURVE",
"280 91 CURVE SMOOTH",
"341 91 OFFCURVE",
"371 126 OFFCURVE",
"390 173 CURVE",
"488 126 LINE",
"453 34 OFFCURVE",
"381 -12 OFFCURVE",
"280 -12 CURVE SMOOTH"
);
}
);
width = 513;
}
);
leftKerningGroup = c;
rightKerningGroup = c;
unicode = 0063;
},
{
glyphname = d;
layers = (
{
layerId = "A3FA1D5A-5B70-4048-948C-F73CFEE83353";
name = Bold;
paths = (
{
closed = 1;
nodes = (
"398 87 LINE",
"393 87 LINE",
"374 27 OFFCURVE",
"318 -12 OFFCURVE",
"249 -12 CURVE SMOOTH",
"117 -12 OFFCURVE",
"45 86 OFFCURVE",
"45 262 CURVE SMOOTH",
"45 437 OFFCURVE",
"117 534 OFFCURVE",
"249 534 CURVE SMOOTH",
"318 534 OFFCURVE",
"374 496 OFFCURVE",
"393 436 CURVE",
"398 436 LINE",
"398 740 LINE",
"526 740 LINE",
"526 0 LINE",
"398 0 LINE"
);
},
{
closed = 1;
nodes = (
"351 94 OFFCURVE",
"398 124 OFFCURVE",
"398 179 CURVE SMOOTH",
"398 345 LINE SMOOTH",
"398 396 OFFCURVE",
"351 429 OFFCURVE",
"290 429 CURVE SMOOTH",
"223 429 OFFCURVE",
"179 381 OFFCURVE",
"179 306 CURVE SMOOTH",
"179 216 LINE SMOOTH",
"179 141 OFFCURVE",
"223 94 OFFCURVE",
"290 94 CURVE SMOOTH"
);
}
);
width = 600;
}
);
leftKerningGroup = d;
unicode = 0064;
},
{
glyphname = e;
layers = (
{
layerId = "A3FA1D5A-5B70-4048-948C-F73CFEE83353";
name = Bold;
paths = (
{
closed = 1;
nodes = (
"208 -12 OFFCURVE",
"147 15 OFFCURVE",
"105 63 CURVE SMOOTH",
"63 110 OFFCURVE",
"39 178 OFFCURVE",
"39 262 CURVE SMOOTH",
"39 345 OFFCURVE",
"62 412 OFFCURVE",
"103 460 CURVE SMOOTH",
"144 507 OFFCURVE",
"205 534 OFFCURVE",
"281 534 CURVE SMOOTH",
"362 534 OFFCURVE",
"422 504 OFFCURVE",
"461 456 CURVE SMOOTH",
"500 408 OFFCURVE",
"519 343 OFFCURVE",
"519 271 CURVE SMOOTH",
"519 229 LINE",
"172 229 LINE",
"172 216 LINE SMOOTH",
"172 140 OFFCURVE",
"215 90 OFFCURVE",
"299 90 CURVE SMOOTH",
"363 90 OFFCURVE",
"400 120 OFFCURVE",
"432 161 CURVE",
"501 84 LINE",
"458 24 OFFCURVE",
"382 -12 OFFCURVE",
"285 -12 CURVE SMOOTH"
);
},
{
closed = 1;
nodes = (
"215 438 OFFCURVE",
"172 388 OFFCURVE",
"172 316 CURVE SMOOTH",
"172 308 LINE",
"386 308 LINE",
"386 317 LINE SMOOTH",
"386 389 OFFCURVE",
"350 438 OFFCURVE",
"283 438 CURVE SMOOTH"
);
}
);
width = 558;
}
);
leftKerningGroup = c;
rightKerningGroup = e;
unicode = 0065;
},
{
glyphname = f;
layers = (
{
layerId = "A3FA1D5A-5B70-4048-948C-F73CFEE83353";
name = Bold;
paths = (
{
closed = 1;
nodes = (
"100 421 LINE",
"23 421 LINE",
"23 522 LINE",
"100 522 LINE",
"100 597 LINE SMOOTH",
"100 689 OFFCURVE",
"149 740 OFFCURVE",
"244 740 CURVE SMOOTH",
"335 740 LINE",
"335 638 LINE",
"228 638 LINE",
"228 522 LINE",
"335 522 LINE",
"335 421 LINE",
"228 421 LINE",
"228 0 LINE",
"100 0 LINE"
);
}
);
width = 350;
}
);
leftKerningGroup = f;
rightKerningGroup = f;
unicode = 0066;
},
{
glyphname = g;
lastChange = "2018-11-05 19:19:20 +0000";
layers = (
{
layerId = "A3FA1D5A-5B70-4048-948C-F73CFEE83353";
name = Bold;
paths = (
{
closed = 1;
nodes = (
"526 522 LINE",
"398 522 LINE",
"398 435 LINE",
"393 435 LINE",
"375 495 OFFCURVE",
"318 534 OFFCURVE",
"249 534 CURVE SMOOTH",
"118 534 OFFCURVE",
"45 436 OFFCURVE",
"45 266 CURVE SMOOTH",
"45 96 OFFCURVE",
"118 -2 OFFCURVE",
"249 -2 CURVE SMOOTH",
"319 -2 OFFCURVE",
"374 38 OFFCURVE",
"393 97 CURVE",
"398 97 LINE",
"398 16 LINE SMOOTH",
"398 -63 OFFCURVE",
"357 -110 OFFCURVE",
"275 -110 CURVE SMOOTH",
"222 -110 OFFCURVE",
"180 -91 OFFCURVE",
"147 -56 CURVE",
"77 -138 LINE",
"117 -181 OFFCURVE",
"181 -212 OFFCURVE",
"277 -212 CURVE SMOOTH",
"441 -212 OFFCURVE",
"526 -123 OFFCURVE",
"526 28 CURVE SMOOTH"
);
},
{
closed = 1;
nodes = (
"225 104 OFFCURVE",
"179 154 OFFCURVE",
"179 227 CURVE SMOOTH",
"179 306 LINE SMOOTH",
"179 379 OFFCURVE",
"225 429 OFFCURVE",
"291 429 CURVE SMOOTH",
"352 429 OFFCURVE",
"398 396 OFFCURVE",
"398 345 CURVE SMOOTH",
"398 189 LINE SMOOTH",
"398 135 OFFCURVE",
"352 104 OFFCURVE",
"291 104 CURVE SMOOTH"
);
}
);
width = 600;
}
);
leftKerningGroup = g;
rightKerningGroup = g;
unicode = 0067;
},
{
glyphname = h;
layers = (
{
layerId = "A3FA1D5A-5B70-4048-948C-F73CFEE83353";
name = Bold;
paths = (
{
closed = 1;
nodes = (
"74 740 LINE",
"202 740 LINE",
"202 435 LINE",
"207 435 LINE",
"228 491 OFFCURVE",
"272 534 OFFCURVE",
"353 534 CURVE SMOOTH",
"461 534 OFFCURVE",
"520 461 OFFCURVE",
"520 330 CURVE SMOOTH",
"520 0 LINE",
"392 0 LINE",
"392 317 LINE SMOOTH",
"392 392 OFFCURVE",
"367 429 OFFCURVE",
"306 429 CURVE SMOOTH",
"279 429 OFFCURVE",
"254 422 OFFCURVE",
"235 408 CURVE SMOOTH",
"215 394 OFFCURVE",
"202 373 OFFCURVE",
"202 345 CURVE SMOOTH",
"202 0 LINE",
"74 0 LINE"
);
}
);
width = 588;
}
);
leftKerningGroup = b;
rightKerningGroup = h;
unicode = 0068;
},
{
glyphname = i;
lastChange = "2018-11-07 04:31:48 +0000";
layers = (
{
layerId = "A3FA1D5A-5B70-4048-948C-F73CFEE83353";
name = Bold;
paths = (
{
closed = 1;
nodes = (
"85 598 OFFCURVE",
"63 625 OFFCURVE",
"63 662 CURVE SMOOTH",
"63 682 LINE SMOOTH",
"63 719 OFFCURVE",
"85 746 OFFCURVE",
"138 746 CURVE SMOOTH",
"190 746 OFFCURVE",
"213 719 OFFCURVE",
"213 682 CURVE SMOOTH",
"213 662 LINE SMOOTH",
"213 625 OFFCURVE",
"190 598 OFFCURVE",
"138 598 CURVE SMOOTH"
);
},
{
closed = 1;
nodes = (
"74 522 LINE",
"202 522 LINE",
"202 0 LINE",
"74 0 LINE"
);
}
);
width = 276;
}
);
leftKerningGroup = i;
rightKerningGroup = i;
unicode = 0069;
},
{
glyphname = j;
layers = (
{
layerId = "A3FA1D5A-5B70-4048-948C-F73CFEE83353";
name = Bold;
paths = (
{
closed = 1;
nodes = (
"74 522 LINE",
"202 522 LINE",
"202 -63 LINE SMOOTH",
"202 -151 OFFCURVE",
"160 -200 OFFCURVE",
"64 -200 CURVE SMOOTH",
"-6 -200 LINE",
"-6 -98 LINE",
"74 -98 LINE"
);
},
{
closed = 1;
nodes = (
"85 598 OFFCURVE",
"63 625 OFFCURVE",
"63 662 CURVE SMOOTH",
"63 682 LINE SMOOTH",
"63 719 OFFCURVE",
"85 746 OFFCURVE",
"138 746 CURVE SMOOTH",
"190 746 OFFCURVE",
"213 719 OFFCURVE",
"213 682 CURVE SMOOTH",
"213 662 LINE SMOOTH",
"213 625 OFFCURVE",
"190 598 OFFCURVE",
"138 598 CURVE SMOOTH"
);
}
);
width = 276;
}
);
leftKerningGroup = j;
rightKerningGroup = j;
unicode = 006A;
},
{
glyphname = k;
layers = (
{
layerId = "A3FA1D5A-5B70-4048-948C-F73CFEE83353";
name = Bold;
paths = (
{
closed = 1;
nodes = (
"74 740 LINE",
"202 740 LINE",
"202 294 LINE",
"207 294 LINE",
"276 388 LINE",
"393 522 LINE",
"538 522 LINE",
"358 320 LINE",
"557 0 LINE",
"405 0 LINE",
"271 234 LINE",
"202 159 LINE",
"202 0 LINE",
"74 0 LINE"
);
}
);
width = 562;
}
);
leftKerningGroup = b;
rightKerningGroup = k;
unicode = 006B;
},
{
glyphname = l;
lastChange = "2018-11-02 14:38:01 +0000";
layers = (
{
layerId = "A3FA1D5A-5B70-4048-948C-F73CFEE83353";
name = Bold;
paths = (
{
closed = 1;
nodes = (
"202 0 LINE SMOOTH",
"114 0 OFFCURVE",
"74 46 OFFCURVE",
"74 126 CURVE SMOOTH",
"74 740 LINE",
"202 740 LINE",
"202 102 LINE",
"271 102 LINE",
"271 0 LINE"
);
}
);
width = 294;
}
);
leftKerningGroup = l;
rightKerningGroup = l;
unicode = 006C;
},
{
glyphname = m;
layers = (
{
layerId = "A3FA1D5A-5B70-4048-948C-F73CFEE83353";
name = Bold;
paths = (
{
closed = 1;
nodes = (
"74 0 LINE",
"74 522 LINE",
"202 522 LINE",
"202 435 LINE",
"207 435 LINE",
"227 490 OFFCURVE",
"268 534 OFFCURVE",
"347 534 CURVE SMOOTH",
"419 534 OFFCURVE",
"473 500 OFFCURVE",
"498 429 CURVE",
"500 429 LINE",
"519 488 OFFCURVE",
"576 534 OFFCURVE",
"660 534 CURVE SMOOTH",
"763 534 OFFCURVE",
"820 461 OFFCURVE",
"820 330 CURVE SMOOTH",
"820 0 LINE",
"692 0 LINE",
"692 317 LINE SMOOTH",
"692 392 OFFCURVE",
"664 429 OFFCURVE",
"608 429 CURVE SMOOTH",
"583 429 OFFCURVE",
"559 422 OFFCURVE",
"541 408 CURVE SMOOTH",
"523 394 OFFCURVE",
"511 373 OFFCURVE",
"511 345 CURVE SMOOTH",
"511 0 LINE",
"383 0 LINE",
"383 317 LINE SMOOTH",
"383 392 OFFCURVE",
"355 429 OFFCURVE",
"299 429 CURVE SMOOTH",
"275 429 OFFCURVE",
"251 422 OFFCURVE",
"233 408 CURVE SMOOTH",
"215 394 OFFCURVE",
"202 373 OFFCURVE",
"202 345 CURVE SMOOTH",
"202 0 LINE"
);
}
);
width = 888;
}
);
leftKerningGroup = m;
rightKerningGroup = h;
unicode = 006D;
},
{
glyphname = n;
layers = (
{
layerId = "A3FA1D5A-5B70-4048-948C-F73CFEE83353";
name = Bold;
paths = (
{
closed = 1;
nodes = (
"74 0 LINE",
"74 522 LINE",
"202 522 LINE",
"202 435 LINE",
"207 435 LINE",
"228 491 OFFCURVE",
"272 534 OFFCURVE",
"353 534 CURVE SMOOTH",
"461 534 OFFCURVE",
"520 461 OFFCURVE",
"520 330 CURVE SMOOTH",
"520 0 LINE",
"392 0 LINE",
"392 317 LINE SMOOTH",
"392 392 OFFCURVE",
"367 429 OFFCURVE",
"306 429 CURVE SMOOTH",
"279 429 OFFCURVE",
"254 422 OFFCURVE",
"235 408 CURVE SMOOTH",
"215 394 OFFCURVE",
"202 373 OFFCURVE",
"202 345 CURVE SMOOTH",
"202 0 LINE"
);
}
);
width = 588;
}
);
leftKerningGroup = m;
rightKerningGroup = h;
unicode = 006E;
},
{
glyphname = o;
lastChange = "2018-11-07 04:31:39 +0000";
layers = (
{
layerId = "A3FA1D5A-5B70-4048-948C-F73CFEE83353";
name = Bold;
paths = (
{
closed = 1;
nodes = (
"206 -12 OFFCURVE",
"147 14 OFFCURVE",
"105 62 CURVE SMOOTH",
"63 110 OFFCURVE",
"39 178 OFFCURVE",
"39 262 CURVE SMOOTH",
"39 346 OFFCURVE",
"63 413 OFFCURVE",
"105 461 CURVE SMOOTH",
"147 508 OFFCURVE",
"206 534 OFFCURVE",
"281 534 CURVE SMOOTH",
"356 534 OFFCURVE",
"417 508 OFFCURVE",
"459 461 CURVE SMOOTH",
"501 413 OFFCURVE",
"524 346 OFFCURVE",
"524 262 CURVE SMOOTH",
"524 178 OFFCURVE",
"501 110 OFFCURVE",
"459 62 CURVE SMOOTH",
"417 14 OFFCURVE",
"356 -12 OFFCURVE",
"281 -12 CURVE SMOOTH"
);
},
{
closed = 1;
nodes = (
"349 91 OFFCURVE",
"390 133 OFFCURVE",
"390 213 CURVE SMOOTH",
"390 310 LINE SMOOTH",
"390 389 OFFCURVE",
"349 431 OFFCURVE",
"281 431 CURVE SMOOTH",
"214 431 OFFCURVE",
"173 389 OFFCURVE",
"173 310 CURVE SMOOTH",
"173 213 LINE SMOOTH",
"173 133 OFFCURVE",
"214 91 OFFCURVE",
"281 91 CURVE SMOOTH"
);
}
);
width = 563;
}
);
leftKerningGroup = c;
rightKerningGroup = o;
unicode = 006F;
},
{
glyphname = p;
layers = (
{
layerId = "A3FA1D5A-5B70-4048-948C-F73CFEE83353";
name = Bold;
paths = (
{
closed = 1;
nodes = (
"74 522 LINE",
"202 522 LINE",
"202 436 LINE",
"206 436 LINE",
"225 496 OFFCURVE",
"281 534 OFFCURVE",
"350 534 CURVE SMOOTH",
"483 534 OFFCURVE",
"555 437 OFFCURVE",
"555 262 CURVE SMOOTH",
"555 86 OFFCURVE",
"483 -12 OFFCURVE",
"350 -12 CURVE SMOOTH",
"281 -12 OFFCURVE",
"226 27 OFFCURVE",
"206 87 CURVE",
"202 87 LINE",
"202 -200 LINE",
"74 -200 LINE"
);
},
{
closed = 1;
nodes = (
"376 94 OFFCURVE",
"421 141 OFFCURVE",
"421 216 CURVE SMOOTH",
"421 306 LINE SMOOTH",
"421 381 OFFCURVE",
"376 429 OFFCURVE",
"309 429 CURVE SMOOTH",
"248 429 OFFCURVE",
"202 396 OFFCURVE",
"202 345 CURVE SMOOTH",
"202 179 LINE SMOOTH",
"202 124 OFFCURVE",
"248 94 OFFCURVE",
"309 94 CURVE SMOOTH"
);
}
);
width = 600;
}
);
leftKerningGroup = p;
rightKerningGroup = b;
unicode = 0070;
},
{
glyphname = q;
layers = (
{
layerId = "A3FA1D5A-5B70-4048-948C-F73CFEE83353";
name = Bold;
paths = (
{
closed = 1;
nodes = (
"398 87 LINE",
"393 87 LINE",
"374 27 OFFCURVE",
"318 -12 OFFCURVE",
"249 -12 CURVE SMOOTH",
"117 -12 OFFCURVE",
"45 86 OFFCURVE",
"45 262 CURVE SMOOTH",
"45 437 OFFCURVE",
"117 534 OFFCURVE",
"249 534 CURVE SMOOTH",
"318 534 OFFCURVE",
"374 496 OFFCURVE",
"393 436 CURVE",
"398 436 LINE",
"398 522 LINE",
"526 522 LINE",
"526 -200 LINE",
"398 -200 LINE"
);
},
{
closed = 1;
nodes = (
"351 94 OFFCURVE",
"398 124 OFFCURVE",
"398 179 CURVE SMOOTH",
"398 345 LINE SMOOTH",
"398 396 OFFCURVE",
"351 429 OFFCURVE",
"290 429 CURVE SMOOTH",
"223 429 OFFCURVE",
"179 381 OFFCURVE",
"179 306 CURVE SMOOTH",
"179 216 LINE SMOOTH",
"179 141 OFFCURVE",
"223 94 OFFCURVE",
"290 94 CURVE SMOOTH"
);
}
);
width = 600;
}
);
leftKerningGroup = d;
rightKerningGroup = j;
unicode = 0071;
},
{
glyphname = r;
layers = (
{
layerId = "A3FA1D5A-5B70-4048-948C-F73CFEE83353";
name = Bold;
paths = (
{
closed = 1;
nodes = (
"74 0 LINE",
"74 522 LINE",
"202 522 LINE",
"202 414 LINE",
"207 414 LINE",
"214 442 OFFCURVE",
"227 469 OFFCURVE",
"250 489 CURVE SMOOTH",
"273 509 OFFCURVE",
"304 522 OFFCURVE",
"345 522 CURVE SMOOTH",
"373 522 LINE",
"373 401 LINE",
"333 401 LINE SMOOTH",
"246 401 OFFCURVE",
"202 377 OFFCURVE",
"202 320 CURVE SMOOTH",
"202 0 LINE"
);
}
);
width = 393;
}
);
leftKerningGroup = m;
rightKerningGroup = r;
unicode = 0072;
},
{
glyphname = s;
layers = (
{
layerId = "A3FA1D5A-5B70-4048-948C-F73CFEE83353";
name = Bold;
paths = (
{
closed = 1;
nodes = (
"145 -12 OFFCURVE",
"81 24 OFFCURVE",
"29 84 CURVE",
"107 160 LINE",
"146 116 OFFCURVE",
"190 89 OFFCURVE",
"250 89 CURVE SMOOTH",
"311 89 OFFCURVE",
"337 112 OFFCURVE",
"337 149 CURVE SMOOTH",
"337 180 OFFCURVE",
"320 197 OFFCURVE",
"273 204 CURVE SMOOTH",
"221 211 LINE SMOOTH",
"108 226 OFFCURVE",
"47 273 OFFCURVE",
"47 369 CURVE SMOOTH",
"47 420 OFFCURVE",
"66 461 OFFCURVE",
"101 490 CURVE SMOOTH",
"136 518 OFFCURVE",
"185 534 OFFCURVE",
"245 534 CURVE SMOOTH",
"296 534 OFFCURVE",
"334 527 OFFCURVE",
"366 513 CURVE SMOOTH",
"398 499 OFFCURVE",
"424 477 OFFCURVE",
"449 452 CURVE",
"374 377 LINE",
"343 409 OFFCURVE",
"300 433 OFFCURVE",
"249 433 CURVE SMOOTH",
"193 433 OFFCURVE",
"170 411 OFFCURVE",
"170 379 CURVE SMOOTH",
"170 344 OFFCURVE",
"189 328 OFFCURVE",
"238 320 CURVE SMOOTH",
"291 313 LINE SMOOTH",
"404 297 OFFCURVE",
"460 246 OFFCURVE",
"460 159 CURVE SMOOTH",
"460 108 OFFCURVE",
"438 66 OFFCURVE",
"401 36 CURVE SMOOTH",
"364 6 OFFCURVE",
"310 -12 OFFCURVE",
"245 -12 CURVE SMOOTH"
);
}
);
width = 499;
}
);
leftKerningGroup = s;
rightKerningGroup = s;
unicode = 0073;
},
{
glyphname = t;
layers = (
{
layerId = "A3FA1D5A-5B70-4048-948C-F73CFEE83353";
name = Bold;
paths = (
{
closed = 1;
nodes = (
"237 0 LINE SMOOTH",
"149 0 OFFCURVE",
"102 48 OFFCURVE",
"102 133 CURVE SMOOTH",
"102 420 LINE",
"25 420 LINE",
"25 522 LINE",
"65 522 LINE SMOOTH",
"104 522 OFFCURVE",
"115 540 OFFCURVE",
"115 576 CURVE SMOOTH",
"115 665 LINE",
"230 665 LINE",
"230 522 LINE",
"337 522 LINE",
"337 420 LINE",
"230 420 LINE",
"230 102 LINE",
"329 102 LINE",
"329 0 LINE"
);
}
);
width = 374;
}
);
leftKerningGroup = t;
rightKerningGroup = t;
unicode = 0074;
},
{
glyphname = u;
layers = (
{
layerId = "A3FA1D5A-5B70-4048-948C-F73CFEE83353";
name = Bold;
paths = (
{
closed = 1;
nodes = (
"386 87 LINE",
"381 87 LINE",
"372 60 OFFCURVE",
"357 37 OFFCURVE",
"334 18 CURVE SMOOTH",
"310 -1 OFFCURVE",
"278 -12 OFFCURVE",
"235 -12 CURVE SMOOTH",
"127 -12 OFFCURVE",
"68 61 OFFCURVE",
"68 192 CURVE SMOOTH",
"68 522 LINE",
"196 522 LINE",
"196 205 LINE SMOOTH",
"196 133 OFFCURVE",
"223 94 OFFCURVE",
"284 94 CURVE SMOOTH",
"309 94 OFFCURVE",
"335 101 OFFCURVE",
"354 115 CURVE SMOOTH",
"373 129 OFFCURVE",
"386 149 OFFCURVE",
"386 177 CURVE SMOOTH",
"386 522 LINE",
"514 522 LINE",
"514 0 LINE",
"386 0 LINE"
);
}
);
width = 588;
}
);
leftKerningGroup = u;
rightKerningGroup = u;
unicode = 0075;
},
{
glyphname = v;
layers = (
{
layerId = "A3FA1D5A-5B70-4048-948C-F73CFEE83353";
name = Bold;
paths = (
{
closed = 1;
nodes = (
"186 0 LINE",
"12 522 LINE",
"138 522 LINE",
"211 297 LINE",
"262 111 LINE",
"269 111 LINE",
"320 297 LINE",
"391 522 LINE",
"513 522 LINE",
"338 0 LINE"
);
}
);
width = 524;
}
);
leftKerningGroup = v;
rightKerningGroup = v;
unicode = 0076;
},
{
glyphname = w;
layers = (
{
layerId = "A3FA1D5A-5B70-4048-948C-F73CFEE83353";
name = Bold;
paths = (
{
closed = 1;
nodes = (
"23 522 LINE",
"146 522 LINE",
"199 307 LINE",
"240 128 LINE",
"244 128 LINE",
"292 307 LINE",
"353 522 LINE",
"469 522 LINE",
"532 307 LINE",
"581 128 LINE",
"585 128 LINE",
"626 307 LINE",
"678 522 LINE",
"797 522 LINE",
"654 0 LINE",
"516 0 LINE",
"449 230 LINE",
"410 372 LINE",
"407 372 LINE",
"369 230 LINE",
"303 0 LINE",
"167 0 LINE"
);
}
);
width = 819;
}
);
leftKerningGroup = w;
rightKerningGroup = w;
unicode = 0077;
},
{
glyphname = x;
layers = (
{
layerId = "A3FA1D5A-5B70-4048-948C-F73CFEE83353";
name = Bold;
paths = (
{
closed = 1;
nodes = (
"19 0 LINE",
"197 265 LINE",
"23 522 LINE",
"169 522 LINE",
"277 349 LINE",
"281 349 LINE",
"388 522 LINE",
"524 522 LINE",
"347 263 LINE",
"525 0 LINE",
"379 0 LINE",
"269 180 LINE",
"265 180 LINE",
"155 0 LINE"
);
}
);
width = 544;
}
);
leftKerningGroup = x;
rightKerningGroup = x;
unicode = 0078;
},
{
glyphname = y;
layers = (
{
layerId = "A3FA1D5A-5B70-4048-948C-F73CFEE83353";
name = Bold;
paths = (
{
closed = 1;
nodes = (
"394 522 LINE",
"514 522 LINE",
"304 -93 LINE SMOOTH",
"291 -130 OFFCURVE",
"275 -158 OFFCURVE",
"252 -175 CURVE SMOOTH",
"229 -192 OFFCURVE",
"198 -200 OFFCURVE",
"155 -200 CURVE SMOOTH",
"78 -200 LINE",
"78 -98 LINE",
"172 -98 LINE",
"196 -25 LINE",
"9 522 LINE",
"136 522 LINE",
"227 246 LINE",
"261 114 LINE",
"267 114 LINE",
"303 246 LINE"
);
}
);
width = 524;
}
);
leftKerningGroup = y;
rightKerningGroup = y;
unicode = 0079;
},
{
glyphname = z;
layers = (
{
layerId = "A3FA1D5A-5B70-4048-948C-F73CFEE83353";
name = Bold;
paths = (
{
closed = 1;
nodes = (
"37 0 LINE",
"37 102 LINE",
"308 421 LINE",
"46 421 LINE",
"46 522 LINE",
"458 522 LINE",
"458 423 LINE",
"185 102 LINE",
"465 102 LINE",
"465 0 LINE"
);
}
);
width = 502;
}
);
leftKerningGroup = z;
rightKerningGroup = z;
unicode = 007A;
},
{
glyphname = A;
layers = (
{
layerId = "A3FA1D5A-5B70-4048-948C-F73CFEE83353";
name = Bold;
paths = (
{
closed = 1;
nodes = (
"514 0 LINE",
"458 178 LINE",
"210 178 LINE",
"155 0 LINE",
"21 0 LINE",
"255 698 LINE",
"419 698 LINE",
"651 0 LINE"
);
},
{
closed = 1;
nodes = (
"336 578 LINE",
"331 578 LINE",
"242 291 LINE",
"426 291 LINE"
);
}
);
width = 672;
}
);
leftKerningGroup = A;
rightKerningGroup = A;
unicode = 0041;
},
{
glyphname = B;
layers = (
{
layerId = "A3FA1D5A-5B70-4048-948C-F73CFEE83353";
name = Bold;
paths = (
{
closed = 1;
nodes = (
"82 698 LINE",
"405 698 LINE SMOOTH",
"462 698 OFFCURVE",
"509 680 OFFCURVE",
"541 649 CURVE SMOOTH",
"573 618 OFFCURVE",
"590 572 OFFCURVE",
"590 519 CURVE SMOOTH",
"590 466 OFFCURVE",
"575 430 OFFCURVE",
"552 406 CURVE SMOOTH",
"528 382 OFFCURVE",
"497 370 OFFCURVE",
"465 369 CURVE",
"465 363 LINE",
"496 363 OFFCURVE",
"534 352 OFFCURVE",
"564 326 CURVE SMOOTH",
"594 300 OFFCURVE",
"616 260 OFFCURVE",
"616 200 CURVE SMOOTH",
"616 144 OFFCURVE",
"597 94 OFFCURVE",
"565 58 CURVE SMOOTH",
"533 22 OFFCURVE",
"488 0 OFFCURVE",
"436 0 CURVE SMOOTH",
"82 0 LINE"
);
},
{
closed = 1;
nodes = (
"214 112 LINE",
"398 112 LINE SMOOTH",
"449 112 OFFCURVE",
"478 139 OFFCURVE",
"478 188 CURVE SMOOTH",
"478 222 LINE SMOOTH",
"478 271 OFFCURVE",
"449 299 OFFCURVE",
"398 299 CURVE SMOOTH",
"214 299 LINE"
);
},
{
closed = 1;
nodes = (
"214 407 LINE",
"377 407 LINE SMOOTH",
"425 407 OFFCURVE",
"453 434 OFFCURVE",
"453 481 CURVE SMOOTH",
"453 512 LINE SMOOTH",
"453 559 OFFCURVE",
"425 586 OFFCURVE",
"377 586 CURVE SMOOTH",
"214 586 LINE"
);
}
);
width = 663;
}
);
unicode = 0042;
},
{
glyphname = C;
layers = (
{
layerId = "A3FA1D5A-5B70-4048-948C-F73CFEE83353";
name = Bold;
paths = (
{
closed = 1;
nodes = (
"261 -12 OFFCURVE",
"186 18 OFFCURVE",
"134 78 CURVE SMOOTH",
"81 138 OFFCURVE",
"52 227 OFFCURVE",
"52 344 CURVE SMOOTH",
"52 461 OFFCURVE",
"81 554 OFFCURVE",
"134 616 CURVE SMOOTH",
"186 678 OFFCURVE",
"261 710 OFFCURVE",
"353 710 CURVE SMOOTH",
"478 710 OFFCURVE",
"559 657 OFFCURVE",
"608 549 CURVE",
"495 489 LINE",
"475 552 OFFCURVE",
"432 593 OFFCURVE",
"353 593 CURVE SMOOTH",
"254 593 OFFCURVE",
"192 523 OFFCURVE",
"192 403 CURVE SMOOTH",
"192 293 LINE SMOOTH",
"192 172 OFFCURVE",
"254 105 OFFCURVE",
"353 105 CURVE SMOOTH",
"432 105 OFFCURVE",
"481 153 OFFCURVE",
"504 216 CURVE",
"611 153 LINE",
"560 49 OFFCURVE",
"478 -12 OFFCURVE",
"353 -12 CURVE SMOOTH"
);
}
);
width = 642;
}
);
leftKerningGroup = C;
rightKerningGroup = C;
unicode = 0043;
},
{
glyphname = D;
layers = (
{
layerId = "A3FA1D5A-5B70-4048-948C-F73CFEE83353";
name = Bold;
paths = (
{
closed = 1;
nodes = (
"82 698 LINE",
"336 698 LINE SMOOTH",
"427 698 OFFCURVE",
"502 669 OFFCURVE",
"555 611 CURVE SMOOTH",
"607 553 OFFCURVE",
"637 465 OFFCURVE",
"637 349 CURVE SMOOTH",
"637 233 OFFCURVE",
"607 146 OFFCURVE",
"555 88 CURVE SMOOTH",
"502 30 OFFCURVE",
"427 0 OFFCURVE",
"336 0 CURVE SMOOTH",
"82 0 LINE"
);
},
{
closed = 1;
nodes = (
"336 117 LINE SMOOTH",
"435 117 OFFCURVE",
"497 174 OFFCURVE",
"497 294 CURVE SMOOTH",
"497 404 LINE SMOOTH",
"497 524 OFFCURVE",
"435 581 OFFCURVE",
"336 581 CURVE SMOOTH",
"214 581 LINE",
"214 117 LINE"
);
}
);
width = 689;
}
);
rightKerningGroup = D;
unicode = 0044;
},
{
glyphname = E;
layers = (
{
layerId = "A3FA1D5A-5B70-4048-948C-F73CFEE83353";
name = Bold;
paths = (
{
closed = 1;
nodes = (
"82 0 LINE",
"82 698 LINE",
"542 698 LINE",
"542 581 LINE",
"214 581 LINE",
"214 412 LINE",
"504 412 LINE",
"504 295 LINE",
"214 295 LINE",
"214 117 LINE",
"542 117 LINE",
"542 0 LINE"
);
}
);
width = 600;
}
);
rightKerningGroup = E;
unicode = 0045;
},
{
glyphname = F;
layers = (
{
layerId = "A3FA1D5A-5B70-4048-948C-F73CFEE83353";
name = Bold;
paths = (
{
closed = 1;
nodes = (
"82 0 LINE",
"82 698 LINE",
"531 698 LINE",
"531 581 LINE",
"214 581 LINE",
"214 412 LINE",
"490 412 LINE",
"490 295 LINE",
"214 295 LINE",
"214 0 LINE"
);
}
);
width = 577;
}
);
rightKerningGroup = F;
unicode = 0046;
},
{
glyphname = G;
layers = (
{
layerId = "A3FA1D5A-5B70-4048-948C-F73CFEE83353";
name = Bold;
paths = (
{
closed = 1;
nodes = (
"527 108 LINE",
"523 108 LINE",
"511 40 OFFCURVE",
"445 -12 OFFCURVE",
"340 -12 CURVE SMOOTH",
"257 -12 OFFCURVE",
"186 19 OFFCURVE",
"135 80 CURVE SMOOTH",
"83 140 OFFCURVE",
"52 230 OFFCURVE",
"52 347 CURVE SMOOTH",
"52 464 OFFCURVE",
"83 555 OFFCURVE",
"138 616 CURVE SMOOTH",
"193 677 OFFCURVE",
"270 710 OFFCURVE",
"363 710 CURVE SMOOTH",
"488 710 OFFCURVE",
"576 654 OFFCURVE",
"627 551 CURVE",
"520 488 LINE",
"495 548 OFFCURVE",
"447 593 OFFCURVE",
"363 593 CURVE SMOOTH",
"259 593 OFFCURVE",
"192 529 OFFCURVE",
"192 405 CURVE SMOOTH",
"192 293 LINE SMOOTH",
"192 170 OFFCURVE",
"260 105 OFFCURVE",
"365 105 CURVE SMOOTH",
"406 105 OFFCURVE",
"443 115 OFFCURVE",
"470 135 CURVE SMOOTH",
"497 155 OFFCURVE",
"514 184 OFFCURVE",
"514 224 CURVE SMOOTH",
"514 269 LINE",
"377 269 LINE",
"377 380 LINE",
"641 380 LINE",
"641 0 LINE",
"527 0 LINE"
);
}
);
width = 712;
}
);
leftKerningGroup = C;
rightKerningGroup = G;
unicode = 0047;
},
{
glyphname = H;
layers = (
{
layerId = "A3FA1D5A-5B70-4048-948C-F73CFEE83353";
name = Bold;
paths = (
{
closed = 1;
nodes = (
"505 295 LINE",
"214 295 LINE",
"214 0 LINE",
"82 0 LINE",
"82 698 LINE",
"214 698 LINE",
"214 412 LINE",
"505 412 LINE",
"505 698 LINE",
"637 698 LINE",
"637 0 LINE",
"505 0 LINE"
);
}
);
width = 719;
}
);
unicode = 0048;
},
{
glyphname = I;
lastChange = "2018-11-02 04:38:00 +0000";
layers = (
{
layerId = "A3FA1D5A-5B70-4048-948C-F73CFEE83353";
name = Bold;
paths = (
{
closed = 1;
nodes = (
"82 698 LINE",
"214 698 LINE",
"214 0 LINE",
"82 0 LINE"
);
}
);
width = 296;
}
);
leftKerningGroup = I;
rightKerningGroup = I;
unicode = 0049;
},
{
glyphname = J;
lastChange = "2018-11-02 03:34:42 +0000";
layers = (
{
layerId = "A3FA1D5A-5B70-4048-948C-F73CFEE83353";
name = Bold;
paths = (
{
closed = 1;
nodes = (
"335 205 LINE SMOOTH",
"335 137 OFFCURVE",
"297 105 OFFCURVE",
"245 105 CURVE SMOOTH",
"190 105 OFFCURVE",
"160 139 OFFCURVE",
"148 199 CURVE",
"26 174 LINE",
"46 62 OFFCURVE",
"117 -11 OFFCURVE",
"246 -11 CURVE SMOOTH",
"314 -11 OFFCURVE",
"370 10 OFFCURVE",
"408 46 CURVE SMOOTH",
"446 82 OFFCURVE",
"467 133 OFFCURVE",
"467 196 CURVE SMOOTH",
"467 698 LINE",
"335 698 LINE"
);
}
);
width = 545;
}
);
leftKerningGroup = J;
rightKerningGroup = J;
unicode = 004A;
},
{
glyphname = K;
layers = (
{
layerId = "A3FA1D5A-5B70-4048-948C-F73CFEE83353";
name = Bold;
paths = (
{
closed = 1;
nodes = (
"307 316 LINE",
"214 206 LINE",
"214 0 LINE",
"82 0 LINE",
"82 698 LINE",
"214 698 LINE",
"214 354 LINE",
"219 354 LINE",
"318 485 LINE",
"491 698 LINE",
"643 698 LINE",
"400 407 LINE",
"663 0 LINE",
"506 0 LINE"
);
}
);
width = 678;
}
);
rightKerningGroup = K;
unicode = 004B;
},
{
glyphname = L;
layers = (
{
layerId = "A3FA1D5A-5B70-4048-948C-F73CFEE83353";
name = Bold;
paths = (
{
closed = 1;
nodes = (
"82 0 LINE",
"82 698 LINE",
"214 698 LINE",
"214 117 LINE",
"489 117 LINE",
"489 0 LINE"
);
}
);
width = 521;
}
);
rightKerningGroup = L;
unicode = 004C;
},
{
glyphname = M;
layers = (
{
layerId = "A3FA1D5A-5B70-4048-948C-F73CFEE83353";
name = Bold;
paths = (
{
closed = 1;
nodes = (
"609 501 LINE",
"605 501 LINE",
"551 390 LINE",
"408 126 LINE",
"265 390 LINE",
"211 501 LINE",
"207 501 LINE",
"207 0 LINE",
"82 0 LINE",
"82 698 LINE",
"231 698 LINE",
"410 357 LINE",
"414 357 LINE",
"591 698 LINE",
"734 698 LINE",
"734 0 LINE",
"609 0 LINE"
);
}
);
width = 816;
}
);
unicode = 004D;
},
{
glyphname = N;
layers = (
{
layerId = "A3FA1D5A-5B70-4048-948C-F73CFEE83353";
name = Bold;
paths = (
{
closed = 1;
nodes = (
"282 358 LINE",
"210 503 LINE",
"207 503 LINE",
"207 0 LINE",
"82 0 LINE",
"82 698 LINE",
"227 698 LINE",
"437 340 LINE",
"509 195 LINE",
"512 195 LINE",
"512 698 LINE",
"637 698 LINE",
"637 0 LINE",
"492 0 LINE"
);
}
);
width = 719;
}
);
unicode = 004E;
},
{
glyphname = O;
layers = (
{
layerId = "A3FA1D5A-5B70-4048-948C-F73CFEE83353";
name = Bold;
paths = (
{
closed = 1;
nodes = (
"264 -12 OFFCURVE",
"188 19 OFFCURVE",
"136 80 CURVE SMOOTH",
"83 141 OFFCURVE",
"52 230 OFFCURVE",
"52 349 CURVE SMOOTH",
"52 466 OFFCURVE",
"83 557 OFFCURVE",
"136 618 CURVE SMOOTH",
"188 679 OFFCURVE",
"264 710 OFFCURVE",
"356 710 CURVE SMOOTH",
"448 710 OFFCURVE",
"524 679 OFFCURVE",
"577 618 CURVE SMOOTH",
"630 557 OFFCURVE",
"660 466 OFFCURVE",
"660 349 CURVE SMOOTH",
"660 230 OFFCURVE",
"630 141 OFFCURVE",
"577 80 CURVE SMOOTH",
"524 19 OFFCURVE",
"448 -12 OFFCURVE",
"356 -12 CURVE SMOOTH"
);
},
{
closed = 1;
nodes = (
"456 105 OFFCURVE",
"520 175 OFFCURVE",
"520 295 CURVE SMOOTH",
"520 403 LINE SMOOTH",
"520 523 OFFCURVE",
"456 593 OFFCURVE",
"356 593 CURVE SMOOTH",
"256 593 OFFCURVE",
"192 523 OFFCURVE",
"192 403 CURVE SMOOTH",
"192 295 LINE SMOOTH",
"192 175 OFFCURVE",
"256 105 OFFCURVE",
"356 105 CURVE SMOOTH"
);
}
);
width = 712;
}
);
leftKerningGroup = C;
rightKerningGroup = O;
unicode = 004F;
},
{
glyphname = P;
layers = (
{
layerId = "A3FA1D5A-5B70-4048-948C-F73CFEE83353";
name = Bold;
paths = (
{
closed = 1;
nodes = (
"82 0 LINE",
"82 698 LINE",
"396 698 LINE SMOOTH",
"460 698 OFFCURVE",
"512 677 OFFCURVE",
"548 639 CURVE SMOOTH",
"584 601 OFFCURVE",
"603 546 OFFCURVE",
"603 482 CURVE SMOOTH",
"603 417 OFFCURVE",
"584 364 OFFCURVE",
"548 326 CURVE SMOOTH",
"512 288 OFFCURVE",
"460 266 OFFCURVE",
"396 266 CURVE SMOOTH",
"214 266 LINE",
"214 0 LINE"
);
},
{
closed = 1;
nodes = (
"214 380 LINE",
"384 380 LINE SMOOTH",
"435 380 OFFCURVE",
"466 408 OFFCURVE",
"466 459 CURVE SMOOTH",
"466 505 LINE SMOOTH",
"466 556 OFFCURVE",
"435 583 OFFCURVE",
"384 583 CURVE SMOOTH",
"214 583 LINE"
);
}
);
width = 641;
}
);
rightKerningGroup = P;
unicode = 0050;
},
{
glyphname = Q;
layers = (
{
layerId = "A3FA1D5A-5B70-4048-948C-F73CFEE83353";
name = Bold;
paths = (
{
closed = 1;
nodes = (
"532 -178 LINE",
"435 -178 LINE SMOOTH",
"343 -178 OFFCURVE",
"301 -131 OFFCURVE",
"301 -50 CURVE SMOOTH",
"301 -8 LINE",
"149 15 OFFCURVE",
"52 138 OFFCURVE",
"52 349 CURVE SMOOTH",
"52 466 OFFCURVE",
"83 557 OFFCURVE",
"136 618 CURVE SMOOTH",
"188 679 OFFCURVE",
"264 710 OFFCURVE",
"356 710 CURVE SMOOTH",
"448 710 OFFCURVE",
"524 679 OFFCURVE",
"577 618 CURVE SMOOTH",
"630 557 OFFCURVE",
"660 466 OFFCURVE",
"660 349 CURVE SMOOTH",
"660 142 OFFCURVE",
"570 23 OFFCURVE",
"425 -5 CURVE",
"425 -70 LINE",
"532 -70 LINE"
);
},
{
closed = 1;
nodes = (
"456 105 OFFCURVE",
"520 175 OFFCURVE",
"520 295 CURVE SMOOTH",
"520 403 LINE SMOOTH",
"520 523 OFFCURVE",
"456 593 OFFCURVE",
"356 593 CURVE SMOOTH",
"256 593 OFFCURVE",
"192 523 OFFCURVE",
"192 403 CURVE SMOOTH",
"192 295 LINE SMOOTH",
"192 175 OFFCURVE",
"256 105 OFFCURVE",
"356 105 CURVE SMOOTH"
);
}
);
width = 712;
}
);
leftKerningGroup = C;
rightKerningGroup = O;
unicode = 0051;
},
{
glyphname = R;
layers = (
{
layerId = "A3FA1D5A-5B70-4048-948C-F73CFEE83353";
name = Bold;
paths = (
{
closed = 1;
nodes = (
"214 0 LINE",
"82 0 LINE",
"82 698 LINE",
"397 698 LINE SMOOTH",
"461 698 OFFCURVE",
"512 678 OFFCURVE",
"548 640 CURVE SMOOTH",
"583 602 OFFCURVE",
"603 547 OFFCURVE",
"603 482 CURVE SMOOTH",
"603 386 OFFCURVE",
"560 313 OFFCURVE",
"473 284 CURVE",
"616 0 LINE",
"469 0 LINE",
"339 269 LINE",
"214 269 LINE"
);
},
{
closed = 1;
nodes = (
"384 380 LINE SMOOTH",
"435 380 OFFCURVE",
"466 408 OFFCURVE",
"466 459 CURVE SMOOTH",
"466 505 LINE SMOOTH",
"466 556 OFFCURVE",
"435 583 OFFCURVE",
"384 583 CURVE SMOOTH",
"214 583 LINE",
"214 380 LINE"
);
}
);
width = 664;
}
);
rightKerningGroup = R;
unicode = 0052;
},
{
glyphname = S;
layers = (
{
layerId = "A3FA1D5A-5B70-4048-948C-F73CFEE83353";
name = Bold;
paths = (
{
closed = 1;
nodes = (
"179 -12 OFFCURVE",
"99 35 OFFCURVE",
"39 104 CURVE",
"128 190 LINE",
"176 134 OFFCURVE",
"235 104 OFFCURVE",
"307 104 CURVE SMOOTH",
"388 104 OFFCURVE",
"430 142 OFFCURVE",
"430 202 CURVE SMOOTH",
"430 249 OFFCURVE",
"408 278 OFFCURVE",
"335 291 CURVE SMOOTH",
"269 301 LINE SMOOTH",
"130 323 OFFCURVE",
"60 391 OFFCURVE",
"60 504 CURVE SMOOTH",
"60 567 OFFCURVE",
"84 618 OFFCURVE",
"128 654 CURVE SMOOTH",
"172 690 OFFCURVE",
"234 710 OFFCURVE",
"313 710 CURVE SMOOTH",
"418 710 OFFCURVE",
"496 675 OFFCURVE",
"552 607 CURVE",
"462 522 LINE",
"427 565 OFFCURVE",
"381 594 OFFCURVE",
"306 594 CURVE SMOOTH",
"230 594 OFFCURVE",
"192 564 OFFCURVE",
"192 512 CURVE SMOOTH",
"192 459 OFFCURVE",
"221 437 OFFCURVE",
"289 425 CURVE SMOOTH",
"354 413 LINE SMOOTH",
"495 388 OFFCURVE",
"561 326 OFFCURVE",
"561 210 CURVE SMOOTH",
"561 143 OFFCURVE",
"537 89 OFFCURVE",
"493 50 CURVE SMOOTH",
"448 10 OFFCURVE",
"383 -12 OFFCURVE",
"299 -12 CURVE SMOOTH"
);
}
);
width = 611;
}
);
leftKerningGroup = S;
rightKerningGroup = S;
unicode = 0053;
},
{
glyphname = T;
layers = (
{
layerId = "A3FA1D5A-5B70-4048-948C-F73CFEE83353";
name = Bold;
paths = (
{
closed = 1;
nodes = (
"356 581 LINE",
"356 0 LINE",
"224 0 LINE",
"224 581 LINE",
"26 581 LINE",
"26 698 LINE",
"554 698 LINE",
"554 581 LINE"
);
}
);
width = 580;
}
);
leftKerningGroup = T;
rightKerningGroup = T;
unicode = 0054;
},
{
glyphname = U;
layers = (
{
layerId = "A3FA1D5A-5B70-4048-948C-F73CFEE83353";
name = Bold;
paths = (
{
closed = 1;
nodes = (
"207 698 LINE",
"207 269 LINE SMOOTH",
"207 160 OFFCURVE",
"245 105 OFFCURVE",
"345 105 CURVE SMOOTH",
"445 105 OFFCURVE",
"483 160 OFFCURVE",
"483 269 CURVE SMOOTH",
"483 698 LINE",
"613 698 LINE",
"613 286 LINE SMOOTH",
"613 183 OFFCURVE",
"595 109 OFFCURVE",
"552 60 CURVE SMOOTH",
"509 11 OFFCURVE",
"441 -12 OFFCURVE",
"344 -12 CURVE SMOOTH",
"245 -12 OFFCURVE",
"180 11 OFFCURVE",
"137 60 CURVE SMOOTH",
"94 109 OFFCURVE",
"77 183 OFFCURVE",
"77 286 CURVE SMOOTH",
"77 698 LINE"
);
}
);
width = 690;
}
);
leftKerningGroup = U;
rightKerningGroup = U;
unicode = 0055;
},
{
glyphname = V;
layers = (
{
layerId = "A3FA1D5A-5B70-4048-948C-F73CFEE83353";
name = Bold;
paths = (
{
closed = 1;
nodes = (
"244 0 LINE",
"16 698 LINE",
"151 698 LINE",
"258 358 LINE",
"320 126 LINE",
"323 126 LINE",
"384 358 LINE",
"491 698 LINE",
"622 698 LINE",
"394 0 LINE"
);
}
);
width = 638;
}
);
leftKerningGroup = V;
rightKerningGroup = V;
unicode = 0056;
},
{
glyphname = W;
layers = (
{
layerId = "A3FA1D5A-5B70-4048-948C-F73CFEE83353";
name = Bold;
paths = (
{
closed = 1;
nodes = (
"188 0 LINE",
"26 698 LINE",
"158 698 LINE",
"227 363 LINE",
"270 149 LINE",
"273 149 LINE",
"323 363 LINE",
"403 698 LINE",
"549 698 LINE",
"629 363 LINE",
"678 149 LINE",
"681 149 LINE",
"725 363 LINE",
"796 698 LINE",
"922 698 LINE",
"755 0 LINE",
"606 0 LINE",
"517 369 LINE",
"474 553 LINE",
"472 553 LINE",
"427 369 LINE",
"338 0 LINE"
);
}
);
width = 949;
}
);
leftKerningGroup = W;
rightKerningGroup = W;
unicode = 0057;
},
{
glyphname = X;
layers = (
{
layerId = "A3FA1D5A-5B70-4048-948C-F73CFEE83353";
name = Bold;
paths = (
{
closed = 1;
nodes = (
"637 0 LINE",
"483 0 LINE",
"323 268 LINE",
"320 268 LINE",
"162 0 LINE",
"18 0 LINE",
"244 358 LINE",
"28 698 LINE",
"182 698 LINE",
"330 450 LINE",
"333 450 LINE",
"483 698 LINE",
"627 698 LINE",
"409 358 LINE"
);
}
);
width = 655;
}
);
leftKerningGroup = X;
rightKerningGroup = X;
unicode = 0058;
},
{
glyphname = Y;
layers = (
{
layerId = "A3FA1D5A-5B70-4048-948C-F73CFEE83353";
name = Bold;
paths = (
{
closed = 1;
nodes = (
"249 0 LINE",
"249 274 LINE",
"10 698 LINE",
"158 698 LINE",
"319 403 LINE",
"321 403 LINE",
"478 698 LINE",
"622 698 LINE",
"382 275 LINE",
"382 0 LINE"
);
}
);
width = 632;
}
);
leftKerningGroup = Y;
rightKerningGroup = Y;
unicode = 0059;
},
{
glyphname = Z;
layers = (
{
layerId = "A3FA1D5A-5B70-4048-948C-F73CFEE83353";
name = Bold;
paths = (
{
closed = 1;
nodes = (
"561 0 LINE",
"38 0 LINE",
"38 118 LINE",
"400 582 LINE",
"56 582 LINE",
"56 698 LINE",
"551 698 LINE",
"551 580 LINE",
"188 116 LINE",
"561 116 LINE"
);
}
);
width = 599;
}
);
leftKerningGroup = Z;
rightKerningGroup = Z;
unicode = 005A;
},
{
glyphname = zero;
layers = (
{
layerId = "A3FA1D5A-5B70-4048-948C-F73CFEE83353";
name = Bold;
paths = (
{
closed = 1;
nodes = (
"211 -12 OFFCURVE",
"146 22 OFFCURVE",
"103 83 CURVE SMOOTH",
"60 144 OFFCURVE",
"40 234 OFFCURVE",
"40 349 CURVE SMOOTH",
"40 462 OFFCURVE",
"60 554 OFFCURVE",
"103 615 CURVE SMOOTH",
"146 676 OFFCURVE",
"211 710 OFFCURVE",
"300 710 CURVE SMOOTH",
"477 710 OFFCURVE",
"560 577 OFFCURVE",
"560 349 CURVE SMOOTH",
"560 121 OFFCURVE",
"477 -12 OFFCURVE",
"300 -12 CURVE SMOOTH"
);
},
{
closed = 1;
nodes = (
"389 99 OFFCURVE",
"420 171 OFFCURVE",
"420 286 CURVE SMOOTH",
"420 412 LINE SMOOTH",
"420 527 OFFCURVE",
"389 599 OFFCURVE",
"300 599 CURVE SMOOTH",
"211 599 OFFCURVE",
"180 527 OFFCURVE",
"180 412 CURVE SMOOTH",
"180 286 LINE SMOOTH",
"180 171 OFFCURVE",
"211 99 OFFCURVE",
"300 99 CURVE SMOOTH"
);
}
);
width = 600;
}
);
unicode = 0030;
},
{
glyphname = one;
lastChange = "2018-11-04 17:06:56 +0000";
layers = (
{
layerId = "A3FA1D5A-5B70-4048-948C-F73CFEE83353";
name = Bold;
paths = (
{
closed = 1;
nodes = (
"58 619 LINE",
"58 495 LINE",
"208 579 LINE",
"208 0 LINE",
"337 0 LINE",
"337 698 LINE",
"200 698 LINE"
);
}
);
width = 450;
}
);
unicode = 0031;
},
{
glyphname = two;
layers = (
{
layerId = "A3FA1D5A-5B70-4048-948C-F73CFEE83353";
name = Bold;
paths = (
{
closed = 1;
nodes = (
"546 0 LINE",
"62 0 LINE",
"62 122 LINE",
"281 314 LINE SMOOTH",
"356 379 OFFCURVE",
"389 427 OFFCURVE",
"389 488 CURVE SMOOTH",
"389 501 LINE SMOOTH",
"389 562 OFFCURVE",
"343 596 OFFCURVE",
"286 596 CURVE SMOOTH",
"214 596 OFFCURVE",
"180 549 OFFCURVE",
"164 492 CURVE",
"50 536 LINE",
"65 583 OFFCURVE",
"91 626 OFFCURVE",
"132 658 CURVE SMOOTH",
"172 690 OFFCURVE",
"226 710 OFFCURVE",
"297 710 CURVE SMOOTH",
"370 710 OFFCURVE",
"428 688 OFFCURVE",
"468 651 CURVE SMOOTH",
"507 614 OFFCURVE",
"528 562 OFFCURVE",
"528 502 CURVE SMOOTH",
"528 443 OFFCURVE",
"508 397 OFFCURVE",
"476 354 CURVE SMOOTH",
"444 310 OFFCURVE",
"400 272 OFFCURVE",
"352 232 CURVE SMOOTH",
"205 111 LINE",
"546 111 LINE"
);
}
);
width = 600;
}
);
unicode = 0032;
},
{
glyphname = three;
layers = (
{
layerId = "A3FA1D5A-5B70-4048-948C-F73CFEE83353";
name = Bold;
paths = (
{
closed = 1;
nodes = (
"262 416 LINE SMOOTH",
"342 416 OFFCURVE",
"379 452 OFFCURVE",
"379 503 CURVE SMOOTH",
"379 510 LINE SMOOTH",
"379 567 OFFCURVE",
"340 602 OFFCURVE",
"276 602 CURVE SMOOTH",
"215 602 OFFCURVE",
"168 571 OFFCURVE",
"133 518 CURVE",
"49 594 LINE",
"73 626 OFFCURVE",
"101 656 OFFCURVE",
"138 677 CURVE SMOOTH",
"175 697 OFFCURVE",
"221 710 OFFCURVE",
"280 710 CURVE SMOOTH",
"351 710 OFFCURVE",
"410 693 OFFCURVE",
"452 661 CURVE SMOOTH",
"494 629 OFFCURVE",
"517 584 OFFCURVE",
"517 528 CURVE SMOOTH",
"517 483 OFFCURVE",
"502 447 OFFCURVE",
"478 420 CURVE SMOOTH",
"453 393 OFFCURVE",
"419 377 OFFCURVE",
"383 369 CURVE",
"383 363 LINE",
"423 355 OFFCURVE",
"461 338 OFFCURVE",
"487 310 CURVE SMOOTH",
"513 281 OFFCURVE",
"529 242 OFFCURVE",
"529 193 CURVE SMOOTH",
"529 132 OFFCURVE",
"503 80 OFFCURVE",
"458 44 CURVE SMOOTH",
"413 8 OFFCURVE",
"349 -12 OFFCURVE",
"272 -12 CURVE SMOOTH",
"204 -12 OFFCURVE",
"153 3 OFFCURVE",
"114 27 CURVE SMOOTH",
"74 51 OFFCURVE",
"45 83 OFFCURVE",
"24 118 CURVE",
"121 192 LINE",
"137 164 OFFCURVE",
"155 140 OFFCURVE",
"179 123 CURVE SMOOTH",
"203 106 OFFCURVE",
"233 96 OFFCURVE",
"272 96 CURVE SMOOTH",
"349 96 OFFCURVE",
"392 136 OFFCURVE",
"392 201 CURVE SMOOTH",
"392 208 LINE SMOOTH",
"392 272 OFFCURVE",
"346 306 OFFCURVE",
"262 306 CURVE SMOOTH",
"193 306 LINE",
"193 416 LINE"
);
}
);
width = 600;
}
);
unicode = 0033;
},
{
glyphname = four;
layers = (
{
layerId = "A3FA1D5A-5B70-4048-948C-F73CFEE83353";
name = Bold;
paths = (
{
closed = 1;
nodes = (
"348 0 LINE",
"348 135 LINE",
"32 135 LINE",
"32 247 LINE",
"310 698 LINE",
"473 698 LINE",
"473 237 LINE",
"564 237 LINE",
"564 135 LINE",
"473 135 LINE",
"473 0 LINE"
);
},
{
closed = 1;
nodes = (
"140 237 LINE",
"348 237 LINE",
"348 570 LINE",
"340 570 LINE"
);
}
);
width = 600;
}
);
unicode = 0034;
},
{
glyphname = five;
layers = (
{
layerId = "A3FA1D5A-5B70-4048-948C-F73CFEE83353";
name = Bold;
paths = (
{
closed = 1;
nodes = (
"515 584 LINE",
"201 584 LINE",
"185 350 LINE",
"192 350 LINE",
"207 379 OFFCURVE",
"223 406 OFFCURVE",
"246 423 CURVE SMOOTH",
"269 440 OFFCURVE",
"297 451 OFFCURVE",
"340 451 CURVE SMOOTH",
"400 451 OFFCURVE",
"454 431 OFFCURVE",
"492 393 CURVE SMOOTH",
"530 355 OFFCURVE",
"553 299 OFFCURVE",
"553 230 CURVE SMOOTH",
"553 159 OFFCURVE",
"530 100 OFFCURVE",
"486 57 CURVE SMOOTH",
"442 13 OFFCURVE",
"378 -12 OFFCURVE",
"295 -12 CURVE SMOOTH",
"231 -12 OFFCURVE",
"181 3 OFFCURVE",
"142 27 CURVE SMOOTH",
"103 51 OFFCURVE",
"76 83 OFFCURVE",
"55 118 CURVE",
"151 192 LINE",
"167 165 OFFCURVE",
"183 141 OFFCURVE",
"207 124 CURVE SMOOTH",
"230 107 OFFCURVE",
"257 96 OFFCURVE",
"296 96 CURVE SMOOTH",
"375 96 OFFCURVE",
"416 143 OFFCURVE",
"416 219 CURVE SMOOTH",
"416 227 LINE SMOOTH",
"416 299 OFFCURVE",
"372 343 OFFCURVE",
"299 343 CURVE SMOOTH",
"242 343 OFFCURVE",
"207 316 OFFCURVE",
"186 291 CURVE",
"78 306 LINE",
"104 698 LINE",
"515 698 LINE"
);
}
);
width = 600;
}
);
unicode = 0035;
},
{
glyphname = six;
layers = (
{
layerId = "A3FA1D5A-5B70-4048-948C-F73CFEE83353";
name = Bold;
paths = (
{
closed = 1;
nodes = (
"223 -12 OFFCURVE",
"160 15 OFFCURVE",
"116 63 CURVE SMOOTH",
"72 110 OFFCURVE",
"49 178 OFFCURVE",
"49 262 CURVE SMOOTH",
"49 362 OFFCURVE",
"82 452 OFFCURVE",
"130 526 CURVE SMOOTH",
"178 600 OFFCURVE",
"240 658 OFFCURVE",
"299 698 CURVE",
"477 698 LINE",
"394 639 OFFCURVE",
"330 586 OFFCURVE",
"282 530 CURVE SMOOTH",
"233 474 OFFCURVE",
"202 415 OFFCURVE",
"186 344 CURVE",
"194 342 LINE",
"207 369 OFFCURVE",
"225 394 OFFCURVE",
"250 414 CURVE SMOOTH",
"275 433 OFFCURVE",
"308 445 OFFCURVE",
"352 445 CURVE SMOOTH",
"409 445 OFFCURVE",
"461 425 OFFCURVE",
"498 387 CURVE SMOOTH",
"534 349 OFFCURVE",
"556 294 OFFCURVE",
"556 229 CURVE SMOOTH",
"556 158 OFFCURVE",
"531 99 OFFCURVE",
"487 56 CURVE SMOOTH",
"443 13 OFFCURVE",
"380 -12 OFFCURVE",
"303 -12 CURVE SMOOTH"
);
},
{
closed = 1;
nodes = (
"376 92 OFFCURVE",
"421 134 OFFCURVE",
"421 210 CURVE SMOOTH",
"421 225 LINE SMOOTH",
"421 301 OFFCURVE",
"376 343 OFFCURVE",
"303 343 CURVE SMOOTH",
"228 343 OFFCURVE",
"185 301 OFFCURVE",
"185 225 CURVE SMOOTH",
"185 210 LINE SMOOTH",
"185 134 OFFCURVE",
"228 92 OFFCURVE",
"303 92 CURVE SMOOTH"
);
}
);
width = 600;
}
);
unicode = 0036;
},
{
glyphname = seven;
lastChange = "2018-11-02 04:41:09 +0000";
layers = (
{
layerId = "A3FA1D5A-5B70-4048-948C-F73CFEE83353";
name = Bold;
paths = (
{
closed = 1;
nodes = (
"59 591 LINE",
"412 591 LINE",
"169 0 LINE",
"307 0 LINE",
"543 585 LINE",
"543 698 LINE",
"59 698 LINE"
);
}
);
width = 600;
}
);
unicode = 0037;
},
{
glyphname = eight;
layers = (
{
layerId = "A3FA1D5A-5B70-4048-948C-F73CFEE83353";
name = Bold;
paths = (
{
closed = 1;
nodes = (
"219 -12 OFFCURVE",
"155 10 OFFCURVE",
"112 46 CURVE SMOOTH",
"68 82 OFFCURVE",
"45 132 OFFCURVE",
"45 191 CURVE SMOOTH",
"45 282 OFFCURVE",
"99 338 OFFCURVE",
"183 361 CURVE",
"183 369 LINE",
"114 394 OFFCURVE",
"66 448 OFFCURVE",
"66 529 CURVE SMOOTH",
"66 582 OFFCURVE",
"87 627 OFFCURVE",
"127 659 CURVE SMOOTH",
"167 691 OFFCURVE",
"225 710 OFFCURVE",
"300 710 CURVE SMOOTH",
"375 710 OFFCURVE",
"433 691 OFFCURVE",
"473 659 CURVE SMOOTH",
"513 627 OFFCURVE",
"534 582 OFFCURVE",
"534 529 CURVE SMOOTH",
"534 448 OFFCURVE",
"486 394 OFFCURVE",
"417 369 CURVE",
"417 361 LINE",
"501 338 OFFCURVE",
"555 282 OFFCURVE",
"555 191 CURVE SMOOTH",
"555 132 OFFCURVE",
"532 82 OFFCURVE",
"489 46 CURVE SMOOTH",
"445 10 OFFCURVE",
"381 -12 OFFCURVE",
"300 -12 CURVE SMOOTH"
);
},
{
closed = 1;
nodes = (
"376 91 OFFCURVE",
"418 127 OFFCURVE",
"418 190 CURVE SMOOTH",
"418 211 LINE SMOOTH",
"418 274 OFFCURVE",
"376 310 OFFCURVE",
"300 310 CURVE SMOOTH",
"224 310 OFFCURVE",
"182 274 OFFCURVE",
"182 211 CURVE SMOOTH",
"182 190 LINE SMOOTH",
"182 127 OFFCURVE",
"224 91 OFFCURVE",
"300 91 CURVE SMOOTH"
);
},
{
closed = 1;
nodes = (
"371 408 OFFCURVE",
"409 441 OFFCURVE",
"409 500 CURVE SMOOTH",
"409 516 LINE SMOOTH",
"409 573 OFFCURVE",
"371 607 OFFCURVE",
"300 607 CURVE SMOOTH",
"229 607 OFFCURVE",
"191 573 OFFCURVE",
"191 516 CURVE SMOOTH",
"191 500 LINE SMOOTH",
"191 441 OFFCURVE",
"229 408 OFFCURVE",
"300 408 CURVE SMOOTH"
);
}
);
width = 600;
}
);
unicode = 0038;
},
{
glyphname = nine;
layers = (
{
layerId = "A3FA1D5A-5B70-4048-948C-F73CFEE83353";
name = Bold;
paths = (
{
closed = 1;
nodes = (
"551 336 OFFCURVE",
"518 247 OFFCURVE",
"470 173 CURVE SMOOTH",
"422 99 OFFCURVE",
"360 40 OFFCURVE",
"301 0 CURVE",
"123 0 LINE",
"204 59 OFFCURVE",
"270 112 OFFCURVE",
"319 168 CURVE SMOOTH",
"367 224 OFFCURVE",
"398 283 OFFCURVE",
"414 354 CURVE",
"406 356 LINE",
"393 329 OFFCURVE",
"375 303 OFFCURVE",
"350 284 CURVE SMOOTH",
"325 265 OFFCURVE",
"292 253 OFFCURVE",
"248 253 CURVE SMOOTH",
"189 253 OFFCURVE",
"139 274 OFFCURVE",
"103 312 CURVE SMOOTH",
"66 350 OFFCURVE",
"44 402 OFFCURVE",
"44 469 CURVE SMOOTH",
"44 540 OFFCURVE",
"69 599 OFFCURVE",
"113 642 CURVE SMOOTH",
"157 685 OFFCURVE",
"220 710 OFFCURVE",
"297 710 CURVE SMOOTH",
"377 710 OFFCURVE",
"440 683 OFFCURVE",
"484 636 CURVE SMOOTH",
"528 588 OFFCURVE",
"551 520 OFFCURVE",
"551 436 CURVE SMOOTH"
);
},
{
closed = 1;
nodes = (
"372 355 OFFCURVE",
"415 397 OFFCURVE",
"415 473 CURVE SMOOTH",
"415 488 LINE SMOOTH",
"415 564 OFFCURVE",
"372 606 OFFCURVE",
"297 606 CURVE SMOOTH",
"224 606 OFFCURVE",
"179 564 OFFCURVE",
"179 488 CURVE SMOOTH",
"179 473 LINE SMOOTH",
"179 397 OFFCURVE",
"224 355 OFFCURVE",
"297 355 CURVE SMOOTH"
);
}
);
width = 600;
}
);
unicode = 0039;
},
{
glyphname = ampersand;
layers = (
{
layerId = "A3FA1D5A-5B70-4048-948C-F73CFEE83353";
name = Bold;
paths = (
{
closed = 1;
nodes = (
"488 64 LINE",
"468 47 OFFCURVE",
"443 28 OFFCURVE",
"411 13 CURVE SMOOTH",
"378 -2 OFFCURVE",
"338 -12 OFFCURVE",
"287 -12 CURVE SMOOTH",
"212 -12 OFFCURVE",
"154 9 OFFCURVE",
"115 44 CURVE SMOOTH",
"76 79 OFFCURVE",
"56 127 OFFCURVE",
"56 182 CURVE SMOOTH",
"56 231 OFFCURVE",
"72 268 OFFCURVE",
"97 300 CURVE SMOOTH",
"122 331 OFFCURVE",
"158 354 OFFCURVE",
"197 377 CURVE",
"156 424 OFFCURVE",
"119 479 OFFCURVE",
"119 543 CURVE SMOOTH",
"119 588 OFFCURVE",
"138 630 OFFCURVE",
"174 661 CURVE SMOOTH",
"209 692 OFFCURVE",
"259 710 OFFCURVE",
"320 710 CURVE SMOOTH",
"375 710 OFFCURVE",
"423 695 OFFCURVE",
"457 668 CURVE SMOOTH",
"491 641 OFFCURVE",
"511 602 OFFCURVE",
"511 553 CURVE SMOOTH",
"511 509 OFFCURVE",
"495 473 OFFCURVE",
"468 443 CURVE SMOOTH",
"441 413 OFFCURVE",
"406 387 OFFCURVE",
"366 364 CURVE",
"488 232 LINE",
"507 277 OFFCURVE",
"516 329 OFFCURVE",
"519 380 CURVE",
"676 380 LINE",
"676 273 LINE",
"611 273 LINE",
"601 228 OFFCURVE",
"586 186 OFFCURVE",
"565 149 CURVE",
"703 0 LINE",
"546 0 LINE"
);
},
{
closed = 1;
nodes = (
"273 611 OFFCURVE",
"242 584 OFFCURVE",
"242 543 CURVE SMOOTH",
"242 536 LINE SMOOTH",
"242 505 OFFCURVE",
"261 480 OFFCURVE",
"302 433 CURVE",
"353 464 OFFCURVE",
"389 495 OFFCURVE",
"389 539 CURVE SMOOTH",
"389 545 LINE SMOOTH",
"389 588 OFFCURVE",
"356 611 OFFCURVE",
"316 611 CURVE SMOOTH"
);
},
{
closed = 1;
nodes = (
"352 95 OFFCURVE",
"391 111 OFFCURVE",
"420 136 CURVE",
"261 308 LINE",
"214 280 OFFCURVE",
"187 252 OFFCURVE",
"187 204 CURVE SMOOTH",
"187 193 LINE SMOOTH",
"187 134 OFFCURVE",
"228 95 OFFCURVE",
"304 95 CURVE SMOOTH"
);
}
);
width = 713;
}
);
leftKerningGroup = ampersand;
rightKerningGroup = ampersand;
unicode = 0026;
},
{
glyphname = at;
layers = (
{
layerId = "A3FA1D5A-5B70-4048-948C-F73CFEE83353";
name = Bold;
paths = (
{
closed = 1;
nodes = (
"674 -121 LINE",
"458 -121 LINE SMOOTH",
"334 -121 OFFCURVE",
"235 -79 OFFCURVE",
"167 -7 CURVE SMOOTH",
"99 65 OFFCURVE",
"62 167 OFFCURVE",
"62 290 CURVE SMOOTH",
"62 413 OFFCURVE",
"101 518 OFFCURVE",
"170 592 CURVE SMOOTH",
"238 666 OFFCURVE",
"337 709 OFFCURVE",
"460 709 CURVE SMOOTH",
"569 709 OFFCURVE",
"664 675 OFFCURVE",
"732 611 CURVE SMOOTH",
"800 547 OFFCURVE",
"840 452 OFFCURVE",
"840 331 CURVE SMOOTH",
"840 255 OFFCURVE",
"824 192 OFFCURVE",
"793 148 CURVE SMOOTH",
"761 103 OFFCURVE",
"716 78 OFFCURVE",
"657 78 CURVE SMOOTH",
"588 78 OFFCURVE",
"544 114 OFFCURVE",
"539 170 CURVE",
"534 170 LINE",
"517 114 OFFCURVE",
"481 80 OFFCURVE",
"417 80 CURVE SMOOTH",
"372 80 OFFCURVE",
"332 98 OFFCURVE",
"304 133 CURVE SMOOTH",
"275 168 OFFCURVE",
"257 221 OFFCURVE",
"257 290 CURVE SMOOTH",
"257 359 OFFCURVE",
"275 413 OFFCURVE",
"304 448 CURVE SMOOTH",
"332 483 OFFCURVE",
"372 501 OFFCURVE",
"417 501 CURVE SMOOTH",
"473 501 OFFCURVE",
"508 467 OFFCURVE",
"523 424 CURVE",
"528 424 LINE",
"528 492 LINE",
"626 492 LINE",
"626 213 LINE SMOOTH",
"626 174 OFFCURVE",
"642 158 OFFCURVE",
"673 158 CURVE SMOOTH",
"724 158 OFFCURVE",
"755 212 OFFCURVE",
"755 317 CURVE SMOOTH",
"755 350 LINE SMOOTH",
"755 437 OFFCURVE",
"724 507 OFFCURVE",
"672 555 CURVE SMOOTH",
"619 603 OFFCURVE",
"545 630 OFFCURVE",
"460 630 CURVE SMOOTH",
"365 630 OFFCURVE",
"288 596 OFFCURVE",
"233 540 CURVE SMOOTH",
"178 484 OFFCURVE",
"148 405 OFFCURVE",
"148 313 CURVE SMOOTH",
"148 269 LINE SMOOTH",
"148 177 OFFCURVE",
"179 100 OFFCURVE",
"233 45 CURVE SMOOTH",
"287 -10 OFFCURVE",
"363 -41 OFFCURVE",
"458 -41 CURVE SMOOTH",
"674 -41 LINE"
);
},
{
closed = 1;
nodes = (
"494 163 OFFCURVE",
"528 196 OFFCURVE",
"528 235 CURVE SMOOTH",
"528 353 LINE SMOOTH",
"528 390 OFFCURVE",
"495 418 OFFCURVE",
"450 418 CURVE SMOOTH",
"394 418 OFFCURVE",
"363 381 OFFCURVE",
"363 326 CURVE SMOOTH",
"363 255 LINE SMOOTH",
"363 199 OFFCURVE",
"394 163 OFFCURVE",
"450 163 CURVE SMOOTH"
);
}
);
width = 899;
}
);
leftKerningGroup = at;
rightKerningGroup = at;
unicode = 0040;
},
{
glyphname = hyphen;
layers = (
{
layerId = "A3FA1D5A-5B70-4048-948C-F73CFEE83353";
name = Bold;
paths = (
{
closed = 1;
nodes = (
"58 241 LINE",
"58 368 LINE",
"344 368 LINE",
"344 241 LINE"
);
}
);
width = 402;
}
);
leftKerningGroup = hyphen;
rightKerningGroup = hyphen;
unicode = 002D;
},
{
glyphname = uni00AD;
layers = (
{
layerId = "A3FA1D5A-5B70-4048-948C-F73CFEE83353";
name = Bold;
paths = (
{
closed = 1;
nodes = (
"58 241 LINE",
"58 368 LINE",
"344 368 LINE",
"344 241 LINE"
);
}
);
width = 402;
}
);
leftKerningGroup = hyphen;
rightKerningGroup = hyphen;
unicode = 00AD;
},
{
glyphname = endash;
layers = (
{
layerId = "A3FA1D5A-5B70-4048-948C-F73CFEE83353";
name = Bold;
paths = (
{
closed = 1;
nodes = (
"36 250 LINE",
"36 358 LINE",
"552 358 LINE",
"552 250 LINE"
);
}
);
width = 588;
}
);
leftKerningGroup = hyphen;
rightKerningGroup = hyphen;
unicode = 2013;
},
{
glyphname = emdash;
layers = (
{
layerId = "A3FA1D5A-5B70-4048-948C-F73CFEE83353";
name = Bold;
paths = (
{
closed = 1;
nodes = (
"36 250 LINE",
"36 358 LINE",
"744 358 LINE",
"744 250 LINE"
);
}
);
width = 780;
}
);
leftKerningGroup = hyphen;
rightKerningGroup = hyphen;
unicode = 2014;
},
{
glyphname = underscore;
layers = (
{
layerId = "A3FA1D5A-5B70-4048-948C-F73CFEE83353";
name = Bold;
paths = (
{
closed = 1;
nodes = (
"30 -183 LINE",
"30 -75 LINE",
"529 -75 LINE",
"529 -183 LINE"
);
}
);
width = 559;
}
);
leftKerningGroup = underscore;
rightKerningGroup = underscore;
unicode = 005F;
},
{
glyphname = period;
layers = (
{
layerId = "A3FA1D5A-5B70-4048-948C-F73CFEE83353";
name = Bold;
paths = (
{
closed = 1;
nodes = (
"94 -11 OFFCURVE",
"69 19 OFFCURVE",
"69 62 CURVE SMOOTH",
"69 80 LINE SMOOTH",
"69 123 OFFCURVE",
"94 154 OFFCURVE",
"149 154 CURVE SMOOTH",
"205 154 OFFCURVE",
"229 123 OFFCURVE",
"229 80 CURVE SMOOTH",
"229 62 LINE SMOOTH",
"229 19 OFFCURVE",
"205 -11 OFFCURVE",
"149 -11 CURVE SMOOTH"
);
}
);
width = 299;
}
);
leftKerningGroup = period;
rightKerningGroup = period;
unicode = 002E;
},
{
glyphname = ellipsis;
layers = (
{
layerId = "A3FA1D5A-5B70-4048-948C-F73CFEE83353";
name = Bold;
paths = (
{
closed = 1;
nodes = (
"94 -11 OFFCURVE",
"69 19 OFFCURVE",
"69 62 CURVE SMOOTH",
"69 80 LINE SMOOTH",
"69 123 OFFCURVE",
"94 154 OFFCURVE",
"149 154 CURVE SMOOTH",
"205 154 OFFCURVE",
"229 123 OFFCURVE",
"229 80 CURVE SMOOTH",
"229 62 LINE SMOOTH",
"229 19 OFFCURVE",
"205 -11 OFFCURVE",
"149 -11 CURVE SMOOTH"
);
},
{
closed = 1;
nodes = (
"379 -11 OFFCURVE",
"354 19 OFFCURVE",
"354 62 CURVE SMOOTH",
"354 80 LINE SMOOTH",
"354 123 OFFCURVE",
"379 154 OFFCURVE",
"434 154 CURVE SMOOTH",
"490 154 OFFCURVE",
"514 123 OFFCURVE",
"514 80 CURVE SMOOTH",
"514 62 LINE SMOOTH",
"514 19 OFFCURVE",
"490 -11 OFFCURVE",
"434 -11 CURVE SMOOTH"
);
},
{
closed = 1;
nodes = (
"664 -11 OFFCURVE",
"639 19 OFFCURVE",
"639 62 CURVE SMOOTH",
"639 80 LINE SMOOTH",
"639 123 OFFCURVE",
"664 154 OFFCURVE",
"719 154 CURVE SMOOTH",
"775 154 OFFCURVE",
"799 123 OFFCURVE",
"799 80 CURVE SMOOTH",
"799 62 LINE SMOOTH",
"799 19 OFFCURVE",
"775 -11 OFFCURVE",
"719 -11 CURVE SMOOTH"
);
}
);
width = 869;
}
);
leftKerningGroup = period;
rightKerningGroup = period;
unicode = 2026;
},
{
glyphname = colon;
layers = (
{
layerId = "A3FA1D5A-5B70-4048-948C-F73CFEE83353";
name = Bold;
paths = (
{
closed = 1;
nodes = (
"104 -11 OFFCURVE",
"79 19 OFFCURVE",
"79 62 CURVE SMOOTH",
"79 80 LINE SMOOTH",
"79 123 OFFCURVE",
"104 154 OFFCURVE",
"159 154 CURVE SMOOTH",
"215 154 OFFCURVE",
"239 123 OFFCURVE",
"239 80 CURVE SMOOTH",
"239 62 LINE SMOOTH",
"239 19 OFFCURVE",
"215 -11 OFFCURVE",
"159 -11 CURVE SMOOTH"
);
},
{
closed = 1;
nodes = (
"104 367 OFFCURVE",
"79 397 OFFCURVE",
"79 440 CURVE SMOOTH",
"79 458 LINE SMOOTH",
"79 501 OFFCURVE",
"104 532 OFFCURVE",
"159 532 CURVE SMOOTH",
"215 532 OFFCURVE",
"239 501 OFFCURVE",
"239 458 CURVE SMOOTH",
"239 440 LINE SMOOTH",
"239 397 OFFCURVE",
"215 367 OFFCURVE",
"159 367 CURVE SMOOTH"
);
}
);
width = 319;
}
);
leftKerningGroup = colon;
unicode = 003A;
},
{
glyphname = comma;
layers = (
{
layerId = "A3FA1D5A-5B70-4048-948C-F73CFEE83353";
name = Bold;
paths = (
{
closed = 1;
nodes = (
"206 154 OFFCURVE",
"231 123 OFFCURVE",
"231 80 CURVE SMOOTH",
"231 62 LINE SMOOTH",
"231 26 OFFCURVE",
"221 -14 OFFCURVE",
"203 -50 CURVE SMOOTH",
"185 -86 OFFCURVE",
"160 -119 OFFCURVE",
"129 -143 CURVE",
"38 -143 LINE",
"83 -99 OFFCURVE",
"114 -60 OFFCURVE",
"130 -9 CURVE",
"89 -2 OFFCURVE",
"71 26 OFFCURVE",
"71 62 CURVE SMOOTH",
"71 80 LINE SMOOTH",
"71 123 OFFCURVE",
"95 154 OFFCURVE",
"151 154 CURVE SMOOTH"
);
}
);
width = 299;
}
);
leftKerningGroup = period;
rightKerningGroup = period;
unicode = 002C;
},
{
glyphname = semicolon;
layers = (
{
layerId = "A3FA1D5A-5B70-4048-948C-F73CFEE83353";
name = Bold;
paths = (
{
closed = 1;
nodes = (
"215 154 OFFCURVE",
"240 123 OFFCURVE",
"240 80 CURVE SMOOTH",
"240 62 LINE SMOOTH",
"240 26 OFFCURVE",
"230 -14 OFFCURVE",
"212 -50 CURVE SMOOTH",
"194 -86 OFFCURVE",
"169 -119 OFFCURVE",
"138 -143 CURVE",
"47 -143 LINE",
"92 -99 OFFCURVE",
"123 -60 OFFCURVE",
"139 -9 CURVE",
"98 -2 OFFCURVE",
"80 26 OFFCURVE",
"80 62 CURVE SMOOTH",
"80 80 LINE SMOOTH",
"80 123 OFFCURVE",
"104 154 OFFCURVE",
"160 154 CURVE SMOOTH"
);
},
{
closed = 1;
nodes = (
"103 367 OFFCURVE",
"78 397 OFFCURVE",
"78 440 CURVE SMOOTH",
"78 458 LINE SMOOTH",
"78 501 OFFCURVE",
"103 532 OFFCURVE",
"158 532 CURVE SMOOTH",
"214 532 OFFCURVE",
"238 501 OFFCURVE",
"238 458 CURVE SMOOTH",
"238 440 LINE SMOOTH",
"238 397 OFFCURVE",
"214 367 OFFCURVE",
"158 367 CURVE SMOOTH"
);
}
);
width = 319;
}
);
leftKerningGroup = colon;
unicode = 003B;
},
{
glyphname = quotesingle;
layers = (
{
layerId = "A3FA1D5A-5B70-4048-948C-F73CFEE83353";
name = Bold;
paths = (
{
closed = 1;
nodes = (
"73 428 LINE",
"73 740 LINE",
"187 740 LINE",
"187 428 LINE"
);
}
);
width = 260;
}
);
leftKerningGroup = quotesingle;
rightKerningGroup = quotesingle;
unicode = 0027;
},
{
glyphname = quotedbl;
layers = (
{
layerId = "A3FA1D5A-5B70-4048-948C-F73CFEE83353";
name = Bold;
paths = (
{
closed = 1;
nodes = (
"73 428 LINE",
"73 740 LINE",
"187 740 LINE",
"187 428 LINE"
);
},
{
closed = 1;
nodes = (
"284 428 LINE",
"284 740 LINE",
"398 740 LINE",
"398 428 LINE"
);
}
);
width = 471;
}
);
leftKerningGroup = quotesingle;
rightKerningGroup = quotesingle;
unicode = 0022;
},
{
glyphname = quoteleft;
layers = (
{
layerId = "A3FA1D5A-5B70-4048-948C-F73CFEE83353";
name = Bold;
paths = (
{
closed = 1;
nodes = (
"88 455 OFFCURVE",
"65 484 OFFCURVE",
"65 523 CURVE SMOOTH",
"65 542 LINE SMOOTH",
"65 578 OFFCURVE",
"77 615 OFFCURVE",
"95 650 CURVE SMOOTH",
"113 685 OFFCURVE",
"139 716 OFFCURVE",
"168 740 CURVE",
"254 740 LINE",
"211 699 OFFCURVE",
"182 661 OFFCURVE",
"167 612 CURVE",
"206 604 OFFCURVE",
"222 577 OFFCURVE",
"222 545 CURVE SMOOTH",
"222 523 LINE SMOOTH",
"222 484 OFFCURVE",
"199 455 OFFCURVE",
"143 455 CURVE SMOOTH"
);
}
);
width = 292;
}
);
leftKerningGroup = quoteleft;
rightKerningGroup = quoteleft;
unicode = 2018;
},
{
glyphname = quoteright;
layers = (
{
layerId = "A3FA1D5A-5B70-4048-948C-F73CFEE83353";
name = Bold;
paths = (
{
closed = 1;
nodes = (
"204 750 OFFCURVE",
"227 721 OFFCURVE",
"227 682 CURVE SMOOTH",
"227 663 LINE SMOOTH",
"227 627 OFFCURVE",
"217 590 OFFCURVE",
"198 555 CURVE SMOOTH",
"179 520 OFFCURVE",
"153 489 OFFCURVE",
"124 465 CURVE",
"38 465 LINE",
"81 505 OFFCURVE",
"110 544 OFFCURVE",
"125 593 CURVE",
"86 600 OFFCURVE",
"70 627 OFFCURVE",
"70 660 CURVE SMOOTH",
"70 682 LINE SMOOTH",
"70 721 OFFCURVE",
"93 750 OFFCURVE",
"149 750 CURVE SMOOTH"
);
}
);
width = 292;
}
);
leftKerningGroup = quoteright;
rightKerningGroup = quoteright;
unicode = 2019;
},
{
glyphname = quotedblleft;
layers = (
{
layerId = "A3FA1D5A-5B70-4048-948C-F73CFEE83353";
name = Bold;
paths = (
{
closed = 1;
nodes = (
"88 455 OFFCURVE",
"65 484 OFFCURVE",
"65 523 CURVE SMOOTH",
"65 542 LINE SMOOTH",
"65 578 OFFCURVE",
"77 615 OFFCURVE",
"95 650 CURVE SMOOTH",
"113 685 OFFCURVE",
"139 716 OFFCURVE",
"168 740 CURVE",
"254 740 LINE",
"211 699 OFFCURVE",
"182 661 OFFCURVE",
"167 612 CURVE",
"206 604 OFFCURVE",
"222 577 OFFCURVE",
"222 545 CURVE SMOOTH",
"222 523 LINE SMOOTH",
"222 484 OFFCURVE",
"199 455 OFFCURVE",
"143 455 CURVE SMOOTH"
);
},
{
closed = 1;
nodes = (
"313 455 OFFCURVE",
"290 484 OFFCURVE",
"290 523 CURVE SMOOTH",
"290 542 LINE SMOOTH",
"290 578 OFFCURVE",
"302 615 OFFCURVE",
"320 650 CURVE SMOOTH",
"338 685 OFFCURVE",
"364 716 OFFCURVE",
"393 740 CURVE",
"479 740 LINE",
"436 699 OFFCURVE",
"407 661 OFFCURVE",
"392 612 CURVE",
"431 604 OFFCURVE",
"447 577 OFFCURVE",
"447 545 CURVE SMOOTH",
"447 523 LINE SMOOTH",
"447 484 OFFCURVE",
"424 455 OFFCURVE",
"368 455 CURVE SMOOTH"
);
}
);
width = 517;
}
);
leftKerningGroup = quoteleft;
rightKerningGroup = quoteleft;
unicode = 201C;
},
{
glyphname = quotedblright;
layers = (
{
layerId = "A3FA1D5A-5B70-4048-948C-F73CFEE83353";
name = Bold;
paths = (
{
closed = 1;
nodes = (
"204 750 OFFCURVE",
"227 721 OFFCURVE",
"227 682 CURVE SMOOTH",
"227 663 LINE SMOOTH",
"227 627 OFFCURVE",
"217 590 OFFCURVE",
"198 555 CURVE SMOOTH",
"179 520 OFFCURVE",
"153 489 OFFCURVE",
"124 465 CURVE",
"38 465 LINE",
"81 505 OFFCURVE",
"110 544 OFFCURVE",
"125 593 CURVE",
"86 600 OFFCURVE",
"70 627 OFFCURVE",
"70 660 CURVE SMOOTH",
"70 682 LINE SMOOTH",
"70 721 OFFCURVE",
"93 750 OFFCURVE",
"149 750 CURVE SMOOTH"
);
},
{
closed = 1;
nodes = (
"429 750 OFFCURVE",
"452 721 OFFCURVE",
"452 682 CURVE SMOOTH",
"452 663 LINE SMOOTH",
"452 627 OFFCURVE",
"442 590 OFFCURVE",
"423 555 CURVE SMOOTH",
"404 520 OFFCURVE",
"378 489 OFFCURVE",
"349 465 CURVE",
"263 465 LINE",
"306 505 OFFCURVE",
"335 544 OFFCURVE",
"350 593 CURVE",
"311 600 OFFCURVE",
"295 627 OFFCURVE",
"295 660 CURVE SMOOTH",
"295 682 LINE SMOOTH",
"295 721 OFFCURVE",
"318 750 OFFCURVE",
"374 750 CURVE SMOOTH"
);
}
);
width = 517;
}
);
leftKerningGroup = quoteright;
rightKerningGroup = quoteright;
unicode = 201D;
},
{
glyphname = quotesinglbase;
layers = (
{
layerId = "A3FA1D5A-5B70-4048-948C-F73CFEE83353";
name = Bold;
paths = (
{
closed = 1;
nodes = (
"205 169 OFFCURVE",
"227 140 OFFCURVE",
"227 99 CURVE SMOOTH",
"227 79 LINE SMOOTH",
"227 7 OFFCURVE",
"186 -68 OFFCURVE",
"126 -117 CURVE",
"38 -117 LINE",
"82 -76 OFFCURVE",
"112 -39 OFFCURVE",
"127 12 CURVE",
"88 19 OFFCURVE",
"71 47 OFFCURVE",
"71 79 CURVE SMOOTH",
"71 99 LINE SMOOTH",
"71 140 OFFCURVE",
"93 169 OFFCURVE",
"149 169 CURVE SMOOTH"
);
}
);
width = 295;
}
);
leftKerningGroup = period;
rightKerningGroup = period;
unicode = 201A;
},
{
glyphname = quotedblbase;
layers = (
{
layerId = "A3FA1D5A-5B70-4048-948C-F73CFEE83353";
name = Bold;
paths = (
{
closed = 1;
nodes = (
"205 169 OFFCURVE",
"227 140 OFFCURVE",
"227 99 CURVE SMOOTH",
"227 79 LINE SMOOTH",
"227 7 OFFCURVE",
"186 -68 OFFCURVE",
"126 -117 CURVE",
"38 -117 LINE",
"82 -76 OFFCURVE",
"112 -39 OFFCURVE",
"127 12 CURVE",
"88 19 OFFCURVE",
"71 47 OFFCURVE",
"71 79 CURVE SMOOTH",
"71 99 LINE SMOOTH",
"71 140 OFFCURVE",
"93 169 OFFCURVE",
"149 169 CURVE SMOOTH"
);
},
{
closed = 1;
nodes = (
"430 169 OFFCURVE",
"452 140 OFFCURVE",
"452 99 CURVE SMOOTH",
"452 79 LINE SMOOTH",
"452 7 OFFCURVE",
"411 -68 OFFCURVE",
"351 -117 CURVE",
"263 -117 LINE",
"307 -76 OFFCURVE",
"337 -39 OFFCURVE",
"352 12 CURVE",
"313 19 OFFCURVE",
"296 47 OFFCURVE",
"296 79 CURVE SMOOTH",
"296 99 LINE SMOOTH",
"296 140 OFFCURVE",
"318 169 OFFCURVE",
"374 169 CURVE SMOOTH"
);
}
);
width = 520;
}
);
leftKerningGroup = period;
rightKerningGroup = period;
unicode = 201E;
},
{
glyphname = guilsinglleft;
layers = (
{
layerId = "A3FA1D5A-5B70-4048-948C-F73CFEE83353";
name = Bold;
paths = (
{
closed = 1;
nodes = (
"225 58 LINE",
"37 220 LINE",
"37 331 LINE",
"225 493 LINE",
"263 412 LINE",
"138 275 LINE",
"263 138 LINE"
);
}
);
width = 313;
}
);
leftKerningGroup = guilsinglleft;
rightKerningGroup = guilsinglleft;
unicode = 2039;
},
{
glyphname = guilsinglright;
layers = (
{
layerId = "A3FA1D5A-5B70-4048-948C-F73CFEE83353";
name = Bold;
paths = (
{
closed = 1;
nodes = (
"175 275 LINE",
"50 412 LINE",
"88 493 LINE",
"276 331 LINE",
"276 220 LINE",
"88 58 LINE",
"50 138 LINE"
);
}
);
width = 313;
}
);
leftKerningGroup = guilsinglright;
rightKerningGroup = guilsinglright;
unicode = 203A;
},
{
glyphname = guillemotleft;
layers = (
{
layerId = "A3FA1D5A-5B70-4048-948C-F73CFEE83353";
name = Bold;
paths = (
{
closed = 1;
nodes = (
"225 58 LINE",
"37 220 LINE",
"37 331 LINE",
"225 493 LINE",
"263 412 LINE",
"138 275 LINE",
"263 138 LINE"
);
},
{
closed = 1;
nodes = (
"457 58 LINE",
"269 220 LINE",
"269 331 LINE",
"457 493 LINE",
"495 412 LINE",
"370 275 LINE",
"495 138 LINE"
);
}
);
width = 545;
}
);
leftKerningGroup = guilsinglleft;
rightKerningGroup = guilsinglleft;
unicode = 00AB;
},
{
glyphname = guillemotright;
layers = (
{
layerId = "A3FA1D5A-5B70-4048-948C-F73CFEE83353";
name = Bold;
paths = (
{
closed = 1;
nodes = (
"175 275 LINE",
"50 412 LINE",
"88 493 LINE",
"276 331 LINE",
"276 220 LINE",
"88 58 LINE",
"50 138 LINE"
);
},
{
closed = 1;
nodes = (
"407 275 LINE",
"282 412 LINE",
"320 493 LINE",
"508 331 LINE",
"508 220 LINE",
"320 58 LINE",
"282 138 LINE"
);
}
);
width = 545;
}
);
leftKerningGroup = guilsinglright;
rightKerningGroup = guilsinglright;
unicode = 00BB;
},
{
glyphname = exclamdown;
layers = (
{
layerId = "A3FA1D5A-5B70-4048-948C-F73CFEE83353";
name = Bold;
paths = (
{
closed = 1;
nodes = (
"86 -176 LINE",
"86 21 LINE",
"126 313 LINE",
"182 313 LINE",
"222 21 LINE",
"222 -176 LINE"
);
},
{
closed = 1;
nodes = (
"98 372 OFFCURVE",
"74 402 OFFCURVE",
"74 443 CURVE SMOOTH",
"74 464 LINE SMOOTH",
"74 504 OFFCURVE",
"98 534 OFFCURVE",
"155 534 CURVE SMOOTH",
"211 534 OFFCURVE",
"235 504 OFFCURVE",
"235 464 CURVE SMOOTH",
"235 443 LINE SMOOTH",
"235 402 OFFCURVE",
"211 372 OFFCURVE",
"155 372 CURVE SMOOTH"
);
}
);
width = 309;
}
);
rightKerningGroup = exclamdown;
unicode = 00A1;
},
{
glyphname = exclam;
layers = (
{
layerId = "A3FA1D5A-5B70-4048-948C-F73CFEE83353";
name = Bold;
paths = (
{
closed = 1;
nodes = (
"128 210 LINE",
"87 501 LINE",
"87 698 LINE",
"223 698 LINE",
"223 501 LINE",
"184 210 LINE"
);
},
{
closed = 1;
nodes = (
"98 -12 OFFCURVE",
"74 18 OFFCURVE",
"74 59 CURVE SMOOTH",
"74 79 LINE SMOOTH",
"74 120 OFFCURVE",
"98 150 OFFCURVE",
"155 150 CURVE SMOOTH",
"211 150 OFFCURVE",
"235 120 OFFCURVE",
"235 79 CURVE SMOOTH",
"235 59 LINE SMOOTH",
"235 18 OFFCURVE",
"211 -12 OFFCURVE",
"155 -12 CURVE SMOOTH"
);
}
);
width = 309;
}
);
leftKerningGroup = exclam;
unicode = 0021;
},
{
glyphname = questiondown;
layers = (
{
layerId = "A3FA1D5A-5B70-4048-948C-F73CFEE83353";
name = Bold;
paths = (
{
closed = 1;
nodes = (
"186 -188 OFFCURVE",
"131 -168 OFFCURVE",
"92 -132 CURVE SMOOTH",
"52 -97 OFFCURVE",
"30 -47 OFFCURVE",
"30 13 CURVE SMOOTH",
"30 72 OFFCURVE",
"51 118 OFFCURVE",
"84 152 CURVE SMOOTH",
"117 186 OFFCURVE",
"161 206 OFFCURVE",
"208 214 CURVE",
"208 297 LINE",
"329 297 LINE",
"329 140 LINE",
"222 136 OFFCURVE",
"166 102 OFFCURVE",
"166 25 CURVE SMOOTH",
"166 11 LINE SMOOTH",
"166 -45 OFFCURVE",
"202 -77 OFFCURVE",
"258 -77 CURVE SMOOTH",
"318 -77 OFFCURVE",
"356 -38 OFFCURVE",
"369 17 CURVE",
"477 -27 LINE",
"465 -68 OFFCURVE",
"442 -108 OFFCURVE",
"406 -138 CURVE SMOOTH",
"370 -168 OFFCURVE",
"319 -188 OFFCURVE",
"254 -188 CURVE SMOOTH"
);
},
{
closed = 1;
nodes = (
"211 372 OFFCURVE",
"187 402 OFFCURVE",
"187 443 CURVE SMOOTH",
"187 464 LINE SMOOTH",
"187 504 OFFCURVE",
"211 534 OFFCURVE",
"268 534 CURVE SMOOTH",
"324 534 OFFCURVE",
"348 504 OFFCURVE",
"348 464 CURVE SMOOTH",
"348 443 LINE SMOOTH",
"348 402 OFFCURVE",
"324 372 OFFCURVE",
"268 372 CURVE SMOOTH"
);
}
);
width = 486;
}
);
leftKerningGroup = questiondown;
rightKerningGroup = questiondown;
unicode = 00BF;
},
{
glyphname = question;
layers = (
{
layerId = "A3FA1D5A-5B70-4048-948C-F73CFEE83353";
name = Bold;
paths = (
{
closed = 1;
nodes = (
"164 226 LINE",
"164 382 LINE",
"271 386 OFFCURVE",
"327 421 OFFCURVE",
"327 498 CURVE SMOOTH",
"327 512 LINE SMOOTH",
"327 568 OFFCURVE",
"291 600 OFFCURVE",
"235 600 CURVE SMOOTH",
"175 600 OFFCURVE",
"139 561 OFFCURVE",
"124 505 CURVE",
"17 549 LINE",
"29 590 OFFCURVE",
"51 631 OFFCURVE",
"87 661 CURVE SMOOTH",
"123 691 OFFCURVE",
"173 710 OFFCURVE",
"240 710 CURVE SMOOTH",
"308 710 OFFCURVE",
"363 690 OFFCURVE",
"402 655 CURVE SMOOTH",
"441 619 OFFCURVE",
"463 569 OFFCURVE",
"463 509 CURVE SMOOTH",
"463 450 OFFCURVE",
"442 405 OFFCURVE",
"409 371 CURVE SMOOTH",
"376 337 OFFCURVE",
"331 316 OFFCURVE",
"286 308 CURVE",
"286 226 LINE"
);
},
{
closed = 1;
nodes = (
"170 -12 OFFCURVE",
"146 18 OFFCURVE",
"146 59 CURVE SMOOTH",
"146 79 LINE SMOOTH",
"146 120 OFFCURVE",
"170 150 OFFCURVE",
"226 150 CURVE SMOOTH",
"283 150 OFFCURVE",
"307 120 OFFCURVE",
"307 79 CURVE SMOOTH",
"307 59 LINE SMOOTH",
"307 18 OFFCURVE",
"283 -12 OFFCURVE",
"226 -12 CURVE SMOOTH"
);
}
);
width = 493;
}
);
leftKerningGroup = question;
rightKerningGroup = question;
unicode = 003F;
},
{
glyphname = parenleft;
layers = (
{
layerId = "A3FA1D5A-5B70-4048-948C-F73CFEE83353";
name = Bold;
paths = (
{
closed = 1;
nodes = (
"51 408 OFFCURVE",
"70 499 OFFCURVE",
"102 576 CURVE SMOOTH",
"133 652 OFFCURVE",
"176 716 OFFCURVE",
"227 760 CURVE",
"348 760 LINE",
"293 709 OFFCURVE",
"250 648 OFFCURVE",
"219 578 CURVE SMOOTH",
"188 508 OFFCURVE",
"171 429 OFFCURVE",
"171 348 CURVE SMOOTH",
"171 274 LINE SMOOTH",
"171 191 OFFCURVE",
"188 113 OFFCURVE",
"220 43 CURVE SMOOTH",
"251 -27 OFFCURVE",
"295 -90 OFFCURVE",
"348 -138 CURVE",
"227 -138 LINE",
"178 -97 OFFCURVE",
"134 -32 OFFCURVE",
"102 46 CURVE SMOOTH",
"70 124 OFFCURVE",
"51 215 OFFCURVE",
"51 312 CURVE SMOOTH"
);
}
);
width = 337;
}
);
rightKerningGroup = parenleft;
unicode = 0028;
},
{
glyphname = parenright;
layers = (
{
layerId = "A3FA1D5A-5B70-4048-948C-F73CFEE83353";
name = Bold;
paths = (
{
closed = 1;
nodes = (
"287 215 OFFCURVE",
"268 125 OFFCURVE",
"236 47 CURVE SMOOTH",
"204 -31 OFFCURVE",
"159 -95 OFFCURVE",
"110 -138 CURVE",
"-11 -138 LINE",
"42 -89 OFFCURVE",
"87 -25 OFFCURVE",
"118 45 CURVE SMOOTH",
"149 115 OFFCURVE",
"166 193 OFFCURVE",
"166 274 CURVE SMOOTH",
"166 348 LINE SMOOTH",
"166 515 OFFCURVE",
"97 661 OFFCURVE",
"-11 760 CURVE",
"110 760 LINE",
"159 717 OFFCURVE",
"204 654 OFFCURVE",
"236 577 CURVE SMOOTH",
"268 500 OFFCURVE",
"287 409 OFFCURVE",
"287 312 CURVE SMOOTH"
);
}
);
width = 337;
}
);
leftKerningGroup = parenright;
unicode = 0029;
},
{
glyphname = bracketleft;
layers = (
{
layerId = "A3FA1D5A-5B70-4048-948C-F73CFEE83353";
name = Bold;
paths = (
{
closed = 1;
nodes = (
"82 -138 LINE",
"82 760 LINE",
"276 760 LINE",
"276 668 LINE",
"199 668 LINE",
"199 -46 LINE",
"276 -46 LINE",
"276 -138 LINE"
);
}
);
width = 329;
}
);
rightKerningGroup = bracketleft;
unicode = 005B;
},
{
glyphname = bracketright;
layers = (
{
layerId = "A3FA1D5A-5B70-4048-948C-F73CFEE83353";
name = Bold;
paths = (
{
closed = 1;
nodes = (
"247 760 LINE",
"247 -138 LINE",
"53 -138 LINE",
"53 -46 LINE",
"130 -46 LINE",
"130 668 LINE",
"53 668 LINE",
"53 760 LINE"
);
}
);
width = 329;
}
);
leftKerningGroup = bracketright;
unicode = 005D;
},
{
glyphname = braceleft;
layers = (
{
layerId = "A3FA1D5A-5B70-4048-948C-F73CFEE83353";
name = Bold;
paths = (
{
closed = 1;
nodes = (
"209 -138 LINE SMOOTH",
"154 -138 OFFCURVE",
"117 -103 OFFCURVE",
"117 -43 CURVE SMOOTH",
"117 171 LINE SMOOTH",
"117 230 OFFCURVE",
"76 260 OFFCURVE",
"20 260 CURVE",
"20 363 LINE",
"76 363 OFFCURVE",
"117 394 OFFCURVE",
"117 451 CURVE SMOOTH",
"117 665 LINE SMOOTH",
"117 725 OFFCURVE",
"154 760 OFFCURVE",
"209 760 CURVE SMOOTH",
"310 760 LINE",
"310 668 LINE",
"234 668 LINE",
"234 443 LINE SMOOTH",
"234 411 OFFCURVE",
"223 382 OFFCURVE",
"204 359 CURVE SMOOTH",
"185 336 OFFCURVE",
"160 320 OFFCURVE",
"132 315 CURVE",
"132 307 LINE",
"160 302 OFFCURVE",
"185 286 OFFCURVE",
"204 263 CURVE SMOOTH",
"223 240 OFFCURVE",
"234 211 OFFCURVE",
"234 179 CURVE SMOOTH",
"234 -46 LINE",
"310 -46 LINE",
"310 -138 LINE"
);
}
);
width = 363;
}
);
rightKerningGroup = bracketleft;
unicode = 007B;
},
{
glyphname = braceright;
layers = (
{
layerId = "A3FA1D5A-5B70-4048-948C-F73CFEE83353";
name = Bold;
paths = (
{
closed = 1;
nodes = (
"155 760 LINE SMOOTH",
"208 760 OFFCURVE",
"247 725 OFFCURVE",
"247 665 CURVE SMOOTH",
"247 451 LINE SMOOTH",
"247 394 OFFCURVE",
"287 363 OFFCURVE",
"343 363 CURVE",
"343 260 LINE",
"287 260 OFFCURVE",
"247 230 OFFCURVE",
"247 171 CURVE SMOOTH",
"247 -43 LINE SMOOTH",
"247 -103 OFFCURVE",
"208 -138 OFFCURVE",
"155 -138 CURVE SMOOTH",
"53 -138 LINE",
"53 -46 LINE",
"130 -46 LINE",
"130 180 LINE SMOOTH",
"130 212 OFFCURVE",
"142 241 OFFCURVE",
"160 264 CURVE SMOOTH",
"178 287 OFFCURVE",
"203 303 OFFCURVE",
"231 308 CURVE",
"231 315 LINE",
"203 320 OFFCURVE",
"178 336 OFFCURVE",
"160 359 CURVE SMOOTH",
"142 382 OFFCURVE",
"130 411 OFFCURVE",
"130 443 CURVE SMOOTH",
"130 668 LINE",
"53 668 LINE",
"53 760 LINE"
);
}
);
width = 363;
}
);
leftKerningGroup = bracketright;
unicode = 007D;
},
{
glyphname = slash;
layers = (
{
layerId = "A3FA1D5A-5B70-4048-948C-F73CFEE83353";
name = Bold;
paths = (
{
closed = 1;
nodes = (
"5 -151 LINE",
"292 740 LINE",
"399 740 LINE",
"112 -151 LINE"
);
}
);
width = 437;
}
);
leftKerningGroup = slash;
rightKerningGroup = slash;
unicode = 002F;
},
{
glyphname = backslash;
layers = (
{
layerId = "A3FA1D5A-5B70-4048-948C-F73CFEE83353";
name = Bold;
paths = (
{
closed = 1;
nodes = (
"324 -151 LINE",
"37 740 LINE",
"144 740 LINE",
"431 -151 LINE"
);
}
);
width = 437;
}
);
unicode = 005C;
},
{
glyphname = fraction;
layers = (
{
layerId = "A3FA1D5A-5B70-4048-948C-F73CFEE83353";
name = Bold;
paths = (
{
closed = 1;
nodes = (
"-233 0 LINE",
"284 698 LINE",
"380 698 LINE",
"-137 0 LINE"
);
}
);
width = 147;
}
);
unicode = 2044;
},
{
glyphname = percent;
layers = (
{
layerId = "A3FA1D5A-5B70-4048-948C-F73CFEE83353";
name = Bold;
paths = (
{
closed = 1;
nodes = (
"180 0 LINE",
"664 698 LINE",
"780 698 LINE",
"296 0 LINE"
);
},
{
closed = 1;
nodes = (
"115 314 OFFCURVE",
"54 383 OFFCURVE",
"54 512 CURVE SMOOTH",
"54 641 OFFCURVE",
"115 710 OFFCURVE",
"228 710 CURVE SMOOTH",
"341 710 OFFCURVE",
"401 641 OFFCURVE",
"401 512 CURVE SMOOTH",
"401 383 OFFCURVE",
"341 314 OFFCURVE",
"228 314 CURVE SMOOTH"
);
},
{
closed = 1;
nodes = (
"269 390 OFFCURVE",
"290 422 OFFCURVE",
"290 485 CURVE SMOOTH",
"290 539 LINE SMOOTH",
"290 602 OFFCURVE",
"269 634 OFFCURVE",
"228 634 CURVE SMOOTH",
"187 634 OFFCURVE",
"166 602 OFFCURVE",
"166 539 CURVE SMOOTH",
"166 485 LINE SMOOTH",
"166 422 OFFCURVE",
"187 390 OFFCURVE",
"228 390 CURVE SMOOTH"
);
},
{
closed = 1;
nodes = (
"620 -12 OFFCURVE",
"559 57 OFFCURVE",
"559 186 CURVE SMOOTH",
"559 315 OFFCURVE",
"620 384 OFFCURVE",
"732 384 CURVE SMOOTH",
"845 384 OFFCURVE",
"906 315 OFFCURVE",
"906 186 CURVE SMOOTH",
"906 57 OFFCURVE",
"845 -12 OFFCURVE",
"732 -12 CURVE SMOOTH"
);
},
{
closed = 1;
nodes = (
"773 64 OFFCURVE",
"794 96 OFFCURVE",
"794 159 CURVE SMOOTH",
"794 213 LINE SMOOTH",
"794 276 OFFCURVE",
"773 308 OFFCURVE",
"732 308 CURVE SMOOTH",
"691 308 OFFCURVE",
"670 276 OFFCURVE",
"670 213 CURVE SMOOTH",
"670 159 LINE SMOOTH",
"670 96 OFFCURVE",
"691 64 OFFCURVE",
"732 64 CURVE SMOOTH"
);
}
);
width = 960;
}
);
rightKerningGroup = percent;
unicode = 0025;
},
{
glyphname = perthousand;
layers = (
{
layerId = "A3FA1D5A-5B70-4048-948C-F73CFEE83353";
name = Bold;
paths = (
{
closed = 1;
nodes = (
"180 0 LINE",
"664 698 LINE",
"780 698 LINE",
"296 0 LINE"
);
},
{
closed = 1;
nodes = (
"115 314 OFFCURVE",
"54 383 OFFCURVE",
"54 512 CURVE SMOOTH",
"54 641 OFFCURVE",
"115 710 OFFCURVE",
"228 710 CURVE SMOOTH",
"341 710 OFFCURVE",
"401 641 OFFCURVE",
"401 512 CURVE SMOOTH",
"401 383 OFFCURVE",
"341 314 OFFCURVE",
"228 314 CURVE SMOOTH"
);
},
{
closed = 1;
nodes = (
"269 390 OFFCURVE",
"290 422 OFFCURVE",
"290 485 CURVE SMOOTH",
"290 539 LINE SMOOTH",
"290 602 OFFCURVE",
"269 634 OFFCURVE",
"228 634 CURVE SMOOTH",
"187 634 OFFCURVE",
"166 602 OFFCURVE",
"166 539 CURVE SMOOTH",
"166 485 LINE SMOOTH",
"166 422 OFFCURVE",
"187 390 OFFCURVE",
"228 390 CURVE SMOOTH"
);
},
{
closed = 1;
nodes = (
"620 -12 OFFCURVE",
"559 57 OFFCURVE",
"559 186 CURVE SMOOTH",
"559 315 OFFCURVE",
"620 384 OFFCURVE",
"732 384 CURVE SMOOTH",
"845 384 OFFCURVE",
"906 315 OFFCURVE",
"906 186 CURVE SMOOTH",
"906 57 OFFCURVE",
"845 -12 OFFCURVE",
"732 -12 CURVE SMOOTH"
);
},
{
closed = 1;
nodes = (
"773 64 OFFCURVE",
"794 96 OFFCURVE",
"794 159 CURVE SMOOTH",
"794 213 LINE SMOOTH",
"794 276 OFFCURVE",
"773 308 OFFCURVE",
"732 308 CURVE SMOOTH",
"691 308 OFFCURVE",
"670 276 OFFCURVE",
"670 213 CURVE SMOOTH",
"670 159 LINE SMOOTH",
"670 96 OFFCURVE",
"691 64 OFFCURVE",
"732 64 CURVE SMOOTH"
);
},
{
closed = 1;
nodes = (
"1019 -12 OFFCURVE",
"958 57 OFFCURVE",
"958 186 CURVE SMOOTH",
"958 315 OFFCURVE",
"1019 384 OFFCURVE",
"1132 384 CURVE SMOOTH",
"1244 384 OFFCURVE",
"1305 315 OFFCURVE",
"1305 186 CURVE SMOOTH",
"1305 57 OFFCURVE",
"1244 -12 OFFCURVE",
"1132 -12 CURVE SMOOTH"
);
},
{
closed = 1;
nodes = (
"1173 64 OFFCURVE",
"1194 96 OFFCURVE",
"1194 159 CURVE SMOOTH",
"1194 213 LINE SMOOTH",
"1194 276 OFFCURVE",
"1173 308 OFFCURVE",
"1132 308 CURVE SMOOTH",
"1091 308 OFFCURVE",
"1070 276 OFFCURVE",
"1070 213 CURVE SMOOTH",
"1070 159 LINE SMOOTH",
"1070 96 OFFCURVE",
"1091 64 OFFCURVE",
"1132 64 CURVE SMOOTH"
);
}
);
width = 1359;
}
);
rightKerningGroup = perthousand;
unicode = 2030;
},
{
glyphname = bar;
layers = (
{
layerId = "A3FA1D5A-5B70-4048-948C-F73CFEE83353";
name = Bold;
paths = (
{
closed = 1;
nodes = (
"134 -138 LINE",
"134 760 LINE",
"242 760 LINE",
"242 -138 LINE"
);
}
);
width = 376;
}
);
unicode = 007C;
},
{
glyphname = brokenbar;
layers = (
{
layerId = "A3FA1D5A-5B70-4048-948C-F73CFEE83353";
name = Bold;
paths = (
{
closed = 1;
nodes = (
"134 402 LINE",
"134 760 LINE",
"242 760 LINE",
"242 402 LINE"
);
},
{
closed = 1;
nodes = (
"134 -138 LINE",
"134 220 LINE",
"242 220 LINE",
"242 -138 LINE"
);
}
);
width = 376;
}
);
unicode = 00A6;
},
{
glyphname = section;
layers = (
{
layerId = "A3FA1D5A-5B70-4048-948C-F73CFEE83353";
name = Bold;
paths = (
{
closed = 1;
nodes = (
"484 -42 OFFCURVE",
"462 -85 OFFCURVE",
"426 -114 CURVE SMOOTH",
"389 -143 OFFCURVE",
"336 -159 OFFCURVE",
"273 -159 CURVE SMOOTH",
"205 -159 OFFCURVE",
"138 -141 OFFCURVE",
"83 -92 CURVE",
"148 -13 LINE",
"183 -46 OFFCURVE",
"223 -65 OFFCURVE",
"274 -65 CURVE SMOOTH",
"334 -65 OFFCURVE",
"373 -39 OFFCURVE",
"373 6 CURVE SMOOTH",
"373 46 OFFCURVE",
"344 67 OFFCURVE",
"281 84 CURVE SMOOTH",
"209 105 LINE SMOOTH",
"153 121 OFFCURVE",
"115 143 OFFCURVE",
"92 169 CURVE SMOOTH",
"68 195 OFFCURVE",
"58 223 OFFCURVE",
"58 254 CURVE SMOOTH",
"58 314 OFFCURVE",
"93 363 OFFCURVE",
"165 394 CURVE",
"165 408 LINE",
"118 439 OFFCURVE",
"89 483 OFFCURVE",
"89 544 CURVE SMOOTH",
"89 596 OFFCURVE",
"111 638 OFFCURVE",
"148 667 CURVE SMOOTH",
"185 695 OFFCURVE",
"237 710 OFFCURVE",
"300 710 CURVE SMOOTH",
"368 710 OFFCURVE",
"435 694 OFFCURVE",
"491 643 CURVE",
"425 564 LINE",
"390 596 OFFCURVE",
"353 616 OFFCURVE",
"297 616 CURVE SMOOTH",
"238 616 OFFCURVE",
"200 595 OFFCURVE",
"200 548 CURVE SMOOTH",
"200 509 OFFCURVE",
"229 489 OFFCURVE",
"292 472 CURVE SMOOTH",
"364 451 LINE SMOOTH",
"420 435 OFFCURVE",
"458 414 OFFCURVE",
"482 388 CURVE SMOOTH",
"506 362 OFFCURVE",
"516 331 OFFCURVE",
"516 300 CURVE SMOOTH",
"516 240 OFFCURVE",
"481 192 OFFCURVE",
"408 161 CURVE",
"408 148 LINE",
"455 117 OFFCURVE",
"484 73 OFFCURVE",
"484 10 CURVE SMOOTH"
);
},
{
closed = 1;
nodes = (
"406 303 OFFCURVE",
"384 335 OFFCURVE",
"315 354 CURVE SMOOTH",
"244 374 LINE SMOOTH",
"233 377 OFFCURVE",
"223 380 OFFCURVE",
"212 384 CURVE",
"184 357 OFFCURVE",
"167 328 OFFCURVE",
"167 292 CURVE SMOOTH",
"167 252 OFFCURVE",
"189 221 OFFCURVE",
"258 202 CURVE SMOOTH",
"329 182 LINE SMOOTH",
"340 179 OFFCURVE",
"351 175 OFFCURVE",
"362 171 CURVE",
"389 198 OFFCURVE",
"406 227 OFFCURVE",
"406 262 CURVE SMOOTH"
);
}
);
width = 574;
}
);
unicode = 00A7;
},
{
glyphname = paragraph;
layers = (
{
layerId = "A3FA1D5A-5B70-4048-948C-F73CFEE83353";
name = Bold;
paths = (
{
closed = 1;
nodes = (
"243 272 LINE",
"186 272 OFFCURVE",
"134 296 OFFCURVE",
"97 335 CURVE SMOOTH",
"60 374 OFFCURVE",
"37 426 OFFCURVE",
"37 485 CURVE SMOOTH",
"37 542 OFFCURVE",
"60 596 OFFCURVE",
"97 635 CURVE SMOOTH",
"134 674 OFFCURVE",
"186 698 OFFCURVE",
"243 698 CURVE SMOOTH",
"608 698 LINE",
"608 603 LINE",
"542 603 LINE",
"542 -149 LINE",
"443 -149 LINE",
"443 603 LINE",
"342 603 LINE",
"342 -149 LINE",
"243 -149 LINE"
);
}
);
width = 670;
}
);
unicode = 00B6;
},
{
glyphname = copyright;
layers = (
{
layerId = "A3FA1D5A-5B70-4048-948C-F73CFEE83353";
name = Bold;
paths = (
{
closed = 1;
nodes = (
"294 -12 OFFCURVE",
"208 22 OFFCURVE",
"148 85 CURVE SMOOTH",
"87 148 OFFCURVE",
"50 237 OFFCURVE",
"50 349 CURVE SMOOTH",
"50 461 OFFCURVE",
"87 550 OFFCURVE",
"148 613 CURVE SMOOTH",
"208 676 OFFCURVE",
"294 710 OFFCURVE",
"394 710 CURVE SMOOTH",
"493 710 OFFCURVE",
"579 676 OFFCURVE",
"640 613 CURVE SMOOTH",
"701 550 OFFCURVE",
"738 461 OFFCURVE",
"738 349 CURVE SMOOTH",
"738 237 OFFCURVE",
"701 148 OFFCURVE",
"640 85 CURVE SMOOTH",
"579 22 OFFCURVE",
"493 -12 OFFCURVE",
"394 -12 CURVE SMOOTH"
);
},
{
closed = 1;
nodes = (
"473 51 OFFCURVE",
"541 80 OFFCURVE",
"589 128 CURVE SMOOTH",
"637 175 OFFCURVE",
"665 241 OFFCURVE",
"665 316 CURVE SMOOTH",
"665 382 LINE SMOOTH",
"665 457 OFFCURVE",
"637 523 OFFCURVE",
"589 571 CURVE SMOOTH",
"541 618 OFFCURVE",
"473 647 OFFCURVE",
"394 647 CURVE SMOOTH",
"315 647 OFFCURVE",
"247 618 OFFCURVE",
"199 571 CURVE SMOOTH",
"151 523 OFFCURVE",
"122 457 OFFCURVE",
"122 382 CURVE SMOOTH",
"122 316 LINE SMOOTH",
"122 241 OFFCURVE",
"151 175 OFFCURVE",
"199 128 CURVE SMOOTH",
"247 80 OFFCURVE",
"315 51 OFFCURVE",
"394 51 CURVE SMOOTH"
);
},
{
closed = 1;
nodes = (
"340 140 OFFCURVE",
"291 161 OFFCURVE",
"258 198 CURVE SMOOTH",
"225 234 OFFCURVE",
"206 286 OFFCURVE",
"206 349 CURVE SMOOTH",
"206 412 OFFCURVE",
"225 464 OFFCURVE",
"258 501 CURVE SMOOTH",
"291 537 OFFCURVE",
"340 558 OFFCURVE",
"401 558 CURVE SMOOTH",
"489 558 OFFCURVE",
"541 516 OFFCURVE",
"568 452 CURVE",
"480 409 LINE",
"465 444 OFFCURVE",
"444 467 OFFCURVE",
"401 467 CURVE SMOOTH",
"353 467 OFFCURVE",
"325 435 OFFCURVE",
"325 387 CURVE SMOOTH",
"325 311 LINE SMOOTH",
"325 263 OFFCURVE",
"353 231 OFFCURVE",
"401 231 CURVE SMOOTH",
"444 231 OFFCURVE",
"469 255 OFFCURVE",
"488 290 CURVE",
"575 247 LINE",
"548 187 OFFCURVE",
"497 140 OFFCURVE",
"401 140 CURVE SMOOTH"
);
}
);
width = 788;
}
);
leftKerningGroup = copyright;
unicode = 00A9;
},
{
glyphname = registered;
layers = (
{
layerId = "A3FA1D5A-5B70-4048-948C-F73CFEE83353";
name = Bold;
paths = (
{
closed = 1;
nodes = (
"178 298 OFFCURVE",
"128 320 OFFCURVE",
"92 357 CURVE SMOOTH",
"55 393 OFFCURVE",
"33 445 OFFCURVE",
"33 504 CURVE SMOOTH",
"33 563 OFFCURVE",
"55 615 OFFCURVE",
"92 652 CURVE SMOOTH",
"128 688 OFFCURVE",
"178 710 OFFCURVE",
"234 710 CURVE SMOOTH",
"290 710 OFFCURVE",
"340 688 OFFCURVE",
"376 652 CURVE SMOOTH",
"412 615 OFFCURVE",
"435 563 OFFCURVE",
"435 504 CURVE SMOOTH",
"435 445 OFFCURVE",
"412 393 OFFCURVE",
"376 357 CURVE SMOOTH",
"340 320 OFFCURVE",
"290 298 OFFCURVE",
"234 298 CURVE SMOOTH"
);
},
{
closed = 1;
nodes = (
"275 343 OFFCURVE",
"313 358 OFFCURVE",
"340 384 CURVE SMOOTH",
"367 410 OFFCURVE",
"384 445 OFFCURVE",
"384 489 CURVE SMOOTH",
"384 519 LINE SMOOTH",
"384 563 OFFCURVE",
"367 599 OFFCURVE",
"340 625 CURVE SMOOTH",
"313 651 OFFCURVE",
"275 665 OFFCURVE",
"234 665 CURVE SMOOTH",
"193 665 OFFCURVE",
"155 651 OFFCURVE",
"128 625 CURVE SMOOTH",
"101 599 OFFCURVE",
"84 563 OFFCURVE",
"84 519 CURVE SMOOTH",
"84 489 LINE SMOOTH",
"84 445 OFFCURVE",
"101 410 OFFCURVE",
"128 384 CURVE SMOOTH",
"155 358 OFFCURVE",
"193 343 OFFCURVE",
"234 343 CURVE SMOOTH"
);
},
{
closed = 1;
nodes = (
"207 399 LINE",
"150 399 LINE",
"150 608 LINE",
"249 608 LINE SMOOTH",
"300 608 OFFCURVE",
"324 579 OFFCURVE",
"324 540 CURVE SMOOTH",
"324 507 OFFCURVE",
"309 486 OFFCURVE",
"286 475 CURVE",
"331 399 LINE",
"269 399 LINE",
"234 465 LINE",
"207 465 LINE"
);
},
{
closed = 1;
nodes = (
"239 508 LINE SMOOTH",
"257 508 OFFCURVE",
"266 515 OFFCURVE",
"266 530 CURVE SMOOTH",
"266 542 LINE SMOOTH",
"266 557 OFFCURVE",
"257 564 OFFCURVE",
"239 564 CURVE SMOOTH",
"207 564 LINE",
"207 508 LINE"
);
}
);
width = 468;
}
);
leftKerningGroup = registered;
rightKerningGroup = registered;
unicode = 00AE;
},
{
glyphname = trademark;
layers = (
{
layerId = "A3FA1D5A-5B70-4048-948C-F73CFEE83353";
name = Bold;
paths = (
{
closed = 1;
nodes = (
"100 412 LINE",
"100 642 LINE",
"26 642 LINE",
"26 698 LINE",
"248 698 LINE",
"248 642 LINE",
"176 642 LINE",
"176 412 LINE"
);
},
{
closed = 1;
nodes = (
"285 412 LINE",
"285 698 LINE",
"367 698 LINE",
"426 583 LINE",
"431 583 LINE",
"489 698 LINE",
"566 698 LINE",
"566 412 LINE",
"503 412 LINE",
"503 516 LINE",
"508 607 LINE",
"504 607 LINE",
"426 459 LINE",
"346 607 LINE",
"342 607 LINE",
"349 516 LINE",
"349 412 LINE"
);
}
);
width = 627;
}
);
leftKerningGroup = trademark;
rightKerningGroup = trademark;
unicode = 2122;
},
{
glyphname = ordfeminine;
lastChange = "2018-11-02 02:51:44 +0000";
layers = (
{
layerId = "A3FA1D5A-5B70-4048-948C-F73CFEE83353";
name = Bold;
paths = (
{
closed = 1;
nodes = (
"125 710 OFFCURVE",
"78 679 OFFCURVE",
"55 640 CURVE",
"107 594 LINE",
"124 622 OFFCURVE",
"151 642 OFFCURVE",
"195 642 CURVE SMOOTH",
"242 642 OFFCURVE",
"261 620 OFFCURVE",
"261 573 CURVE SMOOTH",
"261 552 LINE",
"201 552 LINE SMOOTH",
"100 552 OFFCURVE",
"44 518 OFFCURVE",
"44 443 CURVE SMOOTH",
"44 376 OFFCURVE",
"88 337 OFFCURVE",
"157 337 CURVE SMOOTH",
"213 337 OFFCURVE",
"251 363 OFFCURVE",
"266 406 CURVE",
"270 406 LINE",
"270 345 LINE",
"353 345 LINE",
"353 576 LINE SMOOTH",
"353 664 OFFCURVE",
"296 710 OFFCURVE",
"204 710 CURVE SMOOTH"
);
},
{
closed = 1;
nodes = (
"261 420 OFFCURVE",
"229 400 OFFCURVE",
"189 400 CURVE SMOOTH",
"154 400 OFFCURVE",
"134 413 OFFCURVE",
"134 442 CURVE SMOOTH",
"134 455 LINE SMOOTH",
"134 484 OFFCURVE",
"157 499 OFFCURVE",
"203 499 CURVE SMOOTH",
"261 499 LINE",
"261 456 LINE SMOOTH"
);
}
);
width = 414;
}
);
unicode = 00AA;
},
{
glyphname = ordmasculine;
layers = (
{
layerId = "A3FA1D5A-5B70-4048-948C-F73CFEE83353";
name = Bold;
paths = (
{
closed = 1;
nodes = (
"104 336 OFFCURVE",
"40 407 OFFCURVE",
"40 523 CURVE SMOOTH",
"40 640 OFFCURVE",
"104 710 OFFCURVE",
"212 710 CURVE SMOOTH",
"320 710 OFFCURVE",
"384 640 OFFCURVE",
"384 523 CURVE SMOOTH",
"384 407 OFFCURVE",
"320 336 OFFCURVE",
"212 336 CURVE SMOOTH"
);
},
{
closed = 1;
nodes = (
"261 407 OFFCURVE",
"288 438 OFFCURVE",
"288 494 CURVE SMOOTH",
"288 553 LINE SMOOTH",
"288 609 OFFCURVE",
"261 640 OFFCURVE",
"212 640 CURVE SMOOTH",
"163 640 OFFCURVE",
"135 609 OFFCURVE",
"135 553 CURVE SMOOTH",
"135 494 LINE SMOOTH",
"135 438 OFFCURVE",
"163 407 OFFCURVE",
"212 407 CURVE SMOOTH"
);
}
);
width = 424;
}
);
unicode = 00BA;
},
{
glyphname = degree;
layers = (
{
layerId = "A3FA1D5A-5B70-4048-948C-F73CFEE83353";
name = Bold;
paths = (
{
closed = 1;
nodes = (
"184 343 OFFCURVE",
"139 363 OFFCURVE",
"107 396 CURVE SMOOTH",
"75 428 OFFCURVE",
"55 475 OFFCURVE",
"55 527 CURVE SMOOTH",
"55 579 OFFCURVE",
"75 625 OFFCURVE",
"107 658 CURVE SMOOTH",
"139 690 OFFCURVE",
"184 710 OFFCURVE",
"235 710 CURVE SMOOTH",
"286 710 OFFCURVE",
"331 690 OFFCURVE",
"363 658 CURVE SMOOTH",
"395 625 OFFCURVE",
"415 579 OFFCURVE",
"415 527 CURVE SMOOTH",
"415 475 OFFCURVE",
"395 428 OFFCURVE",
"363 396 CURVE SMOOTH",
"331 363 OFFCURVE",
"286 343 OFFCURVE",
"235 343 CURVE SMOOTH"
);
},
{
closed = 1;
nodes = (
"288 429 OFFCURVE",
"323 471 OFFCURVE",
"323 527 CURVE SMOOTH",
"323 583 OFFCURVE",
"288 624 OFFCURVE",
"235 624 CURVE SMOOTH",
"180 624 OFFCURVE",
"147 583 OFFCURVE",
"147 527 CURVE SMOOTH",
"147 471 OFFCURVE",
"180 429 OFFCURVE",
"235 429 CURVE SMOOTH"
);
}
);
width = 470;
}
);
unicode = 00B0;
},
{
glyphname = asterisk;
layers = (
{
layerId = "A3FA1D5A-5B70-4048-948C-F73CFEE83353";
name = Bold;
paths = (
{
closed = 1;
nodes = (
"178 282 LINE",
"88 344 LINE",
"204 486 LINE",
"33 536 LINE",
"67 636 LINE",
"231 570 LINE",
"222 747 LINE",
"334 747 LINE",
"326 570 LINE",
"489 636 LINE",
"523 536 LINE",
"352 486 LINE",
"468 344 LINE",
"378 283 LINE",
"278 433 LINE"
);
}
);
width = 556;
}
);
leftKerningGroup = quotesingle;
rightKerningGroup = quotesingle;
unicode = 002A;
},
{
glyphname = dagger;
layers = (
{
layerId = "A3FA1D5A-5B70-4048-948C-F73CFEE83353";
name = Bold;
paths = (
{
closed = 1;
nodes = (
"211 -200 LINE",
"211 421 LINE",
"33 421 LINE",
"33 516 LINE",
"211 516 LINE",
"211 740 LINE",
"320 740 LINE",
"320 516 LINE",
"498 516 LINE",
"498 421 LINE",
"320 421 LINE",
"320 -200 LINE"
);
}
);
width = 531;
}
);
unicode = 2020;
},
{
glyphname = daggerdbl;
layers = (
{
layerId = "A3FA1D5A-5B70-4048-948C-F73CFEE83353";
name = Bold;
paths = (
{
closed = 1;
nodes = (
"218 -200 LINE",
"218 24 LINE",
"40 24 LINE",
"40 119 LINE",
"218 119 LINE",
"218 421 LINE",
"40 421 LINE",
"40 516 LINE",
"218 516 LINE",
"218 740 LINE",
"327 740 LINE",
"327 516 LINE",
"505 516 LINE",
"505 421 LINE",
"327 421 LINE",
"327 119 LINE",
"505 119 LINE",
"505 24 LINE",
"327 24 LINE",
"327 -200 LINE"
);
}
);
width = 545;
}
);
unicode = 2021;
},
{
glyphname = numbersign;
layers = (
{
layerId = "A3FA1D5A-5B70-4048-948C-F73CFEE83353";
name = Bold;
paths = (
{
closed = 1;
nodes = (
"379 182 LINE",
"221 182 LINE",
"189 0 LINE",
"104 0 LINE",
"135 182 LINE",
"26 182 LINE",
"26 264 LINE",
"150 264 LINE",
"178 434 LINE",
"70 434 LINE",
"70 516 LINE",
"193 516 LINE",
"224 698 LINE",
"309 698 LINE",
"277 516 LINE",
"436 516 LINE",
"467 698 LINE",
"552 698 LINE",
"521 516 LINE",
"630 516 LINE",
"630 434 LINE",
"506 434 LINE",
"477 264 LINE",
"586 264 LINE",
"586 182 LINE",
"463 182 LINE",
"431 0 LINE",
"347 0 LINE"
);
},
{
closed = 1;
nodes = (
"392 264 LINE",
"422 434 LINE",
"264 434 LINE",
"234 264 LINE"
);
}
);
width = 656;
}
);
unicode = 0023;
},
{
glyphname = asciicircum;
layers = (
{
layerId = "A3FA1D5A-5B70-4048-948C-F73CFEE83353";
name = Bold;
paths = (
{
closed = 1;
nodes = (
"454 283 LINE",
"301 563 LINE",
"295 563 LINE",
"141 283 LINE",
"44 332 LINE",
"246 698 LINE",
"356 698 LINE",
"556 332 LINE"
);
}
);
width = 600;
}
);
unicode = 005E;
},
{
glyphname = asciitilde;
layers = (
{
layerId = "A3FA1D5A-5B70-4048-948C-F73CFEE83353";
name = Bold;
paths = (
{
closed = 1;
nodes = (
"368 219 OFFCURVE",
"335 232 OFFCURVE",
"290 255 CURVE SMOOTH",
"254 274 OFFCURVE",
"220 289 OFFCURVE",
"179 289 CURVE SMOOTH",
"148 289 OFFCURVE",
"129 280 OFFCURVE",
"100 260 CURVE",
"55 332 LINE",
"80 367 OFFCURVE",
"119 392 OFFCURVE",
"183 392 CURVE SMOOTH",
"232 392 OFFCURVE",
"265 379 OFFCURVE",
"310 356 CURVE SMOOTH",
"346 337 OFFCURVE",
"380 323 OFFCURVE",
"421 323 CURVE SMOOTH",
"452 323 OFFCURVE",
"471 331 OFFCURVE",
"500 351 CURVE",
"545 279 LINE",
"520 244 OFFCURVE",
"481 219 OFFCURVE",
"417 219 CURVE SMOOTH"
);
}
);
width = 600;
}
);
unicode = 007E;
},
{
glyphname = plus;
layers = (
{
layerId = "A3FA1D5A-5B70-4048-948C-F73CFEE83353";
name = Bold;
paths = (
{
closed = 1;
nodes = (
"244 63 LINE",
"244 254 LINE",
"67 254 LINE",
"67 357 LINE",
"244 357 LINE",
"244 549 LINE",
"356 549 LINE",
"356 357 LINE",
"533 357 LINE",
"533 254 LINE",
"356 254 LINE",
"356 63 LINE"
);
}
);
width = 600;
}
);
unicode = 002B;
},
{
glyphname = minus;
layers = (
{
layerId = "A3FA1D5A-5B70-4048-948C-F73CFEE83353";
name = Bold;
paths = (
{
closed = 1;
nodes = (
"67 254 LINE",
"67 357 LINE",
"533 357 LINE",
"533 254 LINE"
);
}
);
width = 600;
}
);
unicode = 2212;
},
{
glyphname = plusminus;
layers = (
{
layerId = "A3FA1D5A-5B70-4048-948C-F73CFEE83353";
name = Bold;
paths = (
{
closed = 1;
nodes = (
"244 175 LINE",
"244 351 LINE",
"67 351 LINE",
"67 455 LINE",
"244 455 LINE",
"244 630 LINE",
"356 630 LINE",
"356 455 LINE",
"533 455 LINE",
"533 351 LINE",
"356 351 LINE",
"356 175 LINE"
);
},
{
closed = 1;
nodes = (
"67 0 LINE",
"67 104 LINE",
"533 104 LINE",
"533 0 LINE"
);
}
);
width = 600;
}
);
unicode = 00B1;
},
{
glyphname = multiply;
layers = (
{
layerId = "A3FA1D5A-5B70-4048-948C-F73CFEE83353";
name = Bold;
paths = (
{
closed = 1;
nodes = (
"300 229 LINE",
"155 77 LINE",
"83 150 LINE",
"228 301 LINE",
"83 452 LINE",
"155 524 LINE",
"300 373 LINE",
"445 524 LINE",
"517 452 LINE",
"372 301 LINE",
"517 150 LINE",
"445 77 LINE"
);
}
);
width = 600;
}
);
unicode = 00D7;
},
{
glyphname = divide;
layers = (
{
layerId = "A3FA1D5A-5B70-4048-948C-F73CFEE83353";
name = Bold;
paths = (
{
closed = 1;
nodes = (
"67 254 LINE",
"67 357 LINE",
"533 357 LINE",
"533 254 LINE"
);
},
{
closed = 1;
nodes = (
"243 35 OFFCURVE",
"220 63 OFFCURVE",
"220 98 CURVE SMOOTH",
"220 121 LINE SMOOTH",
"220 156 OFFCURVE",
"243 184 OFFCURVE",
"300 184 CURVE SMOOTH",
"357 184 OFFCURVE",
"380 156 OFFCURVE",
"380 121 CURVE SMOOTH",
"380 98 LINE SMOOTH",
"380 63 OFFCURVE",
"357 35 OFFCURVE",
"300 35 CURVE SMOOTH"
);
},
{
closed = 1;
nodes = (
"243 426 OFFCURVE",
"220 454 OFFCURVE",
"220 489 CURVE SMOOTH",
"220 512 LINE SMOOTH",
"220 547 OFFCURVE",
"243 575 OFFCURVE",
"300 575 CURVE SMOOTH",
"357 575 OFFCURVE",
"380 547 OFFCURVE",
"380 512 CURVE SMOOTH",
"380 489 LINE SMOOTH",
"380 454 OFFCURVE",
"357 426 OFFCURVE",
"300 426 CURVE SMOOTH"
);
}
);
width = 600;
}
);
unicode = 00F7;
},
{
glyphname = equal;
layers = (
{
layerId = "A3FA1D5A-5B70-4048-948C-F73CFEE83353";
name = Bold;
paths = (
{
closed = 1;
nodes = (
"67 365 LINE",
"67 468 LINE",
"533 468 LINE",
"533 365 LINE"
);
},
{
closed = 1;
nodes = (
"67 142 LINE",
"67 246 LINE",
"533 246 LINE",
"533 142 LINE"
);
}
);
width = 600;
}
);
unicode = 003D;
},
{
glyphname = approxequal;
layers = (
{
layerId = "A3FA1D5A-5B70-4048-948C-F73CFEE83353";
name = Bold;
paths = (
{
closed = 1;
nodes = (
"370 330 OFFCURVE",
"337 343 OFFCURVE",
"292 366 CURVE SMOOTH",
"256 385 OFFCURVE",
"222 400 OFFCURVE",
"181 400 CURVE SMOOTH",
"150 400 OFFCURVE",
"131 391 OFFCURVE",
"102 371 CURVE",
"57 443 LINE",
"82 478 OFFCURVE",
"121 503 OFFCURVE",
"185 503 CURVE SMOOTH",
"234 503 OFFCURVE",
"267 490 OFFCURVE",
"312 467 CURVE SMOOTH",
"348 448 OFFCURVE",
"382 434 OFFCURVE",
"423 434 CURVE SMOOTH",
"454 434 OFFCURVE",
"473 442 OFFCURVE",
"502 462 CURVE",
"547 390 LINE",
"522 355 OFFCURVE",
"483 330 OFFCURVE",
"419 330 CURVE SMOOTH"
);
},
{
closed = 1;
nodes = (
"370 108 OFFCURVE",
"337 121 OFFCURVE",
"292 144 CURVE SMOOTH",
"256 163 OFFCURVE",
"222 178 OFFCURVE",
"181 178 CURVE SMOOTH",
"150 178 OFFCURVE",
"131 169 OFFCURVE",
"102 149 CURVE",
"57 221 LINE",
"82 256 OFFCURVE",
"121 281 OFFCURVE",
"185 281 CURVE SMOOTH",
"234 281 OFFCURVE",
"267 268 OFFCURVE",
"312 245 CURVE SMOOTH",
"348 226 OFFCURVE",
"382 212 OFFCURVE",
"423 212 CURVE SMOOTH",
"454 212 OFFCURVE",
"473 220 OFFCURVE",
"502 240 CURVE",
"547 168 LINE",
"522 133 OFFCURVE",
"483 108 OFFCURVE",
"419 108 CURVE SMOOTH"
);
}
);
width = 600;
}
);
unicode = 2248;
},
{
glyphname = notequal;
layers = (
{
layerId = "A3FA1D5A-5B70-4048-948C-F73CFEE83353";
name = Bold;
paths = (
{
closed = 1;
nodes = (
"107 47 LINE",
"158 142 LINE",
"67 142 LINE",
"67 244 LINE",
"212 244 LINE",
"276 366 LINE",
"67 366 LINE",
"67 468 LINE",
"330 468 LINE",
"381 565 LINE",
"491 565 LINE",
"439 468 LINE",
"533 468 LINE",
"533 366 LINE",
"386 366 LINE",
"321 244 LINE",
"533 244 LINE",
"533 142 LINE",
"267 142 LINE",
"216 47 LINE"
);
}
);
width = 600;
}
);
unicode = 2260;
},
{
glyphname = less;
layers = (
{
layerId = "A3FA1D5A-5B70-4048-948C-F73CFEE83353";
name = Bold;
paths = (
{
closed = 1;
nodes = (
"99 252 LINE",
"99 337 LINE",
"501 593 LINE",
"501 463 LINE",
"231 298 LINE",
"231 291 LINE",
"501 126 LINE",
"501 -4 LINE"
);
}
);
width = 600;
}
);
unicode = 003C;
},
{
glyphname = greater;
layers = (
{
layerId = "A3FA1D5A-5B70-4048-948C-F73CFEE83353";
name = Bold;
paths = (
{
closed = 1;
nodes = (
"99 126 LINE",
"369 291 LINE",
"369 298 LINE",
"99 463 LINE",
"99 593 LINE",
"501 337 LINE",
"501 253 LINE",
"99 -5 LINE"
);
}
);
width = 600;
}
);
unicode = 003E;
},
{
glyphname = lessequal;
layers = (
{
layerId = "A3FA1D5A-5B70-4048-948C-F73CFEE83353";
name = Bold;
paths = (
{
closed = 1;
nodes = (
"99 0 LINE",
"99 102 LINE",
"501 102 LINE",
"501 0 LINE"
);
},
{
closed = 1;
nodes = (
"501 484 LINE",
"246 372 LINE",
"246 365 LINE",
"501 253 LINE",
"501 133 LINE",
"99 323 LINE",
"99 413 LINE",
"501 604 LINE"
);
}
);
width = 600;
}
);
unicode = 2264;
},
{
glyphname = greaterequal;
layers = (
{
layerId = "A3FA1D5A-5B70-4048-948C-F73CFEE83353";
name = Bold;
paths = (
{
closed = 1;
nodes = (
"99 253 LINE",
"354 365 LINE",
"354 372 LINE",
"99 484 LINE",
"99 604 LINE",
"501 414 LINE",
"501 324 LINE",
"99 133 LINE"
);
},
{
closed = 1;
nodes = (
"99 102 LINE",
"501 102 LINE",
"501 0 LINE",
"99 0 LINE"
);
}
);
width = 600;
}
);
unicode = 2265;
},
{
glyphname = periodcentered;
layers = (
{
layerId = "A3FA1D5A-5B70-4048-948C-F73CFEE83353";
name = Bold;
paths = (
{
closed = 1;
nodes = (
"120 221 OFFCURVE",
"95 251 OFFCURVE",
"95 294 CURVE SMOOTH",
"95 312 LINE SMOOTH",
"95 355 OFFCURVE",
"120 386 OFFCURVE",
"175 386 CURVE SMOOTH",
"231 386 OFFCURVE",
"255 355 OFFCURVE",
"255 312 CURVE SMOOTH",
"255 294 LINE SMOOTH",
"255 251 OFFCURVE",
"231 221 OFFCURVE",
"175 221 CURVE SMOOTH"
);
}
);
width = 350;
}
);
unicode = 00B7;
},
{
glyphname = bullet;
layers = (
{
layerId = "A3FA1D5A-5B70-4048-948C-F73CFEE83353";
name = Bold;
paths = (
{
closed = 1;
nodes = (
"158 161 OFFCURVE",
"122 174 OFFCURVE",
"99 196 CURVE SMOOTH",
"75 218 OFFCURVE",
"66 248 OFFCURVE",
"66 284 CURVE SMOOTH",
"66 317 LINE SMOOTH",
"66 353 OFFCURVE",
"75 384 OFFCURVE",
"99 406 CURVE SMOOTH",
"122 428 OFFCURVE",
"158 440 OFFCURVE",
"210 440 CURVE SMOOTH",
"262 440 OFFCURVE",
"298 428 OFFCURVE",
"321 406 CURVE SMOOTH",
"344 384 OFFCURVE",
"354 353 OFFCURVE",
"354 317 CURVE SMOOTH",
"354 284 LINE SMOOTH",
"354 248 OFFCURVE",
"344 218 OFFCURVE",
"321 196 CURVE SMOOTH",
"298 174 OFFCURVE",
"262 161 OFFCURVE",
"210 161 CURVE SMOOTH"
);
}
);
width = 420;
}
);
unicode = 2022;
},
{
glyphname = lozenge;
layers = (
{
layerId = "A3FA1D5A-5B70-4048-948C-F73CFEE83353";
name = Bold;
paths = (
{
closed = 1;
nodes = (
"259 0 LINE",
"51 349 LINE",
"259 698 LINE",
"341 698 LINE",
"549 349 LINE",
"341 0 LINE"
);
},
{
closed = 1;
nodes = (
"303 123 LINE",
"432 349 LINE",
"303 575 LINE",
"297 575 LINE",
"168 349 LINE",
"297 123 LINE"
);
}
);
width = 600;
}
);
unicode = 25CA;
},
{
glyphname = logicalnot;
layers = (
{
layerId = "A3FA1D5A-5B70-4048-948C-F73CFEE83353";
name = Bold;
paths = (
{
closed = 1;
nodes = (
"427 78 LINE",
"427 254 LINE",
"56 254 LINE",
"56 357 LINE",
"533 357 LINE",
"533 78 LINE"
);
}
);
width = 600;
}
);
unicode = 00AC;
},
{
glyphname = radical;
layers = (
{
layerId = "A3FA1D5A-5B70-4048-948C-F73CFEE83353";
name = Bold;
paths = (
{
closed = 1;
nodes = (
"221 0 LINE",
"101 416 LINE",
"18 416 LINE",
"18 522 LINE",
"185 522 LINE",
"244 314 LINE",
"298 106 LINE",
"305 106 LINE",
"360 314 LINE",
"470 698 LINE",
"580 698 LINE",
"378 0 LINE"
);
}
);
width = 600;
}
);
unicode = 221A;
},
{
glyphname = integral;
layers = (
{
layerId = "A3FA1D5A-5B70-4048-948C-F73CFEE83353";
name = Bold;
paths = (
{
closed = 1;
nodes = (
"40 -98 LINE",
"157 -98 LINE",
"157 599 LINE SMOOTH",
"157 682 OFFCURVE",
"202 740 OFFCURVE",
"301 740 CURVE SMOOTH",
"402 740 LINE",
"402 638 LINE",
"285 638 LINE",
"285 -59 LINE SMOOTH",
"285 -142 OFFCURVE",
"238 -200 OFFCURVE",
"141 -200 CURVE SMOOTH",
"40 -200 LINE"
);
}
);
width = 442;
}
);
unicode = 222B;
},
{
glyphname = infinity;
layers = (
{
layerId = "A3FA1D5A-5B70-4048-948C-F73CFEE83353";
name = Bold;
paths = (
{
closed = 1;
nodes = (
"93 94 OFFCURVE",
"20 171 OFFCURVE",
"20 294 CURVE SMOOTH",
"20 418 OFFCURVE",
"93 495 OFFCURVE",
"214 495 CURVE SMOOTH",
"309 495 OFFCURVE",
"375 457 OFFCURVE",
"408 358 CURVE",
"414 358 LINE",
"418 401 OFFCURVE",
"438 435 OFFCURVE",
"466 459 CURVE SMOOTH",
"493 482 OFFCURVE",
"527 495 OFFCURVE",
"562 495 CURVE SMOOTH",
"683 495 OFFCURVE",
"756 418 OFFCURVE",
"756 294 CURVE SMOOTH",
"756 171 OFFCURVE",
"683 94 OFFCURVE",
"562 94 CURVE SMOOTH",
"467 94 OFFCURVE",
"401 132 OFFCURVE",
"369 231 CURVE",
"363 231 LINE",
"358 188 OFFCURVE",
"338 154 OFFCURVE",
"311 131 CURVE SMOOTH",
"283 107 OFFCURVE",
"249 94 OFFCURVE",
"214 94 CURVE SMOOTH"
);
},
{
closed = 1;
nodes = (
"274 194 OFFCURVE",
"318 230 OFFCURVE",
"337 286 CURVE",
"316 350 OFFCURVE",
"274 395 OFFCURVE",
"214 395 CURVE SMOOTH",
"166 395 OFFCURVE",
"135 364 OFFCURVE",
"135 308 CURVE SMOOTH",
"135 281 LINE SMOOTH",
"135 225 OFFCURVE",
"166 194 OFFCURVE",
"214 194 CURVE SMOOTH"
);
},
{
closed = 1;
nodes = (
"611 194 OFFCURVE",
"641 225 OFFCURVE",
"641 281 CURVE SMOOTH",
"641 308 LINE SMOOTH",
"641 364 OFFCURVE",
"611 395 OFFCURVE",
"562 395 CURVE SMOOTH",
"502 395 OFFCURVE",
"457 358 OFFCURVE",
"440 303 CURVE",
"461 239 OFFCURVE",
"502 194 OFFCURVE",
"562 194 CURVE SMOOTH"
);
}
);
width = 776;
}
);
unicode = 221E;
},
{
glyphname = uni212E;
layers = (
{
layerId = "A3FA1D5A-5B70-4048-948C-F73CFEE83353";
name = Bold;
paths = (
{
closed = 1;
nodes = (
"204 94 LINE",
"243 65 OFFCURVE",
"294 46 OFFCURVE",
"359 46 CURVE SMOOTH",
"479 46 OFFCURVE",
"555 106 OFFCURVE",
"603 195 CURVE",
"655 165 LINE",
"628 114 OFFCURVE",
"591 70 OFFCURVE",
"541 39 CURVE SMOOTH",
"491 7 OFFCURVE",
"430 -12 OFFCURVE",
"359 -12 CURVE SMOOTH",
"264 -12 OFFCURVE",
"184 23 OFFCURVE",
"125 86 CURVE SMOOTH",
"66 149 OFFCURVE",
"32 238 OFFCURVE",
"32 349 CURVE SMOOTH",
"32 458 OFFCURVE",
"66 549 OFFCURVE",
"125 612 CURVE SMOOTH",
"184 675 OFFCURVE",
"264 710 OFFCURVE",
"359 710 CURVE SMOOTH",
"452 710 OFFCURVE",
"534 675 OFFCURVE",
"593 612 CURVE SMOOTH",
"652 549 OFFCURVE",
"686 458 OFFCURVE",
"686 349 CURVE",
"204 349 LINE"
);
},
{
closed = 1;
nodes = (
"514 404 LINE",
"514 607 LINE",
"474 635 OFFCURVE",
"423 655 OFFCURVE",
"359 655 CURVE SMOOTH",
"294 655 OFFCURVE",
"243 635 OFFCURVE",
"204 607 CURVE",
"204 404 LINE"
);
}
);
width = 718;
}
);
unicode = 212E;
},
{
glyphname = uni2113;
layers = (
{
layerId = "A3FA1D5A-5B70-4048-948C-F73CFEE83353";
name = Bold;
paths = (
{
closed = 1;
nodes = (
"250 -12 OFFCURVE",
"204 5 OFFCURVE",
"172 34 CURVE SMOOTH",
"140 63 OFFCURVE",
"121 107 OFFCURVE",
"121 159 CURVE SMOOTH",
"121 164 LINE",
"120 163 OFFCURVE",
"117 161 OFFCURVE",
"113 158 CURVE",
"104 153 OFFCURVE",
"93 146 OFFCURVE",
"85 140 CURVE",
"80 137 OFFCURVE",
"77 135 OFFCURVE",
"76 134 CURVE",
"21 222 LINE",
"56 242 OFFCURVE",
"93 268 OFFCURVE",
"116 285 CURVE",
"116 550 LINE SMOOTH",
"116 623 OFFCURVE",
"134 674 OFFCURVE",
"165 706 CURVE SMOOTH",
"196 738 OFFCURVE",
"237 752 OFFCURVE",
"285 752 CURVE SMOOTH",
"394 752 OFFCURVE",
"454 684 OFFCURVE",
"454 568 CURVE SMOOTH",
"454 504 OFFCURVE",
"436 449 OFFCURVE",
"400 394 CURVE SMOOTH",
"364 338 OFFCURVE",
"309 285 OFFCURVE",
"237 226 CURVE",
"237 184 LINE SMOOTH",
"237 123 OFFCURVE",
"262 99 OFFCURVE",
"302 99 CURVE SMOOTH",
"347 99 OFFCURVE",
"373 127 OFFCURVE",
"409 202 CURVE",
"510 149 LINE",
"474 54 OFFCURVE",
"407 -12 OFFCURVE",
"302 -12 CURVE SMOOTH"
);
},
{
closed = 1;
nodes = (
"262 640 OFFCURVE",
"237 619 OFFCURVE",
"237 555 CURVE SMOOTH",
"237 357 LINE",
"297 416 OFFCURVE",
"337 479 OFFCURVE",
"337 556 CURVE SMOOTH",
"337 568 LINE SMOOTH",
"337 619 OFFCURVE",
"317 640 OFFCURVE",
"289 640 CURVE SMOOTH"
);
}
);
width = 534;
}
);
unicode = 2113;
},
{
glyphname = uni2116;
layers = (
{
layerId = "A3FA1D5A-5B70-4048-948C-F73CFEE83353";
name = Bold;
paths = (
{
closed = 1;
nodes = (
"746 360 OFFCURVE",
"683 423 OFFCURVE",
"683 535 CURVE SMOOTH",
"683 647 OFFCURVE",
"746 710 OFFCURVE",
"847 710 CURVE SMOOTH",
"948 710 OFFCURVE",
"1011 647 OFFCURVE",
"1011 535 CURVE SMOOTH",
"1011 423 OFFCURVE",
"948 360 OFFCURVE",
"847 360 CURVE SMOOTH"
);
},
{
closed = 1;
nodes = (
"82 0 LINE",
"82 698 LINE",
"226 698 LINE",
"408 353 LINE",
"484 194 LINE",
"487 194 LINE",
"487 698 LINE",
"611 698 LINE",
"611 0 LINE",
"466 0 LINE",
"280 349 LINE",
"209 502 LINE",
"206 502 LINE",
"206 0 LINE"
);
},
{
closed = 1;
nodes = (
"890 431 OFFCURVE",
"916 461 OFFCURVE",
"916 508 CURVE SMOOTH",
"916 562 LINE SMOOTH",
"916 609 OFFCURVE",
"890 639 OFFCURVE",
"847 639 CURVE SMOOTH",
"804 639 OFFCURVE",
"778 609 OFFCURVE",
"778 562 CURVE SMOOTH",
"778 508 LINE SMOOTH",
"778 461 OFFCURVE",
"804 431 OFFCURVE",
"847 431 CURVE SMOOTH"
);
},
{
closed = 1;
nodes = (
"694 225 LINE",
"694 301 LINE",
"999 301 LINE",
"999 225 LINE"
);
}
);
width = 1050;
}
);
unicode = 2116;
},
{
glyphname = partialdiff;
layers = (
{
layerId = "A3FA1D5A-5B70-4048-948C-F73CFEE83353";
name = Bold;
paths = (
{
closed = 1;
nodes = (
"541 176 OFFCURVE",
"516 105 OFFCURVE",
"473 58 CURVE SMOOTH",
"430 10 OFFCURVE",
"368 -12 OFFCURVE",
"295 -12 CURVE SMOOTH",
"216 -12 OFFCURVE",
"155 14 OFFCURVE",
"112 59 CURVE SMOOTH",
"68 104 OFFCURVE",
"45 171 OFFCURVE",
"45 252 CURVE SMOOTH",
"45 328 OFFCURVE",
"65 391 OFFCURVE",
"101 435 CURVE SMOOTH",
"136 479 OFFCURVE",
"187 504 OFFCURVE",
"248 504 CURVE SMOOTH",
"316 504 OFFCURVE",
"362 471 OFFCURVE",
"393 419 CURVE",
"401 422 LINE",
"365 526 OFFCURVE",
"257 614 OFFCURVE",
"104 698 CURVE",
"294 698 LINE",
"351 663 OFFCURVE",
"413 613 OFFCURVE",
"461 544 CURVE SMOOTH",
"508 475 OFFCURVE",
"541 386 OFFCURVE",
"541 273 CURVE SMOOTH"
);
},
{
closed = 1;
nodes = (
"365 86 OFFCURVE",
"408 131 OFFCURVE",
"408 215 CURVE SMOOTH",
"408 275 LINE SMOOTH",
"408 359 OFFCURVE",
"365 405 OFFCURVE",
"293 405 CURVE SMOOTH",
"221 405 OFFCURVE",
"178 359 OFFCURVE",
"178 275 CURVE SMOOTH",
"178 215 LINE SMOOTH",
"178 131 OFFCURVE",
"221 86 OFFCURVE",
"293 86 CURVE SMOOTH"
);
}
);
width = 588;
}
);
unicode = 2202;
},
{
glyphname = cent;
layers = (
{
layerId = "A3FA1D5A-5B70-4048-948C-F73CFEE83353";
name = Bold;
paths = (
{
closed = 1;
nodes = (
"236 -114 LINE",
"236 -8 LINE",
"113 15 OFFCURVE",
"43 111 OFFCURVE",
"43 258 CURVE SMOOTH",
"43 405 OFFCURVE",
"115 501 OFFCURVE",
"236 524 CURVE",
"236 630 LINE",
"335 630 LINE",
"335 525 LINE",
"416 514 OFFCURVE",
"468 468 OFFCURVE",
"496 404 CURVE",
"403 353 LINE",
"388 388 OFFCURVE",
"364 413 OFFCURVE",
"328 424 CURVE",
"328 91 LINE",
"367 102 OFFCURVE",
"394 129 OFFCURVE",
"413 166 CURVE",
"504 113 LINE",
"473 48 OFFCURVE",
"419 2 OFFCURVE",
"335 -9 CURVE",
"335 -114 LINE"
);
},
{
closed = 1;
nodes = (
"168 215 LINE SMOOTH",
"168 155 OFFCURVE",
"193 110 OFFCURVE",
"244 93 CURVE",
"244 423 LINE",
"193 407 OFFCURVE",
"168 361 OFFCURVE",
"168 301 CURVE SMOOTH"
);
}
);
width = 541;
}
);
unicode = 00A2;
},
{
glyphname = Euro;
layers = (
{
layerId = "A3FA1D5A-5B70-4048-948C-F73CFEE83353";
name = Bold;
paths = (
{
closed = 1;
nodes = (
"260 -12 OFFCURVE",
"186 21 OFFCURVE",
"134 83 CURVE SMOOTH",
"82 145 OFFCURVE",
"52 234 OFFCURVE",
"52 349 CURVE SMOOTH",
"52 464 OFFCURVE",
"82 554 OFFCURVE",
"134 616 CURVE SMOOTH",
"186 678 OFFCURVE",
"260 710 OFFCURVE",
"351 710 CURVE SMOOTH",
"415 710 OFFCURVE",
"463 695 OFFCURVE",
"500 672 CURVE SMOOTH",
"536 648 OFFCURVE",
"563 616 OFFCURVE",
"584 580 CURVE",
"488 513 LINE",
"460 570 OFFCURVE",
"418 603 OFFCURVE",
"351 603 CURVE SMOOTH",
"274 603 OFFCURVE",
"217 553 OFFCURVE",
"198 472 CURVE",
"436 472 LINE",
"436 389 LINE",
"191 389 LINE",
"191 309 LINE",
"435 309 LINE",
"435 226 LINE",
"198 226 LINE",
"217 142 OFFCURVE",
"272 95 OFFCURVE",
"351 95 CURVE SMOOTH",
"419 95 OFFCURVE",
"465 129 OFFCURVE",
"497 193 CURVE",
"593 123 LINE",
"573 88 OFFCURVE",
"546 54 OFFCURVE",
"507 29 CURVE SMOOTH",
"467 4 OFFCURVE",
"416 -12 OFFCURVE",
"351 -12 CURVE SMOOTH"
);
}
);
width = 627;
}
);
unicode = 20AC;
},
{
glyphname = florin;
layers = (
{
layerId = "A3FA1D5A-5B70-4048-948C-F73CFEE83353";
name = Bold;
paths = (
{
closed = 1;
nodes = (
"13 -32 LINE",
"137 -32 LINE",
"168 266 LINE",
"51 266 LINE",
"62 372 LINE",
"178 372 LINE",
"197 556 LINE SMOOTH",
"205 640 OFFCURVE",
"257 698 OFFCURVE",
"356 698 CURVE SMOOTH",
"469 698 LINE",
"458 596 LINE",
"329 596 LINE",
"306 372 LINE",
"444 372 LINE",
"435 266 LINE",
"295 266 LINE",
"269 7 LINE SMOOTH",
"260 -76 OFFCURVE",
"209 -134 OFFCURVE",
"110 -134 CURVE SMOOTH",
"3 -134 LINE"
);
}
);
width = 484;
}
);
unicode = 0192;
},
{
glyphname = sterling;
layers = (
{
layerId = "A3FA1D5A-5B70-4048-948C-F73CFEE83353";
name = Bold;
paths = (
{
closed = 1;
nodes = (
"71 0 LINE",
"71 125 LINE",
"123 149 OFFCURVE",
"150 195 OFFCURVE",
"150 252 CURVE SMOOTH",
"150 266 OFFCURVE",
"149 279 OFFCURVE",
"146 290 CURVE",
"42 290 LINE",
"42 395 LINE",
"109 395 LINE",
"98 428 OFFCURVE",
"87 462 OFFCURVE",
"87 503 CURVE SMOOTH",
"87 564 OFFCURVE",
"111 617 OFFCURVE",
"153 653 CURVE SMOOTH",
"195 689 OFFCURVE",
"256 710 OFFCURVE",
"331 710 CURVE SMOOTH",
"439 710 OFFCURVE",
"510 668 OFFCURVE",
"561 591 CURVE",
"465 523 LINE",
"429 574 OFFCURVE",
"389 596 OFFCURVE",
"333 596 CURVE SMOOTH",
"261 596 OFFCURVE",
"221 556 OFFCURVE",
"221 484 CURVE SMOOTH",
"221 451 OFFCURVE",
"228 423 OFFCURVE",
"239 395 CURVE",
"441 395 LINE",
"441 290 LINE",
"277 290 LINE",
"278 279 OFFCURVE",
"279 269 OFFCURVE",
"279 258 CURVE SMOOTH",
"279 187 OFFCURVE",
"239 141 OFFCURVE",
"203 120 CURVE",
"203 112 LINE",
"545 112 LINE",
"545 0 LINE"
);
}
);
width = 586;
}
);
unicode = 00A3;
},
{
glyphname = dollar;
layers = (
{
layerId = "A3FA1D5A-5B70-4048-948C-F73CFEE83353";
name = Bold;
paths = (
{
closed = 1;
nodes = (
"256 -82 LINE",
"256 7 LINE",
"155 15 OFFCURVE",
"89 57 OFFCURVE",
"38 116 CURVE",
"119 190 LINE",
"158 145 OFFCURVE",
"205 115 OFFCURVE",
"265 107 CURVE",
"265 310 LINE",
"118 341 OFFCURVE",
"58 403 OFFCURVE",
"58 502 CURVE SMOOTH",
"58 609 OFFCURVE",
"131 675 OFFCURVE",
"256 690 CURVE",
"256 780 LINE",
"355 780 LINE",
"355 690 LINE",
"439 681 OFFCURVE",
"498 649 OFFCURVE",
"543 593 CURVE",
"461 522 LINE",
"434 554 OFFCURVE",
"399 579 OFFCURVE",
"346 590 CURVE",
"346 404 LINE",
"489 371 OFFCURVE",
"553 316 OFFCURVE",
"553 212 CURVE SMOOTH",
"553 109 OFFCURVE",
"486 29 OFFCURVE",
"355 10 CURVE",
"355 -82 LINE"
);
},
{
closed = 1;
nodes = (
"179 460 OFFCURVE",
"205 438 OFFCURVE",
"265 422 CURVE",
"265 591 LINE",
"208 581 OFFCURVE",
"179 553 OFFCURVE",
"179 507 CURVE SMOOTH"
);
},
{
closed = 1;
nodes = (
"433 243 OFFCURVE",
"413 273 OFFCURVE",
"346 292 CURVE",
"346 108 LINE",
"402 120 OFFCURVE",
"433 156 OFFCURVE",
"433 203 CURVE SMOOTH"
);
}
);
width = 600;
}
);
unicode = 0024;
},
{
glyphname = yen;
layers = (
{
layerId = "A3FA1D5A-5B70-4048-948C-F73CFEE83353";
name = Bold;
paths = (
{
closed = 1;
nodes = (
"361 137 LINE",
"361 0 LINE",
"228 0 LINE",
"228 137 LINE",
"58 137 LINE",
"58 220 LINE",
"228 220 LINE",
"228 296 LINE",
"58 296 LINE",
"58 379 LINE",
"176 379 LINE",
"1 698 LINE",
"150 698 LINE",
"299 411 LINE",
"302 411 LINE",
"449 698 LINE",
"591 698 LINE",
"413 379 LINE",
"531 379 LINE",
"531 296 LINE",
"361 296 LINE",
"361 220 LINE",
"531 220 LINE",
"531 137 LINE"
);
}
);
width = 615;
}
);
unicode = 00A5;
},
{
glyphname = uni0E3F;
layers = (
{
layerId = "A3FA1D5A-5B70-4048-948C-F73CFEE83353";
name = Bold;
paths = (
{
closed = 1;
nodes = (
"378 -88 LINE",
"278 -88 LINE",
"278 20 LINE",
"82 20 LINE",
"82 678 LINE",
"278 678 LINE",
"278 780 LINE",
"378 780 LINE",
"378 678 LINE",
"410 678 LINE SMOOTH",
"521 678 OFFCURVE",
"587 612 OFFCURVE",
"587 509 CURVE SMOOTH",
"587 417 OFFCURVE",
"542 379 OFFCURVE",
"462 368 CURVE",
"462 362 LINE",
"502 358 OFFCURVE",
"539 347 OFFCURVE",
"567 323 CURVE SMOOTH",
"594 299 OFFCURVE",
"612 262 OFFCURVE",
"612 209 CURVE SMOOTH",
"612 157 OFFCURVE",
"594 110 OFFCURVE",
"563 76 CURVE SMOOTH",
"531 42 OFFCURVE",
"488 20 OFFCURVE",
"439 20 CURVE SMOOTH",
"378 20 LINE"
);
},
{
closed = 1;
nodes = (
"285 404 LINE",
"285 571 LINE",
"207 571 LINE",
"207 404 LINE"
);
},
{
closed = 1;
nodes = (
"372 404 LINE",
"386 404 LINE SMOOTH",
"433 404 OFFCURVE",
"457 427 OFFCURVE",
"457 472 CURVE SMOOTH",
"457 502 LINE SMOOTH",
"457 548 OFFCURVE",
"433 571 OFFCURVE",
"386 571 CURVE SMOOTH",
"372 571 LINE"
);
},
{
closed = 1;
nodes = (
"285 127 LINE",
"285 301 LINE",
"207 301 LINE",
"207 127 LINE"
);
},
{
closed = 1;
nodes = (
"372 127 LINE",
"404 127 LINE SMOOTH",
"452 127 OFFCURVE",
"482 151 OFFCURVE",
"482 198 CURVE SMOOTH",
"482 231 LINE SMOOTH",
"482 276 OFFCURVE",
"452 301 OFFCURVE",
"404 301 CURVE SMOOTH",
"372 301 LINE"
);
}
);
width = 659;
}
);
unicode = 0E3F;
},
{
glyphname = uni20A1;
layers = (
{
layerId = "A3FA1D5A-5B70-4048-948C-F73CFEE83353";
name = Bold;
paths = (
{
closed = 1;
nodes = (
"321 6 LINE",
"305 7 OFFCURVE",
"291 10 OFFCURVE",
"276 13 CURVE",
"266 -82 LINE",
"197 -82 LINE",
"210 36 LINE",
"113 85 OFFCURVE",
"52 193 OFFCURVE",
"52 349 CURVE SMOOTH",
"52 537 OFFCURVE",
"136 654 OFFCURVE",
"276 685 CURVE",
"286 780 LINE",
"356 780 LINE",
"347 693 LINE",
"356 693 LINE SMOOTH",
"363 693 OFFCURVE",
"369 693 OFFCURVE",
"375 693 CURVE SMOOTH",
"381 693 OFFCURVE",
"387 692 OFFCURVE",
"392 691 CURVE",
"401 780 LINE",
"471 780 LINE",
"460 676 LINE",
"517 656 OFFCURVE",
"554 616 OFFCURVE",
"585 567 CURVE",
"494 503 LINE",
"482 527 OFFCURVE",
"467 547 OFFCURVE",
"446 560 CURVE",
"400 116 LINE",
"442 129 OFFCURVE",
"473 158 OFFCURVE",
"494 202 CURVE",
"586 136 LINE",
"569 105 OFFCURVE",
"545 77 OFFCURVE",
"513 54 CURVE SMOOTH",
"481 31 OFFCURVE",
"439 14 OFFCURVE",
"390 7 CURVE",
"381 -82 LINE",
"311 -82 LINE"
);
},
{
closed = 1;
nodes = (
"335 590 LINE",
"286 120 LINE",
"301 113 OFFCURVE",
"316 110 OFFCURVE",
"333 109 CURVE",
"382 586 LINE",
"371 589 OFFCURVE",
"356 590 OFFCURVE",
"345 590 CURVE SMOOTH"
);
},
{
closed = 1;
nodes = (
"186 292 LINE SMOOTH",
"186 239 OFFCURVE",
"199 197 OFFCURVE",
"225 166 CURVE",
"265 567 LINE",
"216 539 OFFCURVE",
"186 483 OFFCURVE",
"186 407 CURVE SMOOTH"
);
}
);
width = 620;
}
);
unicode = 20A1;
},
{
glyphname = uni20A4;
layers = (
{
layerId = "A3FA1D5A-5B70-4048-948C-F73CFEE83353";
name = Bold;
paths = (
{
closed = 1;
nodes = (
"545 0 LINE",
"71 0 LINE",
"71 122 LINE",
"116 142 OFFCURVE",
"141 185 OFFCURVE",
"148 230 CURVE",
"42 230 LINE",
"42 313 LINE",
"140 313 LINE",
"137 326 OFFCURVE",
"133 338 OFFCURVE",
"128 351 CURVE SMOOTH",
"123 363 OFFCURVE",
"118 375 OFFCURVE",
"113 387 CURVE",
"42 387 LINE",
"42 471 LINE",
"90 471 LINE",
"88 481 OFFCURVE",
"87 492 OFFCURVE",
"87 503 CURVE SMOOTH",
"87 564 OFFCURVE",
"111 617 OFFCURVE",
"153 653 CURVE SMOOTH",
"195 689 OFFCURVE",
"256 710 OFFCURVE",
"331 710 CURVE SMOOTH",
"439 710 OFFCURVE",
"510 668 OFFCURVE",
"561 591 CURVE",
"465 526 LINE",
"429 577 OFFCURVE",
"389 599 OFFCURVE",
"333 599 CURVE SMOOTH",
"261 599 OFFCURVE",
"221 556 OFFCURVE",
"221 484 CURVE SMOOTH",
"221 471 LINE",
"427 471 LINE",
"427 387 LINE",
"243 387 LINE",
"254 363 OFFCURVE",
"264 340 OFFCURVE",
"271 313 CURVE",
"427 313 LINE",
"427 230 LINE",
"276 230 LINE",
"268 174 OFFCURVE",
"234 136 OFFCURVE",
"203 117 CURVE",
"203 109 LINE",
"545 109 LINE"
);
}
);
width = 586;
}
);
unicode = 20A4;
},
{
glyphname = uni20A6;
layers = (
{
layerId = "A3FA1D5A-5B70-4048-948C-F73CFEE83353";
name = Bold;
paths = (
{
closed = 1;
nodes = (
"375 231 LINE",
"220 231 LINE",
"220 0 LINE",
"102 0 LINE",
"102 230 LINE",
"16 230 LINE",
"16 313 LINE",
"102 313 LINE",
"102 389 LINE",
"16 389 LINE",
"16 472 LINE",
"102 472 LINE",
"102 698 LINE",
"253 698 LINE",
"373 472 LINE",
"533 472 LINE",
"533 698 LINE",
"650 698 LINE",
"650 472 LINE",
"736 472 LINE",
"736 389 LINE",
"650 389 LINE",
"650 313 LINE",
"736 313 LINE",
"736 230 LINE",
"650 230 LINE",
"650 0 LINE",
"497 0 LINE"
);
},
{
closed = 1;
nodes = (
"336 309 LINE",
"223 530 LINE",
"220 530 LINE",
"220 309 LINE"
);
},
{
closed = 1;
nodes = (
"530 165 LINE",
"533 165 LINE",
"533 393 LINE",
"413 393 LINE"
);
}
);
width = 752;
}
);
unicode = 20A6;
},
{
glyphname = uni20A8;
layers = (
{
layerId = "A3FA1D5A-5B70-4048-948C-F73CFEE83353";
name = Bold;
paths = (
{
closed = 1;
nodes = (
"82 0 LINE",
"82 698 LINE",
"299 698 LINE SMOOTH",
"426 698 OFFCURVE",
"501 625 OFFCURVE",
"501 498 CURVE SMOOTH",
"501 421 OFFCURVE",
"472 360 OFFCURVE",
"417 325 CURVE",
"492 176 LINE SMOOTH",
"523 116 OFFCURVE",
"557 89 OFFCURVE",
"604 89 CURVE SMOOTH",
"647 89 OFFCURVE",
"671 109 OFFCURVE",
"671 137 CURVE SMOOTH",
"671 164 OFFCURVE",
"662 179 OFFCURVE",
"627 211 CURVE SMOOTH",
"608 228 LINE SMOOTH",
"553 279 OFFCURVE",
"528 319 OFFCURVE",
"528 375 CURVE SMOOTH",
"528 463 OFFCURVE",
"593 519 OFFCURVE",
"690 519 CURVE SMOOTH",
"730 519 OFFCURVE",
"773 512 OFFCURVE",
"808 489 CURVE",
"765 404 LINE",
"746 417 OFFCURVE",
"726 423 OFFCURVE",
"703 423 CURVE SMOOTH",
"672 423 OFFCURVE",
"649 410 OFFCURVE",
"649 379 CURVE SMOOTH",
"649 351 OFFCURVE",
"668 334 OFFCURVE",
"701 303 CURVE SMOOTH",
"719 287 LINE",
"747 260 OFFCURVE",
"766 239 OFFCURVE",
"779 217 CURVE SMOOTH",
"791 195 OFFCURVE",
"797 170 OFFCURVE",
"797 141 CURVE SMOOTH",
"797 98 OFFCURVE",
"782 60 OFFCURVE",
"750 33 CURVE SMOOTH",
"717 5 OFFCURVE",
"666 -12 OFFCURVE",
"593 -12 CURVE SMOOTH",
"493 -12 OFFCURVE",
"425 21 OFFCURVE",
"382 112 CURVE SMOOTH",
"299 287 LINE",
"212 287 LINE",
"212 0 LINE"
);
},
{
closed = 1;
nodes = (
"283 395 LINE SMOOTH",
"335 395 OFFCURVE",
"366 419 OFFCURVE",
"366 470 CURVE SMOOTH",
"366 514 LINE SMOOTH",
"366 565 OFFCURVE",
"335 590 OFFCURVE",
"283 590 CURVE SMOOTH",
"212 590 LINE",
"212 395 LINE"
);
}
);
width = 840;
}
);
unicode = 20A8;
},
{
glyphname = uni20A9;
layers = (
{
layerId = "A3FA1D5A-5B70-4048-948C-F73CFEE83353";
name = Bold;
paths = (
{
closed = 1;
nodes = (
"578 231 LINE",
"420 231 LINE",
"363 0 LINE",
"214 0 LINE",
"160 230 LINE",
"38 230 LINE",
"38 313 LINE",
"141 313 LINE",
"124 389 LINE",
"38 389 LINE",
"38 472 LINE",
"104 472 LINE",
"52 698 LINE",
"182 698 LINE",
"229 472 LINE",
"375 472 LINE",
"430 698 LINE",
"575 698 LINE",
"630 472 LINE",
"777 472 LINE",
"825 698 LINE",
"951 698 LINE",
"897 472 LINE",
"964 472 LINE",
"964 389 LINE",
"877 389 LINE",
"859 313 LINE",
"964 313 LINE",
"964 230 LINE",
"839 230 LINE",
"783 0 LINE",
"634 0 LINE"
);
},
{
closed = 1;
nodes = (
"348 359 LINE",
"356 393 LINE",
"245 393 LINE",
"251 358 LINE",
"295 146 LINE",
"298 146 LINE"
);
},
{
closed = 1;
nodes = (
"709 146 LINE",
"753 357 LINE",
"761 393 LINE",
"648 393 LINE",
"656 361 LINE",
"706 146 LINE"
);
},
{
closed = 1;
nodes = (
"439 310 LINE",
"559 310 LINE",
"549 352 LINE",
"501 556 LINE",
"498 556 LINE",
"449 352 LINE"
);
}
);
width = 1002;
}
);
unicode = 20A9;
},
{
glyphname = uni20AA;
layers = (
{
layerId = "A3FA1D5A-5B70-4048-948C-F73CFEE83353";
name = Bold;
paths = (
{
closed = 1;
nodes = (
"279 515 LINE",
"397 515 LINE",
"397 107 LINE",
"594 107 LINE SMOOTH",
"642 107 OFFCURVE",
"672 137 OFFCURVE",
"672 194 CURVE SMOOTH",
"672 698 LINE",
"791 698 LINE",
"791 198 LINE SMOOTH",
"791 65 OFFCURVE",
"716 0 OFFCURVE",
"608 0 CURVE SMOOTH",
"279 0 LINE"
);
},
{
closed = 1;
nodes = (
"82 0 LINE",
"82 698 LINE",
"412 698 LINE SMOOTH",
"520 698 OFFCURVE",
"594 633 OFFCURVE",
"594 500 CURVE SMOOTH",
"594 181 LINE",
"476 181 LINE",
"476 504 LINE SMOOTH",
"476 562 OFFCURVE",
"450 591 OFFCURVE",
"397 591 CURVE SMOOTH",
"200 591 LINE",
"200 0 LINE"
);
}
);
width = 873;
}
);
unicode = 20AA;
},
{
glyphname = uni20AB;
layers = (
{
layerId = "A3FA1D5A-5B70-4048-948C-F73CFEE83353";
name = Bold;
paths = (
{
closed = 1;
nodes = (
"354 229 LINE",
"349 229 LINE",
"325 184 OFFCURVE",
"287 149 OFFCURVE",
"212 149 CURVE SMOOTH",
"113 149 OFFCURVE",
"46 213 OFFCURVE",
"46 348 CURVE SMOOTH",
"46 483 OFFCURVE",
"113 547 OFFCURVE",
"212 547 CURVE SMOOTH",
"287 547 OFFCURVE",
"325 513 OFFCURVE",
"349 466 CURVE",
"354 466 LINE",
"354 601 LINE",
"224 601 LINE",
"224 682 LINE",
"354 682 LINE",
"354 740 LINE",
"481 740 LINE",
"481 682 LINE",
"542 682 LINE",
"542 601 LINE",
"481 601 LINE",
"481 158 LINE",
"354 158 LINE"
);
},
{
closed = 1;
nodes = (
"320 242 OFFCURVE",
"354 271 OFFCURVE",
"354 308 CURVE SMOOTH",
"354 389 LINE SMOOTH",
"354 425 OFFCURVE",
"320 455 OFFCURVE",
"264 455 CURVE SMOOTH",
"204 455 OFFCURVE",
"172 421 OFFCURVE",
"172 370 CURVE SMOOTH",
"172 327 LINE SMOOTH",
"172 276 OFFCURVE",
"204 242 OFFCURVE",
"264 242 CURVE SMOOTH"
);
},
{
closed = 1;
nodes = (
"58 0 LINE",
"58 94 LINE",
"502 94 LINE",
"502 0 LINE"
);
}
);
width = 577;
}
);
unicode = 20AB;
},
{
glyphname = uni20AD;
layers = (
{
layerId = "A3FA1D5A-5B70-4048-948C-F73CFEE83353";
name = Bold;
paths = (
{
closed = 1;
nodes = (
"226 0 LINE",
"95 0 LINE",
"95 302 LINE",
"7 302 LINE",
"7 407 LINE",
"95 407 LINE",
"95 698 LINE",
"226 698 LINE",
"226 407 LINE",
"277 407 LINE",
"475 698 LINE",
"624 698 LINE",
"414 407 LINE",
"605 407 LINE",
"605 302 LINE",
"425 302 LINE",
"648 0 LINE",
"491 0 LINE",
"279 302 LINE",
"226 302 LINE"
);
}
);
width = 664;
}
);
unicode = 20AD;
},
{
glyphname = uni20AE;
layers = (
{
layerId = "A3FA1D5A-5B70-4048-948C-F73CFEE83353";
name = Bold;
paths = (
{
closed = 1;
nodes = (
"368 211 LINE",
"368 0 LINE",
"236 0 LINE",
"236 148 LINE",
"112 89 LINE",
"112 173 LINE",
"236 232 LINE",
"236 306 LINE",
"112 247 LINE",
"112 330 LINE",
"236 389 LINE",
"236 589 LINE",
"38 589 LINE",
"38 698 LINE",
"566 698 LINE",
"566 589 LINE",
"368 589 LINE",
"368 452 LINE",
"492 512 LINE",
"492 428 LINE",
"368 369 LINE",
"368 294 LINE",
"492 354 LINE",
"492 270 LINE"
);
}
);
width = 604;
}
);
unicode = 20AE;
},
{
glyphname = uni20B1;
layers = (
{
layerId = "A3FA1D5A-5B70-4048-948C-F73CFEE83353";
name = Bold;
paths = (
{
closed = 1;
nodes = (
"238 0 LINE",
"106 0 LINE",
"106 317 LINE",
"20 317 LINE",
"20 393 LINE",
"106 393 LINE",
"106 470 LINE",
"20 470 LINE",
"20 546 LINE",
"106 546 LINE",
"106 698 LINE",
"373 698 LINE SMOOTH",
"474 698 OFFCURVE",
"539 653 OFFCURVE",
"564 546 CURVE",
"661 546 LINE",
"661 470 LINE",
"574 470 LINE",
"575 464 OFFCURVE",
"575 458 OFFCURVE",
"575 452 CURVE SMOOTH",
"575 446 OFFCURVE",
"575 440 OFFCURVE",
"575 433 CURVE SMOOTH",
"575 426 OFFCURVE",
"575 419 OFFCURVE",
"575 413 CURVE SMOOTH",
"575 406 OFFCURVE",
"575 400 OFFCURVE",
"574 393 CURVE",
"661 393 LINE",
"661 317 LINE",
"562 317 LINE",
"535 216 OFFCURVE",
"472 164 OFFCURVE",
"373 164 CURVE SMOOTH",
"238 164 LINE"
);
},
{
closed = 1;
nodes = (
"238 541 LINE",
"440 541 LINE",
"431 580 OFFCURVE",
"403 605 OFFCURVE",
"360 605 CURVE SMOOTH",
"238 605 LINE"
);
},
{
closed = 1;
nodes = (
"444 390 LINE",
"444 473 LINE",
"238 473 LINE",
"238 390 LINE"
);
},
{
closed = 1;
nodes = (
"360 255 LINE SMOOTH",
"403 255 OFFCURVE",
"432 281 OFFCURVE",
"440 322 CURVE",
"238 322 LINE",
"238 255 LINE"
);
}
);
width = 677;
}
);
unicode = 20B1;
},
{
glyphname = uni20B2;
layers = (
{
layerId = "A3FA1D5A-5B70-4048-948C-F73CFEE83353";
name = Bold;
paths = (
{
closed = 1;
nodes = (
"204 -82 LINE",
"224 26 LINE",
"120 69 OFFCURVE",
"52 177 OFFCURVE",
"52 349 CURVE SMOOTH",
"52 458 OFFCURVE",
"81 544 OFFCURVE",
"131 602 CURVE SMOOTH",
"181 660 OFFCURVE",
"252 690 OFFCURVE",
"339 693 CURVE",
"354 780 LINE",
"456 780 LINE",
"439 680 LINE",
"512 659 OFFCURVE",
"565 612 OFFCURVE",
"599 540 CURVE",
"496 490 LINE",
"481 530 OFFCURVE",
"454 562 OFFCURVE",
"413 578 CURVE",
"379 379 LINE",
"612 379 LINE",
"612 253 LINE SMOOTH",
"612 161 OFFCURVE",
"572 99 OFFCURVE",
"517 60 CURVE SMOOTH",
"461 20 OFFCURVE",
"391 5 OFFCURVE",
"334 5 CURVE SMOOTH",
"322 5 LINE",
"306 -82 LINE"
);
},
{
closed = 1;
nodes = (
"186 296 LINE SMOOTH",
"186 219 OFFCURVE",
"210 167 OFFCURVE",
"249 138 CURVE",
"328 589 LINE",
"240 581 OFFCURVE",
"186 511 OFFCURVE",
"186 403 CURVE SMOOTH"
);
},
{
closed = 1;
nodes = (
"360 275 LINE",
"332 109 LINE",
"335 108 OFFCURVE",
"339 108 OFFCURVE",
"346 108 CURVE SMOOTH",
"387 108 OFFCURVE",
"424 119 OFFCURVE",
"450 142 CURVE SMOOTH",
"476 165 OFFCURVE",
"491 199 OFFCURVE",
"491 244 CURVE SMOOTH",
"491 275 LINE"
);
}
);
width = 670;
}
);
unicode = 20B2;
},
{
glyphname = uni20B4;
layers = (
{
layerId = "A3FA1D5A-5B70-4048-948C-F73CFEE83353";
name = Bold;
paths = (
{
closed = 1;
nodes = (
"257 -12 OFFCURVE",
"201 11 OFFCURVE",
"164 48 CURVE SMOOTH",
"127 84 OFFCURVE",
"107 136 OFFCURVE",
"107 192 CURVE SMOOTH",
"107 209 OFFCURVE",
"109 222 OFFCURVE",
"112 234 CURVE",
"40 234 LINE",
"40 317 LINE",
"153 317 LINE",
"293 393 LINE",
"40 393 LINE",
"40 477 LINE",
"404 477 LINE",
"408 487 OFFCURVE",
"410 499 OFFCURVE",
"410 514 CURVE SMOOTH",
"410 577 OFFCURVE",
"374 603 OFFCURVE",
"313 603 CURVE SMOOTH",
"262 603 OFFCURVE",
"220 584 OFFCURVE",
"185 545 CURVE",
"117 626 LINE",
"164 679 OFFCURVE",
"239 710 OFFCURVE",
"320 710 CURVE SMOOTH",
"385 710 OFFCURVE",
"438 689 OFFCURVE",
"474 657 CURVE SMOOTH",
"510 624 OFFCURVE",
"530 578 OFFCURVE",
"530 527 CURVE SMOOTH",
"530 510 OFFCURVE",
"528 493 OFFCURVE",
"524 477 CURVE",
"599 477 LINE",
"599 393 LINE",
"478 393 LINE",
"341 317 LINE",
"599 317 LINE",
"599 234 LINE",
"233 234 LINE",
"229 223 OFFCURVE",
"227 210 OFFCURVE",
"227 197 CURVE SMOOTH",
"227 128 OFFCURVE",
"267 93 OFFCURVE",
"335 93 CURVE SMOOTH",
"384 93 OFFCURVE",
"426 113 OFFCURVE",
"477 166 CURVE",
"546 84 LINE",
"497 27 OFFCURVE",
"422 -12 OFFCURVE",
"329 -12 CURVE SMOOTH"
);
}
);
width = 639;
}
);
unicode = 20B4;
},
{
glyphname = uni20B5;
layers = (
{
layerId = "A3FA1D5A-5B70-4048-948C-F73CFEE83353";
name = Bold;
paths = (
{
closed = 1;
nodes = (
"205 -82 LINE",
"225 29 LINE",
"118 76 OFFCURVE",
"52 185 OFFCURVE",
"52 349 CURVE SMOOTH",
"52 457 OFFCURVE",
"81 542 OFFCURVE",
"132 600 CURVE SMOOTH",
"183 658 OFFCURVE",
"255 690 OFFCURVE",
"340 693 CURVE",
"355 780 LINE",
"457 780 LINE",
"440 681 LINE",
"505 662 OFFCURVE",
"547 620 OFFCURVE",
"578 568 CURVE",
"485 504 LINE",
"469 537 OFFCURVE",
"446 561 OFFCURVE",
"415 576 CURVE",
"333 110 LINE",
"336 109 OFFCURVE",
"341 109 OFFCURVE",
"348 109 CURVE SMOOTH",
"411 109 OFFCURVE",
"458 142 OFFCURVE",
"486 202 CURVE",
"579 136 LINE",
"560 103 OFFCURVE",
"533 70 OFFCURVE",
"496 46 CURVE SMOOTH",
"459 21 OFFCURVE",
"409 5 OFFCURVE",
"348 5 CURVE SMOOTH",
"343 5 OFFCURVE",
"339 5 OFFCURVE",
"335 5 CURVE SMOOTH",
"331 5 OFFCURVE",
"327 5 OFFCURVE",
"322 6 CURVE",
"307 -82 LINE"
);
},
{
closed = 1;
nodes = (
"186 292 LINE SMOOTH",
"186 224 OFFCURVE",
"210 172 OFFCURVE",
"250 141 CURVE",
"329 590 LINE",
"245 581 OFFCURVE",
"186 512 OFFCURVE",
"186 407 CURVE SMOOTH"
);
}
);
width = 613;
}
);
unicode = 20B5;
},
{
glyphname = uni20B8;
layers = (
{
layerId = "A3FA1D5A-5B70-4048-948C-F73CFEE83353";
name = Bold;
paths = (
{
closed = 1;
nodes = (
"38 603 LINE",
"38 698 LINE",
"566 698 LINE",
"566 603 LINE"
);
},
{
closed = 1;
nodes = (
"368 424 LINE",
"368 0 LINE",
"236 0 LINE",
"236 424 LINE",
"38 424 LINE",
"38 519 LINE",
"566 519 LINE",
"566 424 LINE"
);
}
);
width = 604;
}
);
unicode = 20B8;
},
{
glyphname = uni20B9;
layers = (
{
layerId = "A3FA1D5A-5B70-4048-948C-F73CFEE83353";
name = Bold;
paths = (
{
closed = 1;
nodes = (
"360 0 LINE",
"179 242 LINE",
"59 242 LINE",
"59 337 LINE",
"238 337 LINE SMOOTH",
"303 337 OFFCURVE",
"338 366 OFFCURVE",
"342 423 CURVE",
"59 423 LINE",
"59 518 LINE",
"342 518 LINE",
"338 582 OFFCURVE",
"302 603 OFFCURVE",
"238 603 CURVE SMOOTH",
"59 603 LINE",
"59 698 LINE",
"586 698 LINE",
"586 603 LINE",
"393 603 LINE",
"393 599 LINE",
"420 596 OFFCURVE",
"454 573 OFFCURVE",
"467 518 CURVE",
"586 518 LINE",
"586 423 LINE",
"470 423 LINE",
"458 336 OFFCURVE",
"410 274 OFFCURVE",
"322 254 CURVE",
"521 0 LINE"
);
}
);
width = 622;
}
);
unicode = 20B9;
},
{
glyphname = uni20BA;
layers = (
{
layerId = "A3FA1D5A-5B70-4048-948C-F73CFEE83353";
name = Bold;
paths = (
{
closed = 1;
nodes = (
"106 223 LINE",
"16 180 LINE",
"16 264 LINE",
"106 307 LINE",
"106 382 LINE",
"16 338 LINE",
"16 422 LINE",
"106 465 LINE",
"106 698 LINE",
"238 698 LINE",
"238 528 LINE",
"409 609 LINE",
"409 525 LINE",
"238 444 LINE",
"238 370 LINE",
"409 450 LINE",
"409 367 LINE",
"238 286 LINE",
"238 108 LINE",
"305 108 LINE SMOOTH",
"401 108 OFFCURVE",
"452 162 OFFCURVE",
"452 305 CURVE",
"578 305 LINE",
"578 220 OFFCURVE",
"558 144 OFFCURVE",
"516 89 CURVE SMOOTH",
"474 33 OFFCURVE",
"409 0 OFFCURVE",
"320 0 CURVE SMOOTH",
"106 0 LINE"
);
}
);
width = 610;
}
);
unicode = 20BA;
},
{
glyphname = uni20BD;
layers = (
{
layerId = "A3FA1D5A-5B70-4048-948C-F73CFEE83353";
name = Bold;
paths = (
{
closed = 1;
nodes = (
"238 112 LINE",
"238 0 LINE",
"106 0 LINE",
"106 112 LINE",
"20 112 LINE",
"20 206 LINE",
"106 206 LINE",
"106 292 LINE",
"20 292 LINE",
"20 387 LINE",
"106 387 LINE",
"106 698 LINE",
"407 698 LINE SMOOTH",
"536 698 OFFCURVE",
"613 624 OFFCURVE",
"613 495 CURVE SMOOTH",
"613 367 OFFCURVE",
"536 292 OFFCURVE",
"407 292 CURVE SMOOTH",
"238 292 LINE",
"238 206 LINE",
"470 206 LINE",
"470 112 LINE"
);
},
{
closed = 1;
nodes = (
"238 387 LINE",
"394 387 LINE SMOOTH",
"446 387 OFFCURVE",
"476 416 OFFCURVE",
"476 467 CURVE SMOOTH",
"476 514 LINE SMOOTH",
"476 565 OFFCURVE",
"445 589 OFFCURVE",
"394 589 CURVE SMOOTH",
"238 589 LINE"
);
}
);
width = 650;
}
);
unicode = 20BD;
},
{
glyphname = uni20BF;
layers = (
{
layerId = "A3FA1D5A-5B70-4048-948C-F73CFEE83353";
name = Bold;
paths = (
{
closed = 1;
nodes = (
"348 20 LINE",
"283 20 LINE",
"283 -82 LINE",
"184 -82 LINE",
"184 20 LINE",
"81 20 LINE",
"81 678 LINE",
"184 678 LINE",
"184 780 LINE",
"283 780 LINE",
"283 678 LINE",
"348 678 LINE",
"348 780 LINE",
"446 780 LINE",
"446 675 LINE",
"535 662 OFFCURVE",
"587 601 OFFCURVE",
"587 509 CURVE SMOOTH",
"587 417 OFFCURVE",
"542 379 OFFCURVE",
"462 368 CURVE",
"462 362 LINE",
"503 358 OFFCURVE",
"541 346 OFFCURVE",
"568 322 CURVE SMOOTH",
"595 298 OFFCURVE",
"612 261 OFFCURVE",
"612 209 CURVE SMOOTH",
"612 157 OFFCURVE",
"595 112 OFFCURVE",
"565 78 CURVE SMOOTH",
"535 44 OFFCURVE",
"494 21 OFFCURVE",
"446 20 CURVE",
"446 -82 LINE",
"348 -82 LINE"
);
},
{
closed = 1;
nodes = (
"207 404 LINE",
"385 404 LINE SMOOTH",
"433 404 OFFCURVE",
"457 426 OFFCURVE",
"457 471 CURVE SMOOTH",
"457 503 LINE SMOOTH",
"457 548 OFFCURVE",
"433 570 OFFCURVE",
"385 570 CURVE SMOOTH",
"207 570 LINE"
);
},
{
closed = 1;
nodes = (
"207 128 LINE",
"403 128 LINE SMOOTH",
"452 128 OFFCURVE",
"482 153 OFFCURVE",
"482 198 CURVE SMOOTH",
"482 231 LINE SMOOTH",
"482 278 OFFCURVE",
"452 301 OFFCURVE",
"403 301 CURVE SMOOTH",
"207 301 LINE"
);
}
);
width = 659;
}
);
unicode = 20BF;
},
{
glyphname = fi;
layers = (
{
layerId = "A3FA1D5A-5B70-4048-948C-F73CFEE83353";
name = Bold;
paths = (
{
closed = 1;
nodes = (
"100 421 LINE",
"23 421 LINE",
"23 522 LINE",
"100 522 LINE",
"100 597 LINE SMOOTH",
"100 689 OFFCURVE",
"149 740 OFFCURVE",
"244 740 CURVE SMOOTH",
"335 740 LINE",
"335 638 LINE",
"228 638 LINE",
"228 522 LINE",
"550 522 LINE",
"550 0 LINE",
"422 0 LINE",
"422 421 LINE",
"228 421 LINE",
"228 0 LINE",
"100 0 LINE"
);
},
{
closed = 1;
nodes = (
"433 598 OFFCURVE",
"411 625 OFFCURVE",
"411 662 CURVE SMOOTH",
"411 682 LINE SMOOTH",
"411 719 OFFCURVE",
"433 746 OFFCURVE",
"486 746 CURVE SMOOTH",
"538 746 OFFCURVE",
"561 719 OFFCURVE",
"561 682 CURVE SMOOTH",
"561 662 LINE SMOOTH",
"561 625 OFFCURVE",
"538 598 OFFCURVE",
"486 598 CURVE SMOOTH"
);
}
);
width = 624;
}
);
leftKerningGroup = f;
rightKerningGroup = i;
unicode = FB01;
},
{
glyphname = fl;
lastChange = "2018-11-02 14:39:26 +0000";
layers = (
{
layerId = "A3FA1D5A-5B70-4048-948C-F73CFEE83353";
name = Bold;
paths = (
{
closed = 1;
nodes = (
"552 0 LINE SMOOTH",
"464 0 OFFCURVE",
"424 46 OFFCURVE",
"424 126 CURVE SMOOTH",
"424 740 LINE",
"552 740 LINE",
"552 102 LINE",
"621 102 LINE",
"621 0 LINE"
);
},
{
closed = 1;
nodes = (
"100 421 LINE",
"23 421 LINE",
"23 522 LINE",
"100 522 LINE",
"100 597 LINE SMOOTH",
"100 689 OFFCURVE",
"149 740 OFFCURVE",
"244 740 CURVE SMOOTH",
"335 740 LINE",
"335 638 LINE",
"228 638 LINE",
"228 522 LINE",
"335 522 LINE",
"335 421 LINE",
"228 421 LINE",
"228 0 LINE",
"100 0 LINE"
);
}
);
width = 644;
}
);
leftKerningGroup = f;
rightKerningGroup = l;
unicode = FB02;
},
{
glyphname = aacute;
lastChange = "2018-11-02 02:49:55 +0000";
layers = (
{
layerId = "A3FA1D5A-5B70-4048-948C-F73CFEE83353";
name = Bold;
paths = (
{
closed = 1;
nodes = (
"277 581 LINE",
"200 618 LINE",
"295 805 LINE",
"403 752 LINE"
);
},
{
closed = 1;
nodes = (
"156 534 OFFCURVE",
"96 494 OFFCURVE",
"57 434 CURVE",
"133 366 LINE",
"158 402 OFFCURVE",
"192 432 OFFCURVE",
"252 432 CURVE SMOOTH",
"320 432 OFFCURVE",
"349 399 OFFCURVE",
"349 340 CURVE SMOOTH",
"349 302 LINE",
"260 302 LINE SMOOTH",
"117 302 OFFCURVE",
"37 250 OFFCURVE",
"37 142 CURVE SMOOTH",
"37 49 OFFCURVE",
"96 -12 OFFCURVE",
"203 -12 CURVE SMOOTH",
"282 -12 OFFCURVE",
"338 22 OFFCURVE",
"355 90 CURVE",
"361 90 LINE",
"361 0 LINE",
"477 0 LINE",
"477 348 LINE SMOOTH",
"477 468 OFFCURVE",
"402 534 OFFCURVE",
"261 534 CURVE SMOOTH"
);
},
{
closed = 1;
nodes = (
"349 107 OFFCURVE",
"303 81 OFFCURVE",
"246 81 CURVE SMOOTH",
"195 81 OFFCURVE",
"167 101 OFFCURVE",
"167 144 CURVE SMOOTH",
"167 161 LINE SMOOTH",
"167 204 OFFCURVE",
"200 225 OFFCURVE",
"267 225 CURVE SMOOTH",
"349 225 LINE",
"349 156 LINE SMOOTH"
);
}
);
width = 545;
}
);
leftKerningGroup = a;
rightKerningGroup = a;
unicode = 00E1;
},
{
glyphname = abreve;
lastChange = "2018-11-02 02:49:58 +0000";
layers = (
{
layerId = "A3FA1D5A-5B70-4048-948C-F73CFEE83353";
name = Bold;
paths = (
{
closed = 1;
nodes = (
"207 584 OFFCURVE",
"168 606 OFFCURVE",
"140 638 CURVE SMOOTH",
"112 669 OFFCURVE",
"97 708 OFFCURVE",
"85 741 CURVE",
"156 777 LINE",
"176 744 LINE SMOOTH",
"203 701 OFFCURVE",
"224 675 OFFCURVE",
"264 675 CURVE SMOOTH",
"304 675 OFFCURVE",
"326 701 OFFCURVE",
"353 744 CURVE SMOOTH",
"373 777 LINE",
"443 741 LINE",
"431 708 OFFCURVE",
"414 669 OFFCURVE",
"386 638 CURVE SMOOTH",
"358 606 OFFCURVE",
"320 584 OFFCURVE",
"264 584 CURVE SMOOTH"
);
},
{
closed = 1;
nodes = (
"156 534 OFFCURVE",
"96 494 OFFCURVE",
"57 434 CURVE",
"133 366 LINE",
"158 402 OFFCURVE",
"192 432 OFFCURVE",
"252 432 CURVE SMOOTH",
"320 432 OFFCURVE",
"349 399 OFFCURVE",
"349 340 CURVE SMOOTH",
"349 302 LINE",
"260 302 LINE SMOOTH",
"117 302 OFFCURVE",
"37 250 OFFCURVE",
"37 142 CURVE SMOOTH",
"37 49 OFFCURVE",
"96 -12 OFFCURVE",
"203 -12 CURVE SMOOTH",
"282 -12 OFFCURVE",
"338 22 OFFCURVE",
"355 90 CURVE",
"361 90 LINE",
"361 0 LINE",
"477 0 LINE",
"477 348 LINE SMOOTH",
"477 468 OFFCURVE",
"402 534 OFFCURVE",
"261 534 CURVE SMOOTH"
);
},
{
closed = 1;
nodes = (
"349 107 OFFCURVE",
"303 81 OFFCURVE",
"246 81 CURVE SMOOTH",
"195 81 OFFCURVE",
"167 101 OFFCURVE",
"167 144 CURVE SMOOTH",
"167 161 LINE SMOOTH",
"167 204 OFFCURVE",
"200 225 OFFCURVE",
"267 225 CURVE SMOOTH",
"349 225 LINE",
"349 156 LINE SMOOTH"
);
}
);
width = 545;
}
);
leftKerningGroup = a;
rightKerningGroup = a;
unicode = 0103;
},
{
glyphname = acircumflex;
lastChange = "2018-11-02 02:49:59 +0000";
layers = (
{
layerId = "A3FA1D5A-5B70-4048-948C-F73CFEE83353";
name = Bold;
paths = (
{
closed = 1;
nodes = (
"322 786 LINE",
"448 632 LINE",
"384 582 LINE",
"264 697 LINE",
"144 582 LINE",
"80 632 LINE",
"206 786 LINE"
);
},
{
closed = 1;
nodes = (
"156 534 OFFCURVE",
"96 494 OFFCURVE",
"57 434 CURVE",
"133 366 LINE",
"158 402 OFFCURVE",
"192 432 OFFCURVE",
"252 432 CURVE SMOOTH",
"320 432 OFFCURVE",
"349 399 OFFCURVE",
"349 340 CURVE SMOOTH",
"349 302 LINE",
"260 302 LINE SMOOTH",
"117 302 OFFCURVE",
"37 250 OFFCURVE",
"37 142 CURVE SMOOTH",
"37 49 OFFCURVE",
"96 -12 OFFCURVE",
"203 -12 CURVE SMOOTH",
"282 -12 OFFCURVE",
"338 22 OFFCURVE",
"355 90 CURVE",
"361 90 LINE",
"361 0 LINE",
"477 0 LINE",
"477 348 LINE SMOOTH",
"477 468 OFFCURVE",
"402 534 OFFCURVE",
"261 534 CURVE SMOOTH"
);
},
{
closed = 1;
nodes = (
"349 107 OFFCURVE",
"303 81 OFFCURVE",
"246 81 CURVE SMOOTH",
"195 81 OFFCURVE",
"167 101 OFFCURVE",
"167 144 CURVE SMOOTH",
"167 161 LINE SMOOTH",
"167 204 OFFCURVE",
"200 225 OFFCURVE",
"267 225 CURVE SMOOTH",
"349 225 LINE",
"349 156 LINE SMOOTH"
);
}
);
width = 545;
}
);
leftKerningGroup = a;
rightKerningGroup = a;
unicode = 00E2;
},
{
glyphname = adieresis;
lastChange = "2018-11-02 02:49:59 +0000";
layers = (
{
layerId = "A3FA1D5A-5B70-4048-948C-F73CFEE83353";
name = Bold;
paths = (
{
closed = 1;
nodes = (
"107 605 OFFCURVE",
"88 630 OFFCURVE",
"88 663 CURVE SMOOTH",
"88 684 LINE SMOOTH",
"88 717 OFFCURVE",
"107 742 OFFCURVE",
"159 742 CURVE SMOOTH",
"211 742 OFFCURVE",
"230 717 OFFCURVE",
"230 684 CURVE SMOOTH",
"230 663 LINE SMOOTH",
"230 630 OFFCURVE",
"211 605 OFFCURVE",
"159 605 CURVE SMOOTH"
);
},
{
closed = 1;
nodes = (
"317 605 OFFCURVE",
"298 630 OFFCURVE",
"298 663 CURVE SMOOTH",
"298 684 LINE SMOOTH",
"298 717 OFFCURVE",
"317 742 OFFCURVE",
"369 742 CURVE SMOOTH",
"421 742 OFFCURVE",
"440 717 OFFCURVE",
"440 684 CURVE SMOOTH",
"440 663 LINE SMOOTH",
"440 630 OFFCURVE",
"421 605 OFFCURVE",
"369 605 CURVE SMOOTH"
);
},
{
closed = 1;
nodes = (
"156 534 OFFCURVE",
"96 494 OFFCURVE",
"57 434 CURVE",
"133 366 LINE",
"158 402 OFFCURVE",
"192 432 OFFCURVE",
"252 432 CURVE SMOOTH",
"320 432 OFFCURVE",
"349 399 OFFCURVE",
"349 340 CURVE SMOOTH",
"349 302 LINE",
"260 302 LINE SMOOTH",
"117 302 OFFCURVE",
"37 250 OFFCURVE",
"37 142 CURVE SMOOTH",
"37 49 OFFCURVE",
"96 -12 OFFCURVE",
"203 -12 CURVE SMOOTH",
"282 -12 OFFCURVE",
"338 22 OFFCURVE",
"355 90 CURVE",
"361 90 LINE",
"361 0 LINE",
"477 0 LINE",
"477 348 LINE SMOOTH",
"477 468 OFFCURVE",
"402 534 OFFCURVE",
"261 534 CURVE SMOOTH"
);
},
{
closed = 1;
nodes = (
"349 107 OFFCURVE",
"303 81 OFFCURVE",
"246 81 CURVE SMOOTH",
"195 81 OFFCURVE",
"167 101 OFFCURVE",
"167 144 CURVE SMOOTH",
"167 161 LINE SMOOTH",
"167 204 OFFCURVE",
"200 225 OFFCURVE",
"267 225 CURVE SMOOTH",
"349 225 LINE",
"349 156 LINE SMOOTH"
);
}
);
width = 545;
}
);
leftKerningGroup = a;
rightKerningGroup = a;
unicode = 00E4;
},
{
glyphname = uni1EA1;
lastChange = "2018-11-02 02:50:00 +0000";
layers = (
{
layerId = "A3FA1D5A-5B70-4048-948C-F73CFEE83353";
name = Bold;
paths = (
{
closed = 1;
nodes = (
"210 -194 OFFCURVE",
"190 -169 OFFCURVE",
"190 -136 CURVE SMOOTH",
"190 -114 LINE SMOOTH",
"190 -81 OFFCURVE",
"210 -56 OFFCURVE",
"262 -56 CURVE SMOOTH",
"314 -56 OFFCURVE",
"334 -81 OFFCURVE",
"334 -114 CURVE SMOOTH",
"334 -136 LINE SMOOTH",
"334 -169 OFFCURVE",
"314 -194 OFFCURVE",
"262 -194 CURVE SMOOTH"
);
},
{
closed = 1;
nodes = (
"156 534 OFFCURVE",
"96 494 OFFCURVE",
"57 434 CURVE",
"133 366 LINE",
"158 402 OFFCURVE",
"192 432 OFFCURVE",
"252 432 CURVE SMOOTH",
"320 432 OFFCURVE",
"349 399 OFFCURVE",
"349 340 CURVE SMOOTH",
"349 302 LINE",
"260 302 LINE SMOOTH",
"117 302 OFFCURVE",
"37 250 OFFCURVE",
"37 142 CURVE SMOOTH",
"37 49 OFFCURVE",
"96 -12 OFFCURVE",
"203 -12 CURVE SMOOTH",
"282 -12 OFFCURVE",
"338 22 OFFCURVE",
"355 90 CURVE",
"361 90 LINE",
"361 0 LINE",
"477 0 LINE",
"477 348 LINE SMOOTH",
"477 468 OFFCURVE",
"402 534 OFFCURVE",
"261 534 CURVE SMOOTH"
);
},
{
closed = 1;
nodes = (
"349 107 OFFCURVE",
"303 81 OFFCURVE",
"246 81 CURVE SMOOTH",
"195 81 OFFCURVE",
"167 101 OFFCURVE",
"167 144 CURVE SMOOTH",
"167 161 LINE SMOOTH",
"167 204 OFFCURVE",
"200 225 OFFCURVE",
"267 225 CURVE SMOOTH",
"349 225 LINE",
"349 156 LINE SMOOTH"
);
}
);
width = 545;
}
);
leftKerningGroup = a;
rightKerningGroup = a;
unicode = 1EA1;
},
{
glyphname = agrave;
lastChange = "2018-11-02 02:50:00 +0000";
layers = (
{
layerId = "A3FA1D5A-5B70-4048-948C-F73CFEE83353";
name = Bold;
paths = (
{
closed = 1;
nodes = (
"125 752 LINE",
"233 805 LINE",
"328 618 LINE",
"251 581 LINE"
);
},
{
closed = 1;
nodes = (
"156 534 OFFCURVE",
"96 494 OFFCURVE",
"57 434 CURVE",
"133 366 LINE",
"158 402 OFFCURVE",
"192 432 OFFCURVE",
"252 432 CURVE SMOOTH",
"320 432 OFFCURVE",
"349 399 OFFCURVE",
"349 340 CURVE SMOOTH",
"349 302 LINE",
"260 302 LINE SMOOTH",
"117 302 OFFCURVE",
"37 250 OFFCURVE",
"37 142 CURVE SMOOTH",
"37 49 OFFCURVE",
"96 -12 OFFCURVE",
"203 -12 CURVE SMOOTH",
"282 -12 OFFCURVE",
"338 22 OFFCURVE",
"355 90 CURVE",
"361 90 LINE",
"361 0 LINE",
"477 0 LINE",
"477 348 LINE SMOOTH",
"477 468 OFFCURVE",
"402 534 OFFCURVE",
"261 534 CURVE SMOOTH"
);
},
{
closed = 1;
nodes = (
"349 107 OFFCURVE",
"303 81 OFFCURVE",
"246 81 CURVE SMOOTH",
"195 81 OFFCURVE",
"167 101 OFFCURVE",
"167 144 CURVE SMOOTH",
"167 161 LINE SMOOTH",
"167 204 OFFCURVE",
"200 225 OFFCURVE",
"267 225 CURVE SMOOTH",
"349 225 LINE",
"349 156 LINE SMOOTH"
);
}
);
width = 545;
}
);
leftKerningGroup = a;
rightKerningGroup = a;
unicode = 00E0;
},
{
glyphname = uni1EA3;
lastChange = "2018-11-02 02:50:01 +0000";
layers = (
{
layerId = "A3FA1D5A-5B70-4048-948C-F73CFEE83353";
name = Bold;
paths = (
{
closed = 1;
nodes = (
"154 791 LINE",
"287 791 LINE SMOOTH",
"355 791 OFFCURVE",
"376 760 OFFCURVE",
"376 723 CURVE SMOOTH",
"376 687 OFFCURVE",
"354 644 OFFCURVE",
"322 604 CURVE SMOOTH",
"295 571 LINE",
"228 603 LINE",
"274 698 LINE",
"154 698 LINE"
);
},
{
closed = 1;
nodes = (
"156 534 OFFCURVE",
"96 494 OFFCURVE",
"57 434 CURVE",
"133 366 LINE",
"158 402 OFFCURVE",
"192 432 OFFCURVE",
"252 432 CURVE SMOOTH",
"320 432 OFFCURVE",
"349 399 OFFCURVE",
"349 340 CURVE SMOOTH",
"349 302 LINE",
"260 302 LINE SMOOTH",
"117 302 OFFCURVE",
"37 250 OFFCURVE",
"37 142 CURVE SMOOTH",
"37 49 OFFCURVE",
"96 -12 OFFCURVE",
"203 -12 CURVE SMOOTH",
"282 -12 OFFCURVE",
"338 22 OFFCURVE",
"355 90 CURVE",
"361 90 LINE",
"361 0 LINE",
"477 0 LINE",
"477 348 LINE SMOOTH",
"477 468 OFFCURVE",
"402 534 OFFCURVE",
"261 534 CURVE SMOOTH"
);
},
{
closed = 1;
nodes = (
"349 107 OFFCURVE",
"303 81 OFFCURVE",
"246 81 CURVE SMOOTH",
"195 81 OFFCURVE",
"167 101 OFFCURVE",
"167 144 CURVE SMOOTH",
"167 161 LINE SMOOTH",
"167 204 OFFCURVE",
"200 225 OFFCURVE",
"267 225 CURVE SMOOTH",
"349 225 LINE",
"349 156 LINE SMOOTH"
);
}
);
width = 545;
}
);
leftKerningGroup = a;
rightKerningGroup = a;
unicode = 1EA3;
},
{
glyphname = amacron;
lastChange = "2018-11-02 02:50:01 +0000";
layers = (
{
layerId = "A3FA1D5A-5B70-4048-948C-F73CFEE83353";
name = Bold;
paths = (
{
closed = 1;
nodes = (
"115 721 LINE",
"413 721 LINE",
"413 628 LINE",
"115 628 LINE"
);
},
{
closed = 1;
nodes = (
"156 534 OFFCURVE",
"96 494 OFFCURVE",
"57 434 CURVE",
"133 366 LINE",
"158 402 OFFCURVE",
"192 432 OFFCURVE",
"252 432 CURVE SMOOTH",
"320 432 OFFCURVE",
"349 399 OFFCURVE",
"349 340 CURVE SMOOTH",
"349 302 LINE",
"260 302 LINE SMOOTH",
"117 302 OFFCURVE",
"37 250 OFFCURVE",
"37 142 CURVE SMOOTH",
"37 49 OFFCURVE",
"96 -12 OFFCURVE",
"203 -12 CURVE SMOOTH",
"282 -12 OFFCURVE",
"338 22 OFFCURVE",
"355 90 CURVE",
"361 90 LINE",
"361 0 LINE",
"477 0 LINE",
"477 348 LINE SMOOTH",
"477 468 OFFCURVE",
"402 534 OFFCURVE",
"261 534 CURVE SMOOTH"
);
},
{
closed = 1;
nodes = (
"349 107 OFFCURVE",
"303 81 OFFCURVE",
"246 81 CURVE SMOOTH",
"195 81 OFFCURVE",
"167 101 OFFCURVE",
"167 144 CURVE SMOOTH",
"167 161 LINE SMOOTH",
"167 204 OFFCURVE",
"200 225 OFFCURVE",
"267 225 CURVE SMOOTH",
"349 225 LINE",
"349 156 LINE SMOOTH"
);
}
);
width = 545;
}
);
leftKerningGroup = a;
rightKerningGroup = a;
unicode = 0101;
},
{
glyphname = aogonek;
lastChange = "2018-11-02 02:51:02 +0000";
layers = (
{
layerId = "A3FA1D5A-5B70-4048-948C-F73CFEE83353";
name = Bold;
paths = (
{
closed = 1;
nodes = (
"443 -131 OFFCURVE",
"426 -142 OFFCURVE",
"403 -142 CURVE SMOOTH",
"384 -142 OFFCURVE",
"367 -134 OFFCURVE",
"367 -110 CURVE SMOOTH",
"367 -98 OFFCURVE",
"371 -87 OFFCURVE",
"387 -70 CURVE SMOOTH",
"402 -54 OFFCURVE",
"429 -32 OFFCURVE",
"477 0 CURVE",
"477 348 LINE SMOOTH",
"477 468 OFFCURVE",
"402 534 OFFCURVE",
"261 534 CURVE SMOOTH",
"156 534 OFFCURVE",
"96 494 OFFCURVE",
"57 434 CURVE",
"133 366 LINE",
"158 402 OFFCURVE",
"192 432 OFFCURVE",
"252 432 CURVE SMOOTH",
"320 432 OFFCURVE",
"349 399 OFFCURVE",
"349 340 CURVE SMOOTH",
"349 302 LINE",
"260 302 LINE SMOOTH",
"117 302 OFFCURVE",
"37 250 OFFCURVE",
"37 142 CURVE SMOOTH",
"37 49 OFFCURVE",
"96 -12 OFFCURVE",
"203 -12 CURVE SMOOTH",
"282 -12 OFFCURVE",
"338 22 OFFCURVE",
"355 90 CURVE",
"361 90 LINE",
"361 0 LINE",
"391 0 LINE",
"392 -4 LINE",
"324 -39 OFFCURVE",
"278 -73 OFFCURVE",
"278 -128 CURVE SMOOTH",
"278 -159 OFFCURVE",
"292 -180 OFFCURVE",
"313 -192 CURVE",
"333 -205 OFFCURVE",
"362 -211 OFFCURVE",
"393 -211 CURVE SMOOTH",
"452 -211 OFFCURVE",
"490 -192 OFFCURVE",
"505 -163 CURVE",
"456 -116 LINE"
);
},
{
closed = 1;
nodes = (
"349 107 OFFCURVE",
"303 81 OFFCURVE",
"246 81 CURVE SMOOTH",
"195 81 OFFCURVE",
"167 101 OFFCURVE",
"167 144 CURVE SMOOTH",
"167 161 LINE SMOOTH",
"167 204 OFFCURVE",
"200 225 OFFCURVE",
"267 225 CURVE SMOOTH",
"349 225 LINE",
"349 156 LINE SMOOTH"
);
}
);
width = 545;
}
);
leftKerningGroup = a;
rightKerningGroup = a;
unicode = 0105;
},
{
glyphname = aring;
lastChange = "2018-11-02 02:50:02 +0000";
layers = (
{
layerId = "A3FA1D5A-5B70-4048-948C-F73CFEE83353";
name = Bold;
paths = (
{
closed = 1;
nodes = (
"225 563 OFFCURVE",
"190 577 OFFCURVE",
"165 601 CURVE SMOOTH",
"140 625 OFFCURVE",
"125 659 OFFCURVE",
"125 698 CURVE SMOOTH",
"125 737 OFFCURVE",
"140 771 OFFCURVE",
"165 795 CURVE SMOOTH",
"190 819 OFFCURVE",
"225 833 OFFCURVE",
"264 833 CURVE SMOOTH",
"303 833 OFFCURVE",
"338 819 OFFCURVE",
"363 795 CURVE SMOOTH",
"387 771 OFFCURVE",
"403 737 OFFCURVE",
"403 698 CURVE SMOOTH",
"403 659 OFFCURVE",
"387 625 OFFCURVE",
"363 601 CURVE SMOOTH",
"338 577 OFFCURVE",
"303 563 OFFCURVE",
"264 563 CURVE SMOOTH"
);
},
{
closed = 1;
nodes = (
"299 631 OFFCURVE",
"317 648 OFFCURVE",
"317 683 CURVE SMOOTH",
"317 713 LINE SMOOTH",
"317 748 OFFCURVE",
"299 765 OFFCURVE",
"264 765 CURVE SMOOTH",
"229 765 OFFCURVE",
"211 748 OFFCURVE",
"211 713 CURVE SMOOTH",
"211 683 LINE SMOOTH",
"211 648 OFFCURVE",
"229 631 OFFCURVE",
"264 631 CURVE SMOOTH"
);
},
{
closed = 1;
nodes = (
"156 534 OFFCURVE",
"96 494 OFFCURVE",
"57 434 CURVE",
"133 366 LINE",
"158 402 OFFCURVE",
"192 432 OFFCURVE",
"252 432 CURVE SMOOTH",
"320 432 OFFCURVE",
"349 399 OFFCURVE",
"349 340 CURVE SMOOTH",
"349 302 LINE",
"260 302 LINE SMOOTH",
"117 302 OFFCURVE",
"37 250 OFFCURVE",
"37 142 CURVE SMOOTH",
"37 49 OFFCURVE",
"96 -12 OFFCURVE",
"203 -12 CURVE SMOOTH",
"282 -12 OFFCURVE",
"338 22 OFFCURVE",
"355 90 CURVE",
"361 90 LINE",
"361 0 LINE",
"477 0 LINE",
"477 348 LINE SMOOTH",
"477 468 OFFCURVE",
"402 534 OFFCURVE",
"261 534 CURVE SMOOTH"
);
},
{
closed = 1;
nodes = (
"349 107 OFFCURVE",
"303 81 OFFCURVE",
"246 81 CURVE SMOOTH",
"195 81 OFFCURVE",
"167 101 OFFCURVE",
"167 144 CURVE SMOOTH",
"167 161 LINE SMOOTH",
"167 204 OFFCURVE",
"200 225 OFFCURVE",
"267 225 CURVE SMOOTH",
"349 225 LINE",
"349 156 LINE SMOOTH"
);
}
);
width = 545;
}
);
leftKerningGroup = a;
rightKerningGroup = a;
unicode = 00E5;
},
{
glyphname = aringacute;
lastChange = "2018-11-02 02:50:03 +0000";
layers = (
{
layerId = "A3FA1D5A-5B70-4048-948C-F73CFEE83353";
name = Bold;
paths = (
{
closed = 1;
nodes = (
"262 815 LINE",
"213 863 LINE",
"326 979 LINE",
"396 911 LINE"
);
},
{
closed = 1;
nodes = (
"224 565 OFFCURVE",
"189 576 OFFCURVE",
"164 597 CURVE SMOOTH",
"139 617 OFFCURVE",
"123 647 OFFCURVE",
"123 683 CURVE SMOOTH",
"123 719 OFFCURVE",
"139 749 OFFCURVE",
"164 770 CURVE SMOOTH",
"189 790 OFFCURVE",
"224 802 OFFCURVE",
"264 802 CURVE SMOOTH",
"304 802 OFFCURVE",
"339 790 OFFCURVE",
"364 770 CURVE SMOOTH",
"389 749 OFFCURVE",
"405 719 OFFCURVE",
"405 683 CURVE SMOOTH",
"405 647 OFFCURVE",
"389 617 OFFCURVE",
"364 597 CURVE SMOOTH",
"339 576 OFFCURVE",
"304 565 OFFCURVE",
"264 565 CURVE SMOOTH"
);
},
{
closed = 1;
nodes = (
"301 628 OFFCURVE",
"320 644 OFFCURVE",
"320 676 CURVE SMOOTH",
"320 690 LINE SMOOTH",
"320 722 OFFCURVE",
"301 738 OFFCURVE",
"264 738 CURVE SMOOTH",
"227 738 OFFCURVE",
"208 722 OFFCURVE",
"208 690 CURVE SMOOTH",
"208 676 LINE SMOOTH",
"208 644 OFFCURVE",
"227 628 OFFCURVE",
"264 628 CURVE SMOOTH"
);
},
{
closed = 1;
nodes = (
"156 534 OFFCURVE",
"96 494 OFFCURVE",
"57 434 CURVE",
"133 366 LINE",
"158 402 OFFCURVE",
"192 432 OFFCURVE",
"252 432 CURVE SMOOTH",
"320 432 OFFCURVE",
"349 399 OFFCURVE",
"349 340 CURVE SMOOTH",
"349 302 LINE",
"260 302 LINE SMOOTH",
"117 302 OFFCURVE",
"37 250 OFFCURVE",
"37 142 CURVE SMOOTH",
"37 49 OFFCURVE",
"96 -12 OFFCURVE",
"203 -12 CURVE SMOOTH",
"282 -12 OFFCURVE",
"338 22 OFFCURVE",
"355 90 CURVE",
"361 90 LINE",
"361 0 LINE",
"477 0 LINE",
"477 348 LINE SMOOTH",
"477 468 OFFCURVE",
"402 534 OFFCURVE",
"261 534 CURVE SMOOTH"
);
},
{
closed = 1;
nodes = (
"349 107 OFFCURVE",
"303 81 OFFCURVE",
"246 81 CURVE SMOOTH",
"195 81 OFFCURVE",
"167 101 OFFCURVE",
"167 144 CURVE SMOOTH",
"167 161 LINE SMOOTH",
"167 204 OFFCURVE",
"200 225 OFFCURVE",
"267 225 CURVE SMOOTH",
"349 225 LINE",
"349 156 LINE SMOOTH"
);
}
);
width = 545;
}
);
leftKerningGroup = a;
rightKerningGroup = a;
unicode = 01FB;
},
{
glyphname = atilde;
lastChange = "2018-11-02 02:50:03 +0000";
layers = (
{
layerId = "A3FA1D5A-5B70-4048-948C-F73CFEE83353";
name = Bold;
paths = (
{
closed = 1;
nodes = (
"308 604 OFFCURVE",
"285 615 OFFCURVE",
"261 626 CURVE SMOOTH",
"230 639 OFFCURVE",
"209 649 OFFCURVE",
"186 649 CURVE SMOOTH",
"163 649 OFFCURVE",
"148 640 OFFCURVE",
"127 623 CURVE",
"80 683 LINE",
"103 716 OFFCURVE",
"138 744 OFFCURVE",
"189 744 CURVE SMOOTH",
"220 744 OFFCURVE",
"243 733 OFFCURVE",
"267 722 CURVE SMOOTH",
"298 707 OFFCURVE",
"319 699 OFFCURVE",
"342 699 CURVE SMOOTH",
"365 699 OFFCURVE",
"380 708 OFFCURVE",
"401 725 CURVE",
"448 665 LINE",
"425 632 OFFCURVE",
"390 604 OFFCURVE",
"339 604 CURVE SMOOTH"
);
},
{
closed = 1;
nodes = (
"156 534 OFFCURVE",
"96 494 OFFCURVE",
"57 434 CURVE",
"133 366 LINE",
"158 402 OFFCURVE",
"192 432 OFFCURVE",
"252 432 CURVE SMOOTH",
"320 432 OFFCURVE",
"349 399 OFFCURVE",
"349 340 CURVE SMOOTH",
"349 302 LINE",
"260 302 LINE SMOOTH",
"117 302 OFFCURVE",
"37 250 OFFCURVE",
"37 142 CURVE SMOOTH",
"37 49 OFFCURVE",
"96 -12 OFFCURVE",
"203 -12 CURVE SMOOTH",
"282 -12 OFFCURVE",
"338 22 OFFCURVE",
"355 90 CURVE",
"361 90 LINE",
"361 0 LINE",
"477 0 LINE",
"477 348 LINE SMOOTH",
"477 468 OFFCURVE",
"402 534 OFFCURVE",
"261 534 CURVE SMOOTH"
);
},
{
closed = 1;
nodes = (
"349 107 OFFCURVE",
"303 81 OFFCURVE",
"246 81 CURVE SMOOTH",
"195 81 OFFCURVE",
"167 101 OFFCURVE",
"167 144 CURVE SMOOTH",
"167 161 LINE SMOOTH",
"167 204 OFFCURVE",
"200 225 OFFCURVE",
"267 225 CURVE SMOOTH",
"349 225 LINE",
"349 156 LINE SMOOTH"
);
}
);
width = 545;
}
);
leftKerningGroup = a;
rightKerningGroup = a;
unicode = 00E3;
},
{
glyphname = uni1EAF;
lastChange = "2018-11-02 02:50:04 +0000";
layers = (
{
layerId = "A3FA1D5A-5B70-4048-948C-F73CFEE83353";
name = Bold;
paths = (
{
closed = 1;
nodes = (
"208 576 OFFCURVE",
"167 595 OFFCURVE",
"138 623 CURVE SMOOTH",
"109 651 OFFCURVE",
"90 686 OFFCURVE",
"78 718 CURVE",
"144 758 LINE",
"164 727 LINE SMOOTH",
"195 682 OFFCURVE",
"226 664 OFFCURVE",
"263 664 CURVE SMOOTH",
"303 664 OFFCURVE",
"331 682 OFFCURVE",
"362 727 CURVE SMOOTH",
"382 758 LINE",
"448 718 LINE",
"436 686 OFFCURVE",
"417 651 OFFCURVE",
"388 623 CURVE SMOOTH",
"359 595 OFFCURVE",
"318 576 OFFCURVE",
"263 576 CURVE SMOOTH"
);
},
{
closed = 1;
nodes = (
"278 723 LINE",
"208 757 LINE",
"301 944 LINE",
"401 894 LINE"
);
},
{
closed = 1;
nodes = (
"156 534 OFFCURVE",
"96 494 OFFCURVE",
"57 434 CURVE",
"133 366 LINE",
"158 402 OFFCURVE",
"192 432 OFFCURVE",
"252 432 CURVE SMOOTH",
"320 432 OFFCURVE",
"349 399 OFFCURVE",
"349 340 CURVE SMOOTH",
"349 302 LINE",
"260 302 LINE SMOOTH",
"117 302 OFFCURVE",
"37 250 OFFCURVE",
"37 142 CURVE SMOOTH",
"37 49 OFFCURVE",
"96 -12 OFFCURVE",
"203 -12 CURVE SMOOTH",
"282 -12 OFFCURVE",
"338 22 OFFCURVE",
"355 90 CURVE",
"361 90 LINE",
"361 0 LINE",
"477 0 LINE",
"477 348 LINE SMOOTH",
"477 468 OFFCURVE",
"402 534 OFFCURVE",
"261 534 CURVE SMOOTH"
);
},
{
closed = 1;
nodes = (
"349 107 OFFCURVE",
"303 81 OFFCURVE",
"246 81 CURVE SMOOTH",
"195 81 OFFCURVE",
"167 101 OFFCURVE",
"167 144 CURVE SMOOTH",
"167 161 LINE SMOOTH",
"167 204 OFFCURVE",
"200 225 OFFCURVE",
"267 225 CURVE SMOOTH",
"349 225 LINE",
"349 156 LINE SMOOTH"
);
}
);
width = 545;
}
);
leftKerningGroup = a;
rightKerningGroup = a;
unicode = 1EAF;
},
{
glyphname = uni1EB7;
lastChange = "2018-11-02 02:50:04 +0000";
layers = (
{
layerId = "A3FA1D5A-5B70-4048-948C-F73CFEE83353";
name = Bold;
paths = (
{
closed = 1;
nodes = (
"207 584 OFFCURVE",
"168 606 OFFCURVE",
"140 638 CURVE SMOOTH",
"112 669 OFFCURVE",
"97 708 OFFCURVE",
"85 741 CURVE",
"156 777 LINE",
"176 744 LINE SMOOTH",
"203 701 OFFCURVE",
"224 675 OFFCURVE",
"264 675 CURVE SMOOTH",
"304 675 OFFCURVE",
"326 701 OFFCURVE",
"353 744 CURVE SMOOTH",
"373 777 LINE",
"443 741 LINE",
"431 708 OFFCURVE",
"414 669 OFFCURVE",
"386 638 CURVE SMOOTH",
"358 606 OFFCURVE",
"320 584 OFFCURVE",
"264 584 CURVE SMOOTH"
);
},
{
closed = 1;
nodes = (
"210 -194 OFFCURVE",
"190 -169 OFFCURVE",
"190 -136 CURVE SMOOTH",
"190 -114 LINE SMOOTH",
"190 -81 OFFCURVE",
"210 -56 OFFCURVE",
"262 -56 CURVE SMOOTH",
"314 -56 OFFCURVE",
"334 -81 OFFCURVE",
"334 -114 CURVE SMOOTH",
"334 -136 LINE SMOOTH",
"334 -169 OFFCURVE",
"314 -194 OFFCURVE",
"262 -194 CURVE SMOOTH"
);
},
{
closed = 1;
nodes = (
"156 534 OFFCURVE",
"96 494 OFFCURVE",
"57 434 CURVE",
"133 366 LINE",
"158 402 OFFCURVE",
"192 432 OFFCURVE",
"252 432 CURVE SMOOTH",
"320 432 OFFCURVE",
"349 399 OFFCURVE",
"349 340 CURVE SMOOTH",
"349 302 LINE",
"260 302 LINE SMOOTH",
"117 302 OFFCURVE",
"37 250 OFFCURVE",
"37 142 CURVE SMOOTH",
"37 49 OFFCURVE",
"96 -12 OFFCURVE",
"203 -12 CURVE SMOOTH",
"282 -12 OFFCURVE",
"338 22 OFFCURVE",
"355 90 CURVE",
"361 90 LINE",
"361 0 LINE",
"477 0 LINE",
"477 348 LINE SMOOTH",
"477 468 OFFCURVE",
"402 534 OFFCURVE",
"261 534 CURVE SMOOTH"
);
},
{
closed = 1;
nodes = (
"349 107 OFFCURVE",
"303 81 OFFCURVE",
"246 81 CURVE SMOOTH",
"195 81 OFFCURVE",
"167 101 OFFCURVE",
"167 144 CURVE SMOOTH",
"167 161 LINE SMOOTH",
"167 204 OFFCURVE",
"200 225 OFFCURVE",
"267 225 CURVE SMOOTH",
"349 225 LINE",
"349 156 LINE SMOOTH"
);
}
);
width = 545;
}
);
leftKerningGroup = a;
rightKerningGroup = a;
unicode = 1EB7;
},
{
glyphname = uni1EB1;
lastChange = "2018-11-02 02:50:05 +0000";
layers = (
{
layerId = "A3FA1D5A-5B70-4048-948C-F73CFEE83353";
name = Bold;
paths = (
{
closed = 1;
nodes = (
"208 576 OFFCURVE",
"167 595 OFFCURVE",
"138 623 CURVE SMOOTH",
"109 651 OFFCURVE",
"90 686 OFFCURVE",
"78 718 CURVE",
"144 758 LINE",
"164 727 LINE SMOOTH",
"195 682 OFFCURVE",
"226 664 OFFCURVE",
"263 664 CURVE SMOOTH",
"303 664 OFFCURVE",
"331 682 OFFCURVE",
"362 727 CURVE SMOOTH",
"382 758 LINE",
"448 718 LINE",
"436 686 OFFCURVE",
"417 651 OFFCURVE",
"388 623 CURVE SMOOTH",
"359 595 OFFCURVE",
"318 576 OFFCURVE",
"263 576 CURVE SMOOTH"
);
},
{
closed = 1;
nodes = (
"127 894 LINE",
"226 944 LINE",
"319 758 LINE",
"248 723 LINE"
);
},
{
closed = 1;
nodes = (
"156 534 OFFCURVE",
"96 494 OFFCURVE",
"57 434 CURVE",
"133 366 LINE",
"158 402 OFFCURVE",
"192 432 OFFCURVE",
"252 432 CURVE SMOOTH",
"320 432 OFFCURVE",
"349 399 OFFCURVE",
"349 340 CURVE SMOOTH",
"349 302 LINE",
"260 302 LINE SMOOTH",
"117 302 OFFCURVE",
"37 250 OFFCURVE",
"37 142 CURVE SMOOTH",
"37 49 OFFCURVE",
"96 -12 OFFCURVE",
"203 -12 CURVE SMOOTH",
"282 -12 OFFCURVE",
"338 22 OFFCURVE",
"355 90 CURVE",
"361 90 LINE",
"361 0 LINE",
"477 0 LINE",
"477 348 LINE SMOOTH",
"477 468 OFFCURVE",
"402 534 OFFCURVE",
"261 534 CURVE SMOOTH"
);
},
{
closed = 1;
nodes = (
"349 107 OFFCURVE",
"303 81 OFFCURVE",
"246 81 CURVE SMOOTH",
"195 81 OFFCURVE",
"167 101 OFFCURVE",
"167 144 CURVE SMOOTH",
"167 161 LINE SMOOTH",
"167 204 OFFCURVE",
"200 225 OFFCURVE",
"267 225 CURVE SMOOTH",
"349 225 LINE",
"349 156 LINE SMOOTH"
);
}
);
width = 545;
}
);
leftKerningGroup = a;
rightKerningGroup = a;
unicode = 1EB1;
},
{
glyphname = uni1EB3;
lastChange = "2018-11-02 02:50:05 +0000";
layers = (
{
layerId = "A3FA1D5A-5B70-4048-948C-F73CFEE83353";
name = Bold;
paths = (
{
closed = 1;
nodes = (
"208 576 OFFCURVE",
"167 595 OFFCURVE",
"138 623 CURVE SMOOTH",
"109 651 OFFCURVE",
"90 686 OFFCURVE",
"78 718 CURVE",
"144 758 LINE",
"164 727 LINE SMOOTH",
"195 682 OFFCURVE",
"226 664 OFFCURVE",
"263 664 CURVE SMOOTH",
"303 664 OFFCURVE",
"331 682 OFFCURVE",
"362 727 CURVE SMOOTH",
"382 758 LINE",
"448 718 LINE",
"436 686 OFFCURVE",
"417 651 OFFCURVE",
"388 623 CURVE SMOOTH",
"359 595 OFFCURVE",
"318 576 OFFCURVE",
"263 576 CURVE SMOOTH"
);
},
{
closed = 1;
nodes = (
"145 931 LINE",
"269 931 LINE SMOOTH",
"337 931 OFFCURVE",
"358 899 OFFCURVE",
"358 864 CURVE SMOOTH",
"358 827 OFFCURVE",
"333 784 OFFCURVE",
"300 744 CURVE SMOOTH",
"274 712 LINE",
"215 741 LINE",
"263 842 LINE",
"145 842 LINE"
);
},
{
closed = 1;
nodes = (
"156 534 OFFCURVE",
"96 494 OFFCURVE",
"57 434 CURVE",
"133 366 LINE",
"158 402 OFFCURVE",
"192 432 OFFCURVE",
"252 432 CURVE SMOOTH",
"320 432 OFFCURVE",
"349 399 OFFCURVE",
"349 340 CURVE SMOOTH",
"349 302 LINE",
"260 302 LINE SMOOTH",
"117 302 OFFCURVE",
"37 250 OFFCURVE",
"37 142 CURVE SMOOTH",
"37 49 OFFCURVE",
"96 -12 OFFCURVE",
"203 -12 CURVE SMOOTH",
"282 -12 OFFCURVE",
"338 22 OFFCURVE",
"355 90 CURVE",
"361 90 LINE",
"361 0 LINE",
"477 0 LINE",
"477 348 LINE SMOOTH",
"477 468 OFFCURVE",
"402 534 OFFCURVE",
"261 534 CURVE SMOOTH"
);
},
{
closed = 1;
nodes = (
"349 107 OFFCURVE",
"303 81 OFFCURVE",
"246 81 CURVE SMOOTH",
"195 81 OFFCURVE",
"167 101 OFFCURVE",
"167 144 CURVE SMOOTH",
"167 161 LINE SMOOTH",
"167 204 OFFCURVE",
"200 225 OFFCURVE",
"267 225 CURVE SMOOTH",
"349 225 LINE",
"349 156 LINE SMOOTH"
);
}
);
width = 545;
}
);
leftKerningGroup = a;
rightKerningGroup = a;
unicode = 1EB3;
},
{
glyphname = uni1EB5;
lastChange = "2018-11-02 02:50:06 +0000";
layers = (
{
layerId = "A3FA1D5A-5B70-4048-948C-F73CFEE83353";
name = Bold;
paths = (
{
closed = 1;
nodes = (
"208 576 OFFCURVE",
"167 595 OFFCURVE",
"138 623 CURVE SMOOTH",
"109 651 OFFCURVE",
"90 686 OFFCURVE",
"78 718 CURVE",
"144 758 LINE",
"164 727 LINE SMOOTH",
"195 682 OFFCURVE",
"226 664 OFFCURVE",
"263 664 CURVE SMOOTH",
"303 664 OFFCURVE",
"331 682 OFFCURVE",
"362 727 CURVE SMOOTH",
"382 758 LINE",
"448 718 LINE",
"436 686 OFFCURVE",
"417 651 OFFCURVE",
"388 623 CURVE SMOOTH",
"359 595 OFFCURVE",
"318 576 OFFCURVE",
"263 576 CURVE SMOOTH"
);
},
{
closed = 1;
nodes = (
"303 783 OFFCURVE",
"282 793 OFFCURVE",
"259 804 CURVE SMOOTH",
"230 817 OFFCURVE",
"209 826 OFFCURVE",
"186 826 CURVE SMOOTH",
"163 826 OFFCURVE",
"148 818 OFFCURVE",
"127 801 CURVE",
"83 857 LINE",
"106 890 OFFCURVE",
"140 917 OFFCURVE",
"191 917 CURVE SMOOTH",
"222 917 OFFCURVE",
"244 906 OFFCURVE",
"267 895 CURVE",
"296 883 OFFCURVE",
"317 874 OFFCURVE",
"340 874 CURVE SMOOTH",
"363 874 OFFCURVE",
"378 883 OFFCURVE",
"398 900 CURVE",
"443 844 LINE",
"420 811 OFFCURVE",
"385 783 OFFCURVE",
"334 783 CURVE SMOOTH"
);
},
{
closed = 1;
nodes = (
"156 534 OFFCURVE",
"96 494 OFFCURVE",
"57 434 CURVE",
"133 366 LINE",
"158 402 OFFCURVE",
"192 432 OFFCURVE",
"252 432 CURVE SMOOTH",
"320 432 OFFCURVE",
"349 399 OFFCURVE",
"349 340 CURVE SMOOTH",
"349 302 LINE",
"260 302 LINE SMOOTH",
"117 302 OFFCURVE",
"37 250 OFFCURVE",
"37 142 CURVE SMOOTH",
"37 49 OFFCURVE",
"96 -12 OFFCURVE",
"203 -12 CURVE SMOOTH",
"282 -12 OFFCURVE",
"338 22 OFFCURVE",
"355 90 CURVE",
"361 90 LINE",
"361 0 LINE",
"477 0 LINE",
"477 348 LINE SMOOTH",
"477 468 OFFCURVE",
"402 534 OFFCURVE",
"261 534 CURVE SMOOTH"
);
},
{
closed = 1;
nodes = (
"349 107 OFFCURVE",
"303 81 OFFCURVE",
"246 81 CURVE SMOOTH",
"195 81 OFFCURVE",
"167 101 OFFCURVE",
"167 144 CURVE SMOOTH",
"167 161 LINE SMOOTH",
"167 204 OFFCURVE",
"200 225 OFFCURVE",
"267 225 CURVE SMOOTH",
"349 225 LINE",
"349 156 LINE SMOOTH"
);
}
);
width = 545;
}
);
leftKerningGroup = a;
rightKerningGroup = a;
unicode = 1EB5;
},
{
glyphname = uni1EA5;
lastChange = "2018-11-02 02:50:07 +0000";
layers = (
{
layerId = "A3FA1D5A-5B70-4048-948C-F73CFEE83353";
name = Bold;
paths = (
{
closed = 1;
nodes = (
"430 723 LINE",
"360 757 LINE",
"455 944 LINE",
"556 894 LINE"
);
},
{
closed = 1;
nodes = (
"311 770 LINE",
"446 627 LINE",
"386 573 LINE",
"263 680 LINE",
"140 573 LINE",
"80 627 LINE",
"215 770 LINE"
);
},
{
closed = 1;
nodes = (
"156 534 OFFCURVE",
"96 494 OFFCURVE",
"57 434 CURVE",
"133 366 LINE",
"158 402 OFFCURVE",
"192 432 OFFCURVE",
"252 432 CURVE SMOOTH",
"320 432 OFFCURVE",
"349 399 OFFCURVE",
"349 340 CURVE SMOOTH",
"349 302 LINE",
"260 302 LINE SMOOTH",
"117 302 OFFCURVE",
"37 250 OFFCURVE",
"37 142 CURVE SMOOTH",
"37 49 OFFCURVE",
"96 -12 OFFCURVE",
"203 -12 CURVE SMOOTH",
"282 -12 OFFCURVE",
"338 22 OFFCURVE",
"355 90 CURVE",
"361 90 LINE",
"361 0 LINE",
"477 0 LINE",
"477 348 LINE SMOOTH",
"477 468 OFFCURVE",
"402 534 OFFCURVE",
"261 534 CURVE SMOOTH"
);
},
{
closed = 1;
nodes = (
"349 107 OFFCURVE",
"303 81 OFFCURVE",
"246 81 CURVE SMOOTH",
"195 81 OFFCURVE",
"167 101 OFFCURVE",
"167 144 CURVE SMOOTH",
"167 161 LINE SMOOTH",
"167 204 OFFCURVE",
"200 225 OFFCURVE",
"267 225 CURVE SMOOTH",
"349 225 LINE",
"349 156 LINE SMOOTH"
);
}
);
width = 545;
}
);
leftKerningGroup = a;
rightKerningGroup = a;
unicode = 1EA5;
},
{
glyphname = uni1EAD;
lastChange = "2018-11-02 02:50:07 +0000";
layers = (
{
layerId = "A3FA1D5A-5B70-4048-948C-F73CFEE83353";
name = Bold;
paths = (
{
closed = 1;
nodes = (
"322 786 LINE",
"448 632 LINE",
"384 582 LINE",
"264 697 LINE",
"144 582 LINE",
"80 632 LINE",
"206 786 LINE"
);
},
{
closed = 1;
nodes = (
"210 -194 OFFCURVE",
"190 -169 OFFCURVE",
"190 -136 CURVE SMOOTH",
"190 -114 LINE SMOOTH",
"190 -81 OFFCURVE",
"210 -56 OFFCURVE",
"262 -56 CURVE SMOOTH",
"314 -56 OFFCURVE",
"334 -81 OFFCURVE",
"334 -114 CURVE SMOOTH",
"334 -136 LINE SMOOTH",
"334 -169 OFFCURVE",
"314 -194 OFFCURVE",
"262 -194 CURVE SMOOTH"
);
},
{
closed = 1;
nodes = (
"156 534 OFFCURVE",
"96 494 OFFCURVE",
"57 434 CURVE",
"133 366 LINE",
"158 402 OFFCURVE",
"192 432 OFFCURVE",
"252 432 CURVE SMOOTH",
"320 432 OFFCURVE",
"349 399 OFFCURVE",
"349 340 CURVE SMOOTH",
"349 302 LINE",
"260 302 LINE SMOOTH",
"117 302 OFFCURVE",
"37 250 OFFCURVE",
"37 142 CURVE SMOOTH",
"37 49 OFFCURVE",
"96 -12 OFFCURVE",
"203 -12 CURVE SMOOTH",
"282 -12 OFFCURVE",
"338 22 OFFCURVE",
"355 90 CURVE",
"361 90 LINE",
"361 0 LINE",
"477 0 LINE",
"477 348 LINE SMOOTH",
"477 468 OFFCURVE",
"402 534 OFFCURVE",
"261 534 CURVE SMOOTH"
);
},
{
closed = 1;
nodes = (
"349 107 OFFCURVE",
"303 81 OFFCURVE",
"246 81 CURVE SMOOTH",
"195 81 OFFCURVE",
"167 101 OFFCURVE",
"167 144 CURVE SMOOTH",
"167 161 LINE SMOOTH",
"167 204 OFFCURVE",
"200 225 OFFCURVE",
"267 225 CURVE SMOOTH",
"349 225 LINE",
"349 156 LINE SMOOTH"
);
}
);
width = 545;
}
);
leftKerningGroup = a;
rightKerningGroup = a;
unicode = 1EAD;
},
{
glyphname = uni1EA7;
lastChange = "2018-11-02 02:50:08 +0000";
layers = (
{
layerId = "A3FA1D5A-5B70-4048-948C-F73CFEE83353";
name = Bold;
paths = (
{
closed = 1;
nodes = (
"-30 894 LINE",
"71 944 LINE",
"166 757 LINE",
"96 723 LINE"
);
},
{
closed = 1;
nodes = (
"311 770 LINE",
"446 627 LINE",
"386 573 LINE",
"263 680 LINE",
"140 573 LINE",
"80 627 LINE",
"215 770 LINE"
);
},
{
closed = 1;
nodes = (
"156 534 OFFCURVE",
"96 494 OFFCURVE",
"57 434 CURVE",
"133 366 LINE",
"158 402 OFFCURVE",
"192 432 OFFCURVE",
"252 432 CURVE SMOOTH",
"320 432 OFFCURVE",
"349 399 OFFCURVE",
"349 340 CURVE SMOOTH",
"349 302 LINE",
"260 302 LINE SMOOTH",
"117 302 OFFCURVE",
"37 250 OFFCURVE",
"37 142 CURVE SMOOTH",
"37 49 OFFCURVE",
"96 -12 OFFCURVE",
"203 -12 CURVE SMOOTH",
"282 -12 OFFCURVE",
"338 22 OFFCURVE",
"355 90 CURVE",
"361 90 LINE",
"361 0 LINE",
"477 0 LINE",
"477 348 LINE SMOOTH",
"477 468 OFFCURVE",
"402 534 OFFCURVE",
"261 534 CURVE SMOOTH"
);
},
{
closed = 1;
nodes = (
"349 107 OFFCURVE",
"303 81 OFFCURVE",
"246 81 CURVE SMOOTH",
"195 81 OFFCURVE",
"167 101 OFFCURVE",
"167 144 CURVE SMOOTH",
"167 161 LINE SMOOTH",
"167 204 OFFCURVE",
"200 225 OFFCURVE",
"267 225 CURVE SMOOTH",
"349 225 LINE",
"349 156 LINE SMOOTH"
);
}
);
width = 545;
}
);
leftKerningGroup = a;
rightKerningGroup = a;
unicode = 1EA7;
},
{
glyphname = uni1EA9;
lastChange = "2018-11-02 02:50:08 +0000";
layers = (
{
layerId = "A3FA1D5A-5B70-4048-948C-F73CFEE83353";
name = Bold;
paths = (
{
closed = 1;
nodes = (
"305 931 LINE",
"431 931 LINE SMOOTH",
"498 931 OFFCURVE",
"521 899 OFFCURVE",
"521 864 CURVE SMOOTH",
"521 827 OFFCURVE",
"494 784 OFFCURVE",
"462 744 CURVE SMOOTH",
"436 712 LINE",
"376 742 LINE",
"424 842 LINE",
"305 842 LINE"
);
},
{
closed = 1;
nodes = (
"311 770 LINE",
"446 627 LINE",
"386 573 LINE",
"263 680 LINE",
"140 573 LINE",
"80 627 LINE",
"215 770 LINE"
);
},
{
closed = 1;
nodes = (
"156 534 OFFCURVE",
"96 494 OFFCURVE",
"57 434 CURVE",
"133 366 LINE",
"158 402 OFFCURVE",
"192 432 OFFCURVE",
"252 432 CURVE SMOOTH",
"320 432 OFFCURVE",
"349 399 OFFCURVE",
"349 340 CURVE SMOOTH",
"349 302 LINE",
"260 302 LINE SMOOTH",
"117 302 OFFCURVE",
"37 250 OFFCURVE",
"37 142 CURVE SMOOTH",
"37 49 OFFCURVE",
"96 -12 OFFCURVE",
"203 -12 CURVE SMOOTH",
"282 -12 OFFCURVE",
"338 22 OFFCURVE",
"355 90 CURVE",
"361 90 LINE",
"361 0 LINE",
"477 0 LINE",
"477 348 LINE SMOOTH",
"477 468 OFFCURVE",
"402 534 OFFCURVE",
"261 534 CURVE SMOOTH"
);
},
{
closed = 1;
nodes = (
"349 107 OFFCURVE",
"303 81 OFFCURVE",
"246 81 CURVE SMOOTH",
"195 81 OFFCURVE",
"167 101 OFFCURVE",
"167 144 CURVE SMOOTH",
"167 161 LINE SMOOTH",
"167 204 OFFCURVE",
"200 225 OFFCURVE",
"267 225 CURVE SMOOTH",
"349 225 LINE",
"349 156 LINE SMOOTH"
);
}
);
width = 545;
}
);
leftKerningGroup = a;
rightKerningGroup = a;
unicode = 1EA9;
},
{
glyphname = uni1EAB;
lastChange = "2018-11-02 02:50:09 +0000";
layers = (
{
layerId = "A3FA1D5A-5B70-4048-948C-F73CFEE83353";
name = Bold;
paths = (
{
closed = 1;
nodes = (
"220 925 OFFCURVE",
"243 914 OFFCURVE",
"267 903 CURVE SMOOTH",
"298 890 OFFCURVE",
"319 881 OFFCURVE",
"342 881 CURVE SMOOTH",
"365 881 OFFCURVE",
"380 889 OFFCURVE",
"401 906 CURVE",
"446 850 LINE",
"423 817 OFFCURVE",
"388 790 OFFCURVE",
"337 790 CURVE SMOOTH",
"306 790 OFFCURVE",
"283 800 OFFCURVE",
"259 811 CURVE SMOOTH",
"228 826 OFFCURVE",
"207 834 OFFCURVE",
"184 834 CURVE SMOOTH",
"161 834 OFFCURVE",
"146 825 OFFCURVE",
"125 808 CURVE",
"80 864 LINE",
"103 897 OFFCURVE",
"138 925 OFFCURVE",
"189 925 CURVE SMOOTH"
);
},
{
closed = 1;
nodes = (
"312 761 LINE",
"444 627 LINE",
"386 573 LINE",
"263 673 LINE",
"140 573 LINE",
"82 627 LINE",
"214 761 LINE"
);
},
{
closed = 1;
nodes = (
"156 534 OFFCURVE",
"96 494 OFFCURVE",
"57 434 CURVE",
"133 366 LINE",
"158 402 OFFCURVE",
"192 432 OFFCURVE",
"252 432 CURVE SMOOTH",
"320 432 OFFCURVE",
"349 399 OFFCURVE",
"349 340 CURVE SMOOTH",
"349 302 LINE",
"260 302 LINE SMOOTH",
"117 302 OFFCURVE",
"37 250 OFFCURVE",
"37 142 CURVE SMOOTH",
"37 49 OFFCURVE",
"96 -12 OFFCURVE",
"203 -12 CURVE SMOOTH",
"282 -12 OFFCURVE",
"338 22 OFFCURVE",
"355 90 CURVE",
"361 90 LINE",
"361 0 LINE",
"477 0 LINE",
"477 348 LINE SMOOTH",
"477 468 OFFCURVE",
"402 534 OFFCURVE",
"261 534 CURVE SMOOTH"
);
},
{
closed = 1;
nodes = (
"349 107 OFFCURVE",
"303 81 OFFCURVE",
"246 81 CURVE SMOOTH",
"195 81 OFFCURVE",
"167 101 OFFCURVE",
"167 144 CURVE SMOOTH",
"167 161 LINE SMOOTH",
"167 204 OFFCURVE",
"200 225 OFFCURVE",
"267 225 CURVE SMOOTH",
"349 225 LINE",
"349 156 LINE SMOOTH"
);
}
);
width = 545;
}
);
leftKerningGroup = a;
rightKerningGroup = a;
unicode = 1EAB;
},
{
glyphname = ae;
layers = (
{
layerId = "A3FA1D5A-5B70-4048-948C-F73CFEE83353";
name = Bold;
paths = (
{
closed = 1;
nodes = (
"267 229 LINE SMOOTH",
"203 228 OFFCURVE",
"167 206 OFFCURVE",
"167 163 CURVE SMOOTH",
"167 147 LINE SMOOTH",
"167 104 OFFCURVE",
"194 81 OFFCURVE",
"247 81 CURVE SMOOTH",
"303 81 OFFCURVE",
"349 107 OFFCURVE",
"349 156 CURVE SMOOTH",
"349 229 LINE"
);
},
{
closed = 1;
nodes = (
"692 308 LINE",
"692 317 LINE SMOOTH",
"692 389 OFFCURVE",
"656 438 OFFCURVE",
"589 438 CURVE SMOOTH",
"521 438 OFFCURVE",
"478 388 OFFCURVE",
"478 316 CURVE SMOOTH",
"478 308 LINE"
);
},
{
closed = 1;
nodes = (
"670 92 OFFCURVE",
"711 122 OFFCURVE",
"740 161 CURVE",
"809 84 LINE",
"766 24 OFFCURVE",
"691 -12 OFFCURVE",
"596 -12 CURVE SMOOTH",
"545 -12 OFFCURVE",
"501 1 OFFCURVE",
"467 21 CURVE SMOOTH",
"433 41 OFFCURVE",
"408 67 OFFCURVE",
"396 95 CURVE",
"390 95 LINE",
"381 68 OFFCURVE",
"362 42 OFFCURVE",
"331 22 CURVE SMOOTH",
"300 2 OFFCURVE",
"259 -12 OFFCURVE",
"203 -12 CURVE SMOOTH",
"98 -12 OFFCURVE",
"37 51 OFFCURVE",
"37 143 CURVE SMOOTH",
"37 198 OFFCURVE",
"59 239 OFFCURVE",
"98 267 CURVE SMOOTH",
"137 294 OFFCURVE",
"192 308 OFFCURVE",
"260 308 CURVE SMOOTH",
"349 308 LINE",
"349 340 LINE SMOOTH",
"349 399 OFFCURVE",
"320 432 OFFCURVE",
"253 432 CURVE SMOOTH",
"192 432 OFFCURVE",
"158 403 OFFCURVE",
"133 366 CURVE",
"57 434 LINE",
"96 494 OFFCURVE",
"156 534 OFFCURVE",
"261 534 CURVE SMOOTH",
"341 534 OFFCURVE",
"386 497 OFFCURVE",
"413 448 CURVE",
"419 448 LINE",
"446 497 OFFCURVE",
"508 534 OFFCURVE",
"592 534 CURVE SMOOTH",
"673 534 OFFCURVE",
"732 504 OFFCURVE",
"770 456 CURVE SMOOTH",
"808 408 OFFCURVE",
"825 343 OFFCURVE",
"825 271 CURVE SMOOTH",
"825 229 LINE",
"477 229 LINE",
"477 216 LINE SMOOTH",
"477 141 OFFCURVE",
"524 92 OFFCURVE",
"607 92 CURVE SMOOTH"
);
}
);
width = 864;
}
);
leftKerningGroup = a;
rightKerningGroup = e;
unicode = 00E6;
},
{
glyphname = aeacute;
layers = (
{
layerId = "A3FA1D5A-5B70-4048-948C-F73CFEE83353";
name = Bold;
paths = (
{
closed = 1;
nodes = (
"440 581 LINE",
"363 618 LINE",
"458 805 LINE",
"566 752 LINE"
);
},
{
closed = 1;
nodes = (
"267 229 LINE SMOOTH",
"203 228 OFFCURVE",
"167 206 OFFCURVE",
"167 163 CURVE SMOOTH",
"167 147 LINE SMOOTH",
"167 104 OFFCURVE",
"194 81 OFFCURVE",
"247 81 CURVE SMOOTH",
"303 81 OFFCURVE",
"349 107 OFFCURVE",
"349 156 CURVE SMOOTH",
"349 229 LINE"
);
},
{
closed = 1;
nodes = (
"692 308 LINE",
"692 317 LINE SMOOTH",
"692 389 OFFCURVE",
"656 438 OFFCURVE",
"589 438 CURVE SMOOTH",
"521 438 OFFCURVE",
"478 388 OFFCURVE",
"478 316 CURVE SMOOTH",
"478 308 LINE"
);
},
{
closed = 1;
nodes = (
"670 92 OFFCURVE",
"711 122 OFFCURVE",
"740 161 CURVE",
"809 84 LINE",
"766 24 OFFCURVE",
"691 -12 OFFCURVE",
"596 -12 CURVE SMOOTH",
"545 -12 OFFCURVE",
"501 1 OFFCURVE",
"467 21 CURVE SMOOTH",
"433 41 OFFCURVE",
"408 67 OFFCURVE",
"396 95 CURVE",
"390 95 LINE",
"381 68 OFFCURVE",
"362 42 OFFCURVE",
"331 22 CURVE SMOOTH",
"300 2 OFFCURVE",
"259 -12 OFFCURVE",
"203 -12 CURVE SMOOTH",
"98 -12 OFFCURVE",
"37 51 OFFCURVE",
"37 143 CURVE SMOOTH",
"37 198 OFFCURVE",
"59 239 OFFCURVE",
"98 267 CURVE SMOOTH",
"137 294 OFFCURVE",
"192 308 OFFCURVE",
"260 308 CURVE SMOOTH",
"349 308 LINE",
"349 340 LINE SMOOTH",
"349 399 OFFCURVE",
"320 432 OFFCURVE",
"253 432 CURVE SMOOTH",
"192 432 OFFCURVE",
"158 403 OFFCURVE",
"133 366 CURVE",
"57 434 LINE",
"96 494 OFFCURVE",
"156 534 OFFCURVE",
"261 534 CURVE SMOOTH",
"341 534 OFFCURVE",
"386 497 OFFCURVE",
"413 448 CURVE",
"419 448 LINE",
"446 497 OFFCURVE",
"508 534 OFFCURVE",
"592 534 CURVE SMOOTH",
"673 534 OFFCURVE",
"732 504 OFFCURVE",
"770 456 CURVE SMOOTH",
"808 408 OFFCURVE",
"825 343 OFFCURVE",
"825 271 CURVE SMOOTH",
"825 229 LINE",
"477 229 LINE",
"477 216 LINE SMOOTH",
"477 141 OFFCURVE",
"524 92 OFFCURVE",
"607 92 CURVE SMOOTH"
);
}
);
width = 864;
}
);
leftKerningGroup = a;
rightKerningGroup = e;
unicode = 01FD;
},
{
glyphname = cacute;
layers = (
{
layerId = "A3FA1D5A-5B70-4048-948C-F73CFEE83353";
name = Bold;
paths = (
{
closed = 1;
nodes = (
"289 581 LINE",
"212 618 LINE",
"307 805 LINE",
"415 752 LINE"
);
},
{
closed = 1;
nodes = (
"203 -12 OFFCURVE",
"142 14 OFFCURVE",
"102 62 CURVE SMOOTH",
"61 110 OFFCURVE",
"39 178 OFFCURVE",
"39 262 CURVE SMOOTH",
"39 346 OFFCURVE",
"61 413 OFFCURVE",
"102 461 CURVE SMOOTH",
"142 508 OFFCURVE",
"203 534 OFFCURVE",
"280 534 CURVE SMOOTH",
"385 534 OFFCURVE",
"454 485 OFFCURVE",
"485 402 CURVE",
"380 355 LINE",
"368 399 OFFCURVE",
"336 431 OFFCURVE",
"280 431 CURVE SMOOTH",
"208 431 OFFCURVE",
"173 381 OFFCURVE",
"173 308 CURVE SMOOTH",
"173 213 LINE SMOOTH",
"173 140 OFFCURVE",
"208 91 OFFCURVE",
"280 91 CURVE SMOOTH",
"341 91 OFFCURVE",
"371 126 OFFCURVE",
"390 173 CURVE",
"488 126 LINE",
"453 34 OFFCURVE",
"381 -12 OFFCURVE",
"280 -12 CURVE SMOOTH"
);
}
);
width = 513;
}
);
leftKerningGroup = c;
rightKerningGroup = c;
unicode = 0107;
},
{
glyphname = ccaron;
layers = (
{
layerId = "A3FA1D5A-5B70-4048-948C-F73CFEE83353";
name = Bold;
paths = (
{
closed = 1;
nodes = (
"218 591 LINE",
"92 745 LINE",
"156 795 LINE",
"276 679 LINE",
"396 795 LINE",
"460 745 LINE",
"334 591 LINE"
);
},
{
closed = 1;
nodes = (
"203 -12 OFFCURVE",
"142 14 OFFCURVE",
"102 62 CURVE SMOOTH",
"61 110 OFFCURVE",
"39 178 OFFCURVE",
"39 262 CURVE SMOOTH",
"39 346 OFFCURVE",
"61 413 OFFCURVE",
"102 461 CURVE SMOOTH",
"142 508 OFFCURVE",
"203 534 OFFCURVE",
"280 534 CURVE SMOOTH",
"385 534 OFFCURVE",
"454 485 OFFCURVE",
"485 402 CURVE",
"380 355 LINE",
"368 399 OFFCURVE",
"336 431 OFFCURVE",
"280 431 CURVE SMOOTH",
"208 431 OFFCURVE",
"173 381 OFFCURVE",
"173 308 CURVE SMOOTH",
"173 213 LINE SMOOTH",
"173 140 OFFCURVE",
"208 91 OFFCURVE",
"280 91 CURVE SMOOTH",
"341 91 OFFCURVE",
"371 126 OFFCURVE",
"390 173 CURVE",
"488 126 LINE",
"453 34 OFFCURVE",
"381 -12 OFFCURVE",
"280 -12 CURVE SMOOTH"
);
}
);
width = 513;
}
);
leftKerningGroup = c;
rightKerningGroup = c;
unicode = 010D;
},
{
glyphname = ccedilla;
layers = (
{
layerId = "A3FA1D5A-5B70-4048-948C-F73CFEE83353";
name = Bold;
paths = (
{
closed = 1;
nodes = (
"385 534 OFFCURVE",
"454 485 OFFCURVE",
"485 402 CURVE",
"380 355 LINE",
"368 399 OFFCURVE",
"336 431 OFFCURVE",
"280 431 CURVE SMOOTH",
"208 431 OFFCURVE",
"173 381 OFFCURVE",
"173 308 CURVE SMOOTH",
"173 213 LINE SMOOTH",
"173 140 OFFCURVE",
"208 91 OFFCURVE",
"280 91 CURVE SMOOTH",
"341 91 OFFCURVE",
"371 126 OFFCURVE",
"390 173 CURVE",
"488 126 LINE",
"456 38 OFFCURVE",
"388 -8 OFFCURVE",
"293 -12 CURVE",
"284 -57 LINE",
"288 -60 LINE",
"303 -56 OFFCURVE",
"318 -54 OFFCURVE",
"333 -54 CURVE SMOOTH",
"373 -54 OFFCURVE",
"405 -75 OFFCURVE",
"405 -122 CURVE SMOOTH",
"405 -154 OFFCURVE",
"390 -176 OFFCURVE",
"367 -190 CURVE SMOOTH",
"343 -204 OFFCURVE",
"311 -211 OFFCURVE",
"279 -211 CURVE SMOOTH",
"214 -211 OFFCURVE",
"178 -187 OFFCURVE",
"162 -167 CURVE",
"206 -116 LINE",
"219 -132 OFFCURVE",
"239 -145 OFFCURVE",
"270 -145 CURVE SMOOTH",
"295 -145 OFFCURVE",
"314 -137 OFFCURVE",
"314 -118 CURVE SMOOTH",
"314 -110 OFFCURVE",
"311 -102 OFFCURVE",
"300 -94 CURVE",
"289 -87 OFFCURVE",
"272 -81 OFFCURVE",
"241 -77 CURVE",
"218 -75 LINE",
"232 -8 LINE",
"107 12 OFFCURVE",
"39 113 OFFCURVE",
"39 262 CURVE SMOOTH",
"39 346 OFFCURVE",
"61 413 OFFCURVE",
"102 461 CURVE SMOOTH",
"142 508 OFFCURVE",
"203 534 OFFCURVE",
"280 534 CURVE SMOOTH"
);
}
);
width = 513;
}
);
leftKerningGroup = c;
rightKerningGroup = c;
unicode = 00E7;
},
{
glyphname = ccircumflex;
layers = (
{
layerId = "A3FA1D5A-5B70-4048-948C-F73CFEE83353";
name = Bold;
paths = (
{
closed = 1;
nodes = (
"334 786 LINE",
"460 632 LINE",
"396 582 LINE",
"276 697 LINE",
"156 582 LINE",
"92 632 LINE",
"218 786 LINE"
);
},
{
closed = 1;
nodes = (
"203 -12 OFFCURVE",
"142 14 OFFCURVE",
"102 62 CURVE SMOOTH",
"61 110 OFFCURVE",
"39 178 OFFCURVE",
"39 262 CURVE SMOOTH",
"39 346 OFFCURVE",
"61 413 OFFCURVE",
"102 461 CURVE SMOOTH",
"142 508 OFFCURVE",
"203 534 OFFCURVE",
"280 534 CURVE SMOOTH",
"385 534 OFFCURVE",
"454 485 OFFCURVE",
"485 402 CURVE",
"380 355 LINE",
"368 399 OFFCURVE",
"336 431 OFFCURVE",
"280 431 CURVE SMOOTH",
"208 431 OFFCURVE",
"173 381 OFFCURVE",
"173 308 CURVE SMOOTH",
"173 213 LINE SMOOTH",
"173 140 OFFCURVE",
"208 91 OFFCURVE",
"280 91 CURVE SMOOTH",
"341 91 OFFCURVE",
"371 126 OFFCURVE",
"390 173 CURVE",
"488 126 LINE",
"453 34 OFFCURVE",
"381 -12 OFFCURVE",
"280 -12 CURVE SMOOTH"
);
}
);
width = 513;
}
);
leftKerningGroup = c;
rightKerningGroup = c;
unicode = 0109;
},
{
glyphname = cdotaccent;
layers = (
{
layerId = "A3FA1D5A-5B70-4048-948C-F73CFEE83353";
name = Bold;
paths = (
{
closed = 1;
nodes = (
"203 -12 OFFCURVE",
"142 14 OFFCURVE",
"102 62 CURVE SMOOTH",
"61 110 OFFCURVE",
"39 178 OFFCURVE",
"39 262 CURVE SMOOTH",
"39 346 OFFCURVE",
"61 413 OFFCURVE",
"102 461 CURVE SMOOTH",
"142 508 OFFCURVE",
"203 534 OFFCURVE",
"280 534 CURVE SMOOTH",
"385 534 OFFCURVE",
"454 485 OFFCURVE",
"485 402 CURVE",
"380 355 LINE",
"368 399 OFFCURVE",
"336 431 OFFCURVE",
"280 431 CURVE SMOOTH",
"208 431 OFFCURVE",
"173 381 OFFCURVE",
"173 308 CURVE SMOOTH",
"173 213 LINE SMOOTH",
"173 140 OFFCURVE",
"208 91 OFFCURVE",
"280 91 CURVE SMOOTH",
"341 91 OFFCURVE",
"371 126 OFFCURVE",
"390 173 CURVE",
"488 126 LINE",
"453 34 OFFCURVE",
"381 -12 OFFCURVE",
"280 -12 CURVE SMOOTH"
);
},
{
closed = 1;
nodes = (
"219 598 OFFCURVE",
"198 626 OFFCURVE",
"198 661 CURVE SMOOTH",
"198 685 LINE SMOOTH",
"198 721 OFFCURVE",
"219 748 OFFCURVE",
"276 748 CURVE SMOOTH",
"333 748 OFFCURVE",
"354 721 OFFCURVE",
"354 685 CURVE SMOOTH",
"354 661 LINE SMOOTH",
"354 626 OFFCURVE",
"333 598 OFFCURVE",
"276 598 CURVE SMOOTH"
);
}
);
width = 513;
}
);
leftKerningGroup = c;
rightKerningGroup = c;
unicode = 010B;
},
{
glyphname = dcaron;
layers = (
{
layerId = "A3FA1D5A-5B70-4048-948C-F73CFEE83353";
name = Bold;
paths = (
{
closed = 1;
nodes = (
"398 87 LINE",
"393 87 LINE",
"374 27 OFFCURVE",
"318 -12 OFFCURVE",
"249 -12 CURVE SMOOTH",
"117 -12 OFFCURVE",
"45 86 OFFCURVE",
"45 262 CURVE SMOOTH",
"45 437 OFFCURVE",
"117 534 OFFCURVE",
"249 534 CURVE SMOOTH",
"318 534 OFFCURVE",
"374 496 OFFCURVE",
"393 436 CURVE",
"398 436 LINE",
"398 740 LINE",
"526 740 LINE",
"526 0 LINE",
"398 0 LINE"
);
},
{
closed = 1;
nodes = (
"351 94 OFFCURVE",
"398 124 OFFCURVE",
"398 179 CURVE SMOOTH",
"398 345 LINE SMOOTH",
"398 396 OFFCURVE",
"351 429 OFFCURVE",
"290 429 CURVE SMOOTH",
"223 429 OFFCURVE",
"179 381 OFFCURVE",
"179 306 CURVE SMOOTH",
"179 216 LINE SMOOTH",
"179 141 OFFCURVE",
"223 94 OFFCURVE",
"290 94 CURVE SMOOTH"
);
},
{
closed = 1;
nodes = (
"672 534 LINE",
"588 534 LINE",
"596 740 LINE",
"734 740 LINE"
);
}
);
width = 600;
}
);
leftKerningGroup = d;
rightKerningGroup = dcaron;
unicode = 010F;
},
{
glyphname = dcroat;
layers = (
{
layerId = "A3FA1D5A-5B70-4048-948C-F73CFEE83353";
name = Bold;
paths = (
{
closed = 1;
nodes = (
"398 87 LINE",
"393 87 LINE",
"374 27 OFFCURVE",
"318 -12 OFFCURVE",
"249 -12 CURVE SMOOTH",
"117 -12 OFFCURVE",
"45 86 OFFCURVE",
"45 262 CURVE SMOOTH",
"45 437 OFFCURVE",
"117 534 OFFCURVE",
"249 534 CURVE SMOOTH",
"318 534 OFFCURVE",
"374 496 OFFCURVE",
"393 436 CURVE",
"398 436 LINE",
"398 595 LINE",
"254 595 LINE",
"254 684 LINE",
"398 684 LINE",
"398 740 LINE",
"526 740 LINE",
"526 684 LINE",
"588 684 LINE",
"588 595 LINE",
"526 595 LINE",
"526 0 LINE",
"398 0 LINE"
);
},
{
closed = 1;
nodes = (
"351 94 OFFCURVE",
"398 124 OFFCURVE",
"398 179 CURVE SMOOTH",
"398 345 LINE SMOOTH",
"398 396 OFFCURVE",
"351 429 OFFCURVE",
"290 429 CURVE SMOOTH",
"223 429 OFFCURVE",
"179 381 OFFCURVE",
"179 306 CURVE SMOOTH",
"179 216 LINE SMOOTH",
"179 141 OFFCURVE",
"223 94 OFFCURVE",
"290 94 CURVE SMOOTH"
);
}
);
width = 600;
}
);
leftKerningGroup = d;
unicode = 0111;
},
{
glyphname = eth;
layers = (
{
layerId = "A3FA1D5A-5B70-4048-948C-F73CFEE83353";
name = Bold;
paths = (
{
closed = 1;
nodes = (
"461 699 LINE",
"387 651 LINE",
"479 555 OFFCURVE",
"540 429 OFFCURVE",
"540 276 CURVE SMOOTH",
"540 177 OFFCURVE",
"515 105 OFFCURVE",
"472 58 CURVE SMOOTH",
"428 10 OFFCURVE",
"367 -12 OFFCURVE",
"294 -12 CURVE SMOOTH",
"215 -12 OFFCURVE",
"153 14 OFFCURVE",
"110 59 CURVE SMOOTH",
"66 104 OFFCURVE",
"43 171 OFFCURVE",
"43 251 CURVE SMOOTH",
"43 326 OFFCURVE",
"63 388 OFFCURVE",
"99 432 CURVE SMOOTH",
"135 476 OFFCURVE",
"187 501 OFFCURVE",
"250 501 CURVE SMOOTH",
"322 501 OFFCURVE",
"370 463 OFFCURVE",
"398 403 CURVE",
"404 406 LINE",
"388 474 OFFCURVE",
"345 535 OFFCURVE",
"288 591 CURVE",
"202 537 LINE",
"156 592 LINE",
"234 639 LINE",
"187 678 OFFCURVE",
"135 711 OFFCURVE",
"83 740 CURVE",
"278 740 LINE",
"287 735 OFFCURVE",
"296 729 OFFCURVE",
"305 722 CURVE SMOOTH",
"314 715 OFFCURVE",
"323 707 OFFCURVE",
"332 700 CURVE",
"416 753 LINE"
);
},
{
closed = 1;
nodes = (
"363 86 OFFCURVE",
"407 134 OFFCURVE",
"407 215 CURVE SMOOTH",
"407 273 LINE SMOOTH",
"407 354 OFFCURVE",
"363 402 OFFCURVE",
"292 402 CURVE SMOOTH",
"220 402 OFFCURVE",
"176 354 OFFCURVE",
"176 273 CURVE SMOOTH",
"176 215 LINE SMOOTH",
"176 134 OFFCURVE",
"220 86 OFFCURVE",
"292 86 CURVE SMOOTH"
);
}
);
width = 589;
}
);
leftKerningGroup = d;
rightKerningGroup = o;
unicode = 00F0;
},
{
glyphname = eacute;
layers = (
{
layerId = "A3FA1D5A-5B70-4048-948C-F73CFEE83353";
name = Bold;
paths = (
{
closed = 1;
nodes = (
"299 581 LINE",
"222 618 LINE",
"317 805 LINE",
"425 752 LINE"
);
},
{
closed = 1;
nodes = (
"208 -12 OFFCURVE",
"147 15 OFFCURVE",
"105 63 CURVE SMOOTH",
"63 110 OFFCURVE",
"39 178 OFFCURVE",
"39 262 CURVE SMOOTH",
"39 345 OFFCURVE",
"62 412 OFFCURVE",
"103 460 CURVE SMOOTH",
"144 507 OFFCURVE",
"205 534 OFFCURVE",
"281 534 CURVE SMOOTH",
"362 534 OFFCURVE",
"422 504 OFFCURVE",
"461 456 CURVE SMOOTH",
"500 408 OFFCURVE",
"519 343 OFFCURVE",
"519 271 CURVE SMOOTH",
"519 229 LINE",
"172 229 LINE",
"172 216 LINE SMOOTH",
"172 140 OFFCURVE",
"215 90 OFFCURVE",
"299 90 CURVE SMOOTH",
"363 90 OFFCURVE",
"400 120 OFFCURVE",
"432 161 CURVE",
"501 84 LINE",
"458 24 OFFCURVE",
"382 -12 OFFCURVE",
"285 -12 CURVE SMOOTH"
);
},
{
closed = 1;
nodes = (
"215 438 OFFCURVE",
"172 388 OFFCURVE",
"172 316 CURVE SMOOTH",
"172 308 LINE",
"386 308 LINE",
"386 317 LINE SMOOTH",
"386 389 OFFCURVE",
"350 438 OFFCURVE",
"283 438 CURVE SMOOTH"
);
}
);
width = 558;
}
);
leftKerningGroup = c;
rightKerningGroup = e;
unicode = 00E9;
},
{
glyphname = ebreve;
layers = (
{
layerId = "A3FA1D5A-5B70-4048-948C-F73CFEE83353";
name = Bold;
paths = (
{
closed = 1;
nodes = (
"208 -12 OFFCURVE",
"147 15 OFFCURVE",
"105 63 CURVE SMOOTH",
"63 110 OFFCURVE",
"39 178 OFFCURVE",
"39 262 CURVE SMOOTH",
"39 345 OFFCURVE",
"62 412 OFFCURVE",
"103 460 CURVE SMOOTH",
"144 507 OFFCURVE",
"205 534 OFFCURVE",
"281 534 CURVE SMOOTH",
"362 534 OFFCURVE",
"422 504 OFFCURVE",
"461 456 CURVE SMOOTH",
"500 408 OFFCURVE",
"519 343 OFFCURVE",
"519 271 CURVE SMOOTH",
"519 229 LINE",
"172 229 LINE",
"172 216 LINE SMOOTH",
"172 140 OFFCURVE",
"215 90 OFFCURVE",
"299 90 CURVE SMOOTH",
"363 90 OFFCURVE",
"400 120 OFFCURVE",
"432 161 CURVE",
"501 84 LINE",
"458 24 OFFCURVE",
"382 -12 OFFCURVE",
"285 -12 CURVE SMOOTH"
);
},
{
closed = 1;
nodes = (
"215 438 OFFCURVE",
"172 388 OFFCURVE",
"172 316 CURVE SMOOTH",
"172 308 LINE",
"386 308 LINE",
"386 317 LINE SMOOTH",
"386 389 OFFCURVE",
"350 438 OFFCURVE",
"283 438 CURVE SMOOTH"
);
},
{
closed = 1;
nodes = (
"229 584 OFFCURVE",
"190 606 OFFCURVE",
"162 638 CURVE SMOOTH",
"134 669 OFFCURVE",
"119 708 OFFCURVE",
"107 741 CURVE",
"178 777 LINE",
"198 744 LINE SMOOTH",
"225 701 OFFCURVE",
"246 675 OFFCURVE",
"286 675 CURVE SMOOTH",
"326 675 OFFCURVE",
"348 701 OFFCURVE",
"375 744 CURVE SMOOTH",
"395 777 LINE",
"465 741 LINE",
"453 708 OFFCURVE",
"436 669 OFFCURVE",
"408 638 CURVE SMOOTH",
"380 606 OFFCURVE",
"342 584 OFFCURVE",
"286 584 CURVE SMOOTH"
);
}
);
width = 558;
}
);
leftKerningGroup = c;
rightKerningGroup = e;
unicode = 0115;
},
{
glyphname = ecaron;
layers = (
{
layerId = "A3FA1D5A-5B70-4048-948C-F73CFEE83353";
name = Bold;
paths = (
{
closed = 1;
nodes = (
"228 591 LINE",
"102 745 LINE",
"166 795 LINE",
"286 679 LINE",
"406 795 LINE",
"470 745 LINE",
"344 591 LINE"
);
},
{
closed = 1;
nodes = (
"208 -12 OFFCURVE",
"147 15 OFFCURVE",
"105 63 CURVE SMOOTH",
"63 110 OFFCURVE",
"39 178 OFFCURVE",
"39 262 CURVE SMOOTH",
"39 345 OFFCURVE",
"62 412 OFFCURVE",
"103 460 CURVE SMOOTH",
"144 507 OFFCURVE",
"205 534 OFFCURVE",
"281 534 CURVE SMOOTH",
"362 534 OFFCURVE",
"422 504 OFFCURVE",
"461 456 CURVE SMOOTH",
"500 408 OFFCURVE",
"519 343 OFFCURVE",
"519 271 CURVE SMOOTH",
"519 229 LINE",
"172 229 LINE",
"172 216 LINE SMOOTH",
"172 140 OFFCURVE",
"215 90 OFFCURVE",
"299 90 CURVE SMOOTH",
"363 90 OFFCURVE",
"400 120 OFFCURVE",
"432 161 CURVE",
"501 84 LINE",
"458 24 OFFCURVE",
"382 -12 OFFCURVE",
"285 -12 CURVE SMOOTH"
);
},
{
closed = 1;
nodes = (
"215 438 OFFCURVE",
"172 388 OFFCURVE",
"172 316 CURVE SMOOTH",
"172 308 LINE",
"386 308 LINE",
"386 317 LINE SMOOTH",
"386 389 OFFCURVE",
"350 438 OFFCURVE",
"283 438 CURVE SMOOTH"
);
}
);
width = 558;
}
);
leftKerningGroup = c;
rightKerningGroup = e;
unicode = 011B;
},
{
glyphname = ecircumflex;
layers = (
{
layerId = "A3FA1D5A-5B70-4048-948C-F73CFEE83353";
name = Bold;
paths = (
{
closed = 1;
nodes = (
"344 786 LINE",
"470 632 LINE",
"406 582 LINE",
"286 697 LINE",
"166 582 LINE",
"102 632 LINE",
"228 786 LINE"
);
},
{
closed = 1;
nodes = (
"208 -12 OFFCURVE",
"147 15 OFFCURVE",
"105 63 CURVE SMOOTH",
"63 110 OFFCURVE",
"39 178 OFFCURVE",
"39 262 CURVE SMOOTH",
"39 345 OFFCURVE",
"62 412 OFFCURVE",
"103 460 CURVE SMOOTH",
"144 507 OFFCURVE",
"205 534 OFFCURVE",
"281 534 CURVE SMOOTH",
"362 534 OFFCURVE",
"422 504 OFFCURVE",
"461 456 CURVE SMOOTH",
"500 408 OFFCURVE",
"519 343 OFFCURVE",
"519 271 CURVE SMOOTH",
"519 229 LINE",
"172 229 LINE",
"172 216 LINE SMOOTH",
"172 140 OFFCURVE",
"215 90 OFFCURVE",
"299 90 CURVE SMOOTH",
"363 90 OFFCURVE",
"400 120 OFFCURVE",
"432 161 CURVE",
"501 84 LINE",
"458 24 OFFCURVE",
"382 -12 OFFCURVE",
"285 -12 CURVE SMOOTH"
);
},
{
closed = 1;
nodes = (
"215 438 OFFCURVE",
"172 388 OFFCURVE",
"172 316 CURVE SMOOTH",
"172 308 LINE",
"386 308 LINE",
"386 317 LINE SMOOTH",
"386 389 OFFCURVE",
"350 438 OFFCURVE",
"283 438 CURVE SMOOTH"
);
}
);
width = 558;
}
);
leftKerningGroup = c;
rightKerningGroup = e;
unicode = 00EA;
},
{
glyphname = edieresis;
layers = (
{
layerId = "A3FA1D5A-5B70-4048-948C-F73CFEE83353";
name = Bold;
paths = (
{
closed = 1;
nodes = (
"129 605 OFFCURVE",
"110 630 OFFCURVE",
"110 663 CURVE SMOOTH",
"110 684 LINE SMOOTH",
"110 717 OFFCURVE",
"129 742 OFFCURVE",
"181 742 CURVE SMOOTH",
"233 742 OFFCURVE",
"252 717 OFFCURVE",
"252 684 CURVE SMOOTH",
"252 663 LINE SMOOTH",
"252 630 OFFCURVE",
"233 605 OFFCURVE",
"181 605 CURVE SMOOTH"
);
},
{
closed = 1;
nodes = (
"339 605 OFFCURVE",
"320 630 OFFCURVE",
"320 663 CURVE SMOOTH",
"320 684 LINE SMOOTH",
"320 717 OFFCURVE",
"339 742 OFFCURVE",
"391 742 CURVE SMOOTH",
"443 742 OFFCURVE",
"462 717 OFFCURVE",
"462 684 CURVE SMOOTH",
"462 663 LINE SMOOTH",
"462 630 OFFCURVE",
"443 605 OFFCURVE",
"391 605 CURVE SMOOTH"
);
},
{
closed = 1;
nodes = (
"208 -12 OFFCURVE",
"147 15 OFFCURVE",
"105 63 CURVE SMOOTH",
"63 110 OFFCURVE",
"39 178 OFFCURVE",
"39 262 CURVE SMOOTH",
"39 345 OFFCURVE",
"62 412 OFFCURVE",
"103 460 CURVE SMOOTH",
"144 507 OFFCURVE",
"205 534 OFFCURVE",
"281 534 CURVE SMOOTH",
"362 534 OFFCURVE",
"422 504 OFFCURVE",
"461 456 CURVE SMOOTH",
"500 408 OFFCURVE",
"519 343 OFFCURVE",
"519 271 CURVE SMOOTH",
"519 229 LINE",
"172 229 LINE",
"172 216 LINE SMOOTH",
"172 140 OFFCURVE",
"215 90 OFFCURVE",
"299 90 CURVE SMOOTH",
"363 90 OFFCURVE",
"400 120 OFFCURVE",
"432 161 CURVE",
"501 84 LINE",
"458 24 OFFCURVE",
"382 -12 OFFCURVE",
"285 -12 CURVE SMOOTH"
);
},
{
closed = 1;
nodes = (
"215 438 OFFCURVE",
"172 388 OFFCURVE",
"172 316 CURVE SMOOTH",
"172 308 LINE",
"386 308 LINE",
"386 317 LINE SMOOTH",
"386 389 OFFCURVE",
"350 438 OFFCURVE",
"283 438 CURVE SMOOTH"
);
}
);
width = 558;
}
);
leftKerningGroup = c;
rightKerningGroup = e;
unicode = 00EB;
},
{
glyphname = edotaccent;
layers = (
{
layerId = "A3FA1D5A-5B70-4048-948C-F73CFEE83353";
name = Bold;
paths = (
{
closed = 1;
nodes = (
"208 -12 OFFCURVE",
"147 15 OFFCURVE",
"105 63 CURVE SMOOTH",
"63 110 OFFCURVE",
"39 178 OFFCURVE",
"39 262 CURVE SMOOTH",
"39 345 OFFCURVE",
"62 412 OFFCURVE",
"103 460 CURVE SMOOTH",
"144 507 OFFCURVE",
"205 534 OFFCURVE",
"281 534 CURVE SMOOTH",
"362 534 OFFCURVE",
"422 504 OFFCURVE",
"461 456 CURVE SMOOTH",
"500 408 OFFCURVE",
"519 343 OFFCURVE",
"519 271 CURVE SMOOTH",
"519 229 LINE",
"172 229 LINE",
"172 216 LINE SMOOTH",
"172 140 OFFCURVE",
"215 90 OFFCURVE",
"299 90 CURVE SMOOTH",
"363 90 OFFCURVE",
"400 120 OFFCURVE",
"432 161 CURVE",
"501 84 LINE",
"458 24 OFFCURVE",
"382 -12 OFFCURVE",
"285 -12 CURVE SMOOTH"
);
},
{
closed = 1;
nodes = (
"215 438 OFFCURVE",
"172 388 OFFCURVE",
"172 316 CURVE SMOOTH",
"172 308 LINE",
"386 308 LINE",
"386 317 LINE SMOOTH",
"386 389 OFFCURVE",
"350 438 OFFCURVE",
"283 438 CURVE SMOOTH"
);
},
{
closed = 1;
nodes = (
"229 598 OFFCURVE",
"208 626 OFFCURVE",
"208 661 CURVE SMOOTH",
"208 685 LINE SMOOTH",
"208 721 OFFCURVE",
"229 748 OFFCURVE",
"286 748 CURVE SMOOTH",
"343 748 OFFCURVE",
"364 721 OFFCURVE",
"364 685 CURVE SMOOTH",
"364 661 LINE SMOOTH",
"364 626 OFFCURVE",
"343 598 OFFCURVE",
"286 598 CURVE SMOOTH"
);
}
);
width = 558;
}
);
leftKerningGroup = c;
rightKerningGroup = e;
unicode = 0117;
},
{
glyphname = uni1EB9;
layers = (
{
layerId = "A3FA1D5A-5B70-4048-948C-F73CFEE83353";
name = Bold;
paths = (
{
closed = 1;
nodes = (
"208 -12 OFFCURVE",
"147 15 OFFCURVE",
"105 63 CURVE SMOOTH",
"63 110 OFFCURVE",
"39 178 OFFCURVE",
"39 262 CURVE SMOOTH",
"39 345 OFFCURVE",
"62 412 OFFCURVE",
"103 460 CURVE SMOOTH",
"144 507 OFFCURVE",
"205 534 OFFCURVE",
"281 534 CURVE SMOOTH",
"362 534 OFFCURVE",
"422 504 OFFCURVE",
"461 456 CURVE SMOOTH",
"500 408 OFFCURVE",
"519 343 OFFCURVE",
"519 271 CURVE SMOOTH",
"519 229 LINE",
"172 229 LINE",
"172 216 LINE SMOOTH",
"172 140 OFFCURVE",
"215 90 OFFCURVE",
"299 90 CURVE SMOOTH",
"363 90 OFFCURVE",
"400 120 OFFCURVE",
"432 161 CURVE",
"501 84 LINE",
"458 24 OFFCURVE",
"382 -12 OFFCURVE",
"285 -12 CURVE SMOOTH"
);
},
{
closed = 1;
nodes = (
"215 438 OFFCURVE",
"172 388 OFFCURVE",
"172 316 CURVE SMOOTH",
"172 308 LINE",
"386 308 LINE",
"386 317 LINE SMOOTH",
"386 389 OFFCURVE",
"350 438 OFFCURVE",
"283 438 CURVE SMOOTH"
);
},
{
closed = 1;
nodes = (
"231 -194 OFFCURVE",
"211 -169 OFFCURVE",
"211 -136 CURVE SMOOTH",
"211 -114 LINE SMOOTH",
"211 -81 OFFCURVE",
"231 -56 OFFCURVE",
"283 -56 CURVE SMOOTH",
"335 -56 OFFCURVE",
"355 -81 OFFCURVE",
"355 -114 CURVE SMOOTH",
"355 -136 LINE SMOOTH",
"355 -169 OFFCURVE",
"335 -194 OFFCURVE",
"283 -194 CURVE SMOOTH"
);
}
);
width = 558;
}
);
leftKerningGroup = c;
rightKerningGroup = e;
unicode = 1EB9;
},
{
glyphname = egrave;
layers = (
{
layerId = "A3FA1D5A-5B70-4048-948C-F73CFEE83353";
name = Bold;
paths = (
{
closed = 1;
nodes = (
"208 -12 OFFCURVE",
"147 15 OFFCURVE",
"105 63 CURVE SMOOTH",
"63 110 OFFCURVE",
"39 178 OFFCURVE",
"39 262 CURVE SMOOTH",
"39 345 OFFCURVE",
"62 412 OFFCURVE",
"103 460 CURVE SMOOTH",
"144 507 OFFCURVE",
"205 534 OFFCURVE",
"281 534 CURVE SMOOTH",
"362 534 OFFCURVE",
"422 504 OFFCURVE",
"461 456 CURVE SMOOTH",
"500 408 OFFCURVE",
"519 343 OFFCURVE",
"519 271 CURVE SMOOTH",
"519 229 LINE",
"172 229 LINE",
"172 216 LINE SMOOTH",
"172 140 OFFCURVE",
"215 90 OFFCURVE",
"299 90 CURVE SMOOTH",
"363 90 OFFCURVE",
"400 120 OFFCURVE",
"432 161 CURVE",
"501 84 LINE",
"458 24 OFFCURVE",
"382 -12 OFFCURVE",
"285 -12 CURVE SMOOTH"
);
},
{
closed = 1;
nodes = (
"215 438 OFFCURVE",
"172 388 OFFCURVE",
"172 316 CURVE SMOOTH",
"172 308 LINE",
"386 308 LINE",
"386 317 LINE SMOOTH",
"386 389 OFFCURVE",
"350 438 OFFCURVE",
"283 438 CURVE SMOOTH"
);
},
{
closed = 1;
nodes = (
"147 752 LINE",
"255 805 LINE",
"350 618 LINE",
"273 581 LINE"
);
}
);
width = 558;
}
);
leftKerningGroup = c;
rightKerningGroup = e;
unicode = 00E8;
},
{
glyphname = uni1EBB;
layers = (
{
layerId = "A3FA1D5A-5B70-4048-948C-F73CFEE83353";
name = Bold;
paths = (
{
closed = 1;
nodes = (
"208 -12 OFFCURVE",
"147 15 OFFCURVE",
"105 63 CURVE SMOOTH",
"63 110 OFFCURVE",
"39 178 OFFCURVE",
"39 262 CURVE SMOOTH",
"39 345 OFFCURVE",
"62 412 OFFCURVE",
"103 460 CURVE SMOOTH",
"144 507 OFFCURVE",
"205 534 OFFCURVE",
"281 534 CURVE SMOOTH",
"362 534 OFFCURVE",
"422 504 OFFCURVE",
"461 456 CURVE SMOOTH",
"500 408 OFFCURVE",
"519 343 OFFCURVE",
"519 271 CURVE SMOOTH",
"519 229 LINE",
"172 229 LINE",
"172 216 LINE SMOOTH",
"172 140 OFFCURVE",
"215 90 OFFCURVE",
"299 90 CURVE SMOOTH",
"363 90 OFFCURVE",
"400 120 OFFCURVE",
"432 161 CURVE",
"501 84 LINE",
"458 24 OFFCURVE",
"382 -12 OFFCURVE",
"285 -12 CURVE SMOOTH"
);
},
{
closed = 1;
nodes = (
"215 438 OFFCURVE",
"172 388 OFFCURVE",
"172 316 CURVE SMOOTH",
"172 308 LINE",
"386 308 LINE",
"386 317 LINE SMOOTH",
"386 389 OFFCURVE",
"350 438 OFFCURVE",
"283 438 CURVE SMOOTH"
);
},
{
closed = 1;
nodes = (
"176 791 LINE",
"309 791 LINE SMOOTH",
"377 791 OFFCURVE",
"398 760 OFFCURVE",
"398 723 CURVE SMOOTH",
"398 687 OFFCURVE",
"376 644 OFFCURVE",
"344 604 CURVE SMOOTH",
"317 571 LINE",
"250 603 LINE",
"296 698 LINE",
"176 698 LINE"
);
}
);
width = 558;
}
);
leftKerningGroup = c;
rightKerningGroup = e;
unicode = 1EBB;
},
{
glyphname = emacron;
layers = (
{
layerId = "A3FA1D5A-5B70-4048-948C-F73CFEE83353";
name = Bold;
paths = (
{
closed = 1;
nodes = (
"208 -12 OFFCURVE",
"147 15 OFFCURVE",
"105 63 CURVE SMOOTH",
"63 110 OFFCURVE",
"39 178 OFFCURVE",
"39 262 CURVE SMOOTH",
"39 345 OFFCURVE",
"62 412 OFFCURVE",
"103 460 CURVE SMOOTH",
"144 507 OFFCURVE",
"205 534 OFFCURVE",
"281 534 CURVE SMOOTH",
"362 534 OFFCURVE",
"422 504 OFFCURVE",
"461 456 CURVE SMOOTH",
"500 408 OFFCURVE",
"519 343 OFFCURVE",
"519 271 CURVE SMOOTH",
"519 229 LINE",
"172 229 LINE",
"172 216 LINE SMOOTH",
"172 140 OFFCURVE",
"215 90 OFFCURVE",
"299 90 CURVE SMOOTH",
"363 90 OFFCURVE",
"400 120 OFFCURVE",
"432 161 CURVE",
"501 84 LINE",
"458 24 OFFCURVE",
"382 -12 OFFCURVE",
"285 -12 CURVE SMOOTH"
);
},
{
closed = 1;
nodes = (
"215 438 OFFCURVE",
"172 388 OFFCURVE",
"172 316 CURVE SMOOTH",
"172 308 LINE",
"386 308 LINE",
"386 317 LINE SMOOTH",
"386 389 OFFCURVE",
"350 438 OFFCURVE",
"283 438 CURVE SMOOTH"
);
},
{
closed = 1;
nodes = (
"137 721 LINE",
"435 721 LINE",
"435 628 LINE",
"137 628 LINE"
);
}
);
width = 558;
}
);
leftKerningGroup = c;
rightKerningGroup = e;
unicode = 0113;
},
{
glyphname = eogonek;
layers = (
{
layerId = "A3FA1D5A-5B70-4048-948C-F73CFEE83353";
name = Bold;
paths = (
{
closed = 1;
nodes = (
"311 -211 OFFCURVE",
"283 -205 OFFCURVE",
"262 -192 CURVE",
"241 -180 OFFCURVE",
"228 -160 OFFCURVE",
"228 -129 CURVE SMOOTH",
"228 -100 OFFCURVE",
"240 -78 OFFCURVE",
"260 -58 CURVE SMOOTH",
"280 -39 OFFCURVE",
"307 -24 OFFCURVE",
"339 -8 CURVE",
"337 -4 LINE",
"318 -11 OFFCURVE",
"301 -12 OFFCURVE",
"282 -12 CURVE SMOOTH",
"206 -12 OFFCURVE",
"144 15 OFFCURVE",
"103 63 CURVE SMOOTH",
"62 110 OFFCURVE",
"39 178 OFFCURVE",
"39 262 CURVE SMOOTH",
"39 345 OFFCURVE",
"62 412 OFFCURVE",
"103 460 CURVE SMOOTH",
"144 507 OFFCURVE",
"205 534 OFFCURVE",
"281 534 CURVE SMOOTH",
"362 534 OFFCURVE",
"422 504 OFFCURVE",
"461 456 CURVE SMOOTH",
"500 408 OFFCURVE",
"519 343 OFFCURVE",
"519 271 CURVE SMOOTH",
"519 229 LINE",
"172 229 LINE",
"172 216 LINE SMOOTH",
"172 140 OFFCURVE",
"215 90 OFFCURVE",
"300 90 CURVE SMOOTH",
"360 90 OFFCURVE",
"404 122 OFFCURVE",
"432 161 CURVE",
"501 84 LINE",
"488 65 OFFCURVE",
"463 45 OFFCURVE",
"416 9 CURVE SMOOTH",
"361 -34 OFFCURVE",
"317 -72 OFFCURVE",
"317 -111 CURVE SMOOTH",
"317 -134 OFFCURVE",
"333 -142 OFFCURVE",
"353 -142 CURVE SMOOTH",
"374 -142 OFFCURVE",
"392 -131 OFFCURVE",
"405 -116 CURVE",
"453 -163 LINE",
"438 -192 OFFCURVE",
"401 -211 OFFCURVE",
"342 -211 CURVE SMOOTH"
);
},
{
closed = 1;
nodes = (
"386 308 LINE",
"386 317 LINE SMOOTH",
"386 389 OFFCURVE",
"350 438 OFFCURVE",
"283 438 CURVE SMOOTH",
"215 438 OFFCURVE",
"172 388 OFFCURVE",
"172 316 CURVE SMOOTH",
"172 308 LINE"
);
}
);
width = 558;
}
);
leftKerningGroup = c;
rightKerningGroup = e;
unicode = 0119;
},
{
glyphname = uni1EBD;
layers = (
{
layerId = "A3FA1D5A-5B70-4048-948C-F73CFEE83353";
name = Bold;
paths = (
{
closed = 1;
nodes = (
"208 -12 OFFCURVE",
"147 15 OFFCURVE",
"105 63 CURVE SMOOTH",
"63 110 OFFCURVE",
"39 178 OFFCURVE",
"39 262 CURVE SMOOTH",
"39 345 OFFCURVE",
"62 412 OFFCURVE",
"103 460 CURVE SMOOTH",
"144 507 OFFCURVE",
"205 534 OFFCURVE",
"281 534 CURVE SMOOTH",
"362 534 OFFCURVE",
"422 504 OFFCURVE",
"461 456 CURVE SMOOTH",
"500 408 OFFCURVE",
"519 343 OFFCURVE",
"519 271 CURVE SMOOTH",
"519 229 LINE",
"172 229 LINE",
"172 216 LINE SMOOTH",
"172 140 OFFCURVE",
"215 90 OFFCURVE",
"299 90 CURVE SMOOTH",
"363 90 OFFCURVE",
"400 120 OFFCURVE",
"432 161 CURVE",
"501 84 LINE",
"458 24 OFFCURVE",
"382 -12 OFFCURVE",
"285 -12 CURVE SMOOTH"
);
},
{
closed = 1;
nodes = (
"215 438 OFFCURVE",
"172 388 OFFCURVE",
"172 316 CURVE SMOOTH",
"172 308 LINE",
"386 308 LINE",
"386 317 LINE SMOOTH",
"386 389 OFFCURVE",
"350 438 OFFCURVE",
"283 438 CURVE SMOOTH"
);
},
{
closed = 1;
nodes = (
"330 604 OFFCURVE",
"307 615 OFFCURVE",
"283 626 CURVE SMOOTH",
"252 639 OFFCURVE",
"231 649 OFFCURVE",
"208 649 CURVE SMOOTH",
"185 649 OFFCURVE",
"170 640 OFFCURVE",
"149 623 CURVE",
"102 683 LINE",
"125 716 OFFCURVE",
"160 744 OFFCURVE",
"211 744 CURVE SMOOTH",
"242 744 OFFCURVE",
"265 733 OFFCURVE",
"289 722 CURVE SMOOTH",
"320 707 OFFCURVE",
"341 699 OFFCURVE",
"364 699 CURVE SMOOTH",
"387 699 OFFCURVE",
"402 708 OFFCURVE",
"423 725 CURVE",
"470 665 LINE",
"447 632 OFFCURVE",
"412 604 OFFCURVE",
"361 604 CURVE SMOOTH"
);
}
);
width = 558;
}
);
leftKerningGroup = c;
rightKerningGroup = e;
unicode = 1EBD;
},
{
glyphname = uni1EBF;
layers = (
{
layerId = "A3FA1D5A-5B70-4048-948C-F73CFEE83353";
name = Bold;
paths = (
{
closed = 1;
nodes = (
"452 723 LINE",
"382 757 LINE",
"477 944 LINE",
"578 894 LINE"
);
},
{
closed = 1;
nodes = (
"333 770 LINE",
"468 627 LINE",
"408 573 LINE",
"285 680 LINE",
"162 573 LINE",
"102 627 LINE",
"237 770 LINE"
);
},
{
closed = 1;
nodes = (
"208 -12 OFFCURVE",
"147 15 OFFCURVE",
"105 63 CURVE SMOOTH",
"63 110 OFFCURVE",
"39 178 OFFCURVE",
"39 262 CURVE SMOOTH",
"39 345 OFFCURVE",
"62 412 OFFCURVE",
"103 460 CURVE SMOOTH",
"144 507 OFFCURVE",
"205 534 OFFCURVE",
"281 534 CURVE SMOOTH",
"362 534 OFFCURVE",
"422 504 OFFCURVE",
"461 456 CURVE SMOOTH",
"500 408 OFFCURVE",
"519 343 OFFCURVE",
"519 271 CURVE SMOOTH",
"519 229 LINE",
"172 229 LINE",
"172 216 LINE SMOOTH",
"172 140 OFFCURVE",
"215 90 OFFCURVE",
"299 90 CURVE SMOOTH",
"363 90 OFFCURVE",
"400 120 OFFCURVE",
"432 161 CURVE",
"501 84 LINE",
"458 24 OFFCURVE",
"382 -12 OFFCURVE",
"285 -12 CURVE SMOOTH"
);
},
{
closed = 1;
nodes = (
"215 438 OFFCURVE",
"172 388 OFFCURVE",
"172 316 CURVE SMOOTH",
"172 308 LINE",
"386 308 LINE",
"386 317 LINE SMOOTH",
"386 389 OFFCURVE",
"350 438 OFFCURVE",
"283 438 CURVE SMOOTH"
);
}
);
width = 558;
}
);
leftKerningGroup = c;
rightKerningGroup = e;
unicode = 1EBF;
},
{
glyphname = uni1EC7;
layers = (
{
layerId = "A3FA1D5A-5B70-4048-948C-F73CFEE83353";
name = Bold;
paths = (
{
closed = 1;
nodes = (
"344 786 LINE",
"470 632 LINE",
"406 582 LINE",
"286 697 LINE",
"166 582 LINE",
"102 632 LINE",
"228 786 LINE"
);
},
{
closed = 1;
nodes = (
"208 -12 OFFCURVE",
"147 15 OFFCURVE",
"105 63 CURVE SMOOTH",
"63 110 OFFCURVE",
"39 178 OFFCURVE",
"39 262 CURVE SMOOTH",
"39 345 OFFCURVE",
"62 412 OFFCURVE",
"103 460 CURVE SMOOTH",
"144 507 OFFCURVE",
"205 534 OFFCURVE",
"281 534 CURVE SMOOTH",
"362 534 OFFCURVE",
"422 504 OFFCURVE",
"461 456 CURVE SMOOTH",
"500 408 OFFCURVE",
"519 343 OFFCURVE",
"519 271 CURVE SMOOTH",
"519 229 LINE",
"172 229 LINE",
"172 216 LINE SMOOTH",
"172 140 OFFCURVE",
"215 90 OFFCURVE",
"299 90 CURVE SMOOTH",
"363 90 OFFCURVE",
"400 120 OFFCURVE",
"432 161 CURVE",
"501 84 LINE",
"458 24 OFFCURVE",
"382 -12 OFFCURVE",
"285 -12 CURVE SMOOTH"
);
},
{
closed = 1;
nodes = (
"215 438 OFFCURVE",
"172 388 OFFCURVE",
"172 316 CURVE SMOOTH",
"172 308 LINE",
"386 308 LINE",
"386 317 LINE SMOOTH",
"386 389 OFFCURVE",
"350 438 OFFCURVE",
"283 438 CURVE SMOOTH"
);
},
{
closed = 1;
nodes = (
"231 -194 OFFCURVE",
"211 -169 OFFCURVE",
"211 -136 CURVE SMOOTH",
"211 -114 LINE SMOOTH",
"211 -81 OFFCURVE",
"231 -56 OFFCURVE",
"283 -56 CURVE SMOOTH",
"335 -56 OFFCURVE",
"355 -81 OFFCURVE",
"355 -114 CURVE SMOOTH",
"355 -136 LINE SMOOTH",
"355 -169 OFFCURVE",
"335 -194 OFFCURVE",
"283 -194 CURVE SMOOTH"
);
}
);
width = 558;
}
);
leftKerningGroup = c;
rightKerningGroup = e;
unicode = 1EC7;
},
{
glyphname = uni1EC1;
layers = (
{
layerId = "A3FA1D5A-5B70-4048-948C-F73CFEE83353";
name = Bold;
paths = (
{
closed = 1;
nodes = (
"-8 894 LINE",
"93 944 LINE",
"188 757 LINE",
"118 723 LINE"
);
},
{
closed = 1;
nodes = (
"333 770 LINE",
"468 627 LINE",
"408 573 LINE",
"285 680 LINE",
"162 573 LINE",
"102 627 LINE",
"237 770 LINE"
);
},
{
closed = 1;
nodes = (
"208 -12 OFFCURVE",
"147 15 OFFCURVE",
"105 63 CURVE SMOOTH",
"63 110 OFFCURVE",
"39 178 OFFCURVE",
"39 262 CURVE SMOOTH",
"39 345 OFFCURVE",
"62 412 OFFCURVE",
"103 460 CURVE SMOOTH",
"144 507 OFFCURVE",
"205 534 OFFCURVE",
"281 534 CURVE SMOOTH",
"362 534 OFFCURVE",
"422 504 OFFCURVE",
"461 456 CURVE SMOOTH",
"500 408 OFFCURVE",
"519 343 OFFCURVE",
"519 271 CURVE SMOOTH",
"519 229 LINE",
"172 229 LINE",
"172 216 LINE SMOOTH",
"172 140 OFFCURVE",
"215 90 OFFCURVE",
"299 90 CURVE SMOOTH",
"363 90 OFFCURVE",
"400 120 OFFCURVE",
"432 161 CURVE",
"501 84 LINE",
"458 24 OFFCURVE",
"382 -12 OFFCURVE",
"285 -12 CURVE SMOOTH"
);
},
{
closed = 1;
nodes = (
"215 438 OFFCURVE",
"172 388 OFFCURVE",
"172 316 CURVE SMOOTH",
"172 308 LINE",
"386 308 LINE",
"386 317 LINE SMOOTH",
"386 389 OFFCURVE",
"350 438 OFFCURVE",
"283 438 CURVE SMOOTH"
);
}
);
width = 558;
}
);
leftKerningGroup = c;
rightKerningGroup = e;
unicode = 1EC1;
},
